<?xml version="1.0" encoding="UTF-8" standalone="no"?>
<!-- Creator: CorelDRAW X7 -->

<svg
   xml:space="preserve"
   width="65.941948mm"
   height="5.5083561mm"
   version="1.1"
   style="clip-rule:evenodd;fill-rule:evenodd;image-rendering:optimizeQuality;shape-rendering:geometricPrecision;text-rendering:geometricPrecision"
   viewBox="0 0 6594.1948 550.83561"
   id="svg1129"
   xmlns="http://www.w3.org/2000/svg"
   xmlns:svg="http://www.w3.org/2000/svg">
 <defs
   id="defs183"><font
     id="FontID2"
     horiz-adv-x="606"
     font-variant="normal"
     style="fill-rule:nonzero"
     font-style="normal"
     font-weight="700"
     horiz-origin-x="0"
     horiz-origin-y="0"
     vert-origin-x="512"
     vert-origin-y="768"
     vert-adv-y="1024">
	<font-face
   font-family="Calibri"
   id="font-face1">
	</font-face>
   <missing-glyph
   id="missing-glyph1"><path
     d="M0 0z"
     id="path1" /></missing-glyph>
   <glyph
   unicode="3"
   horiz-adv-x="506"
   id="glyph2"><path
     d="M464.009 184.834c0,-31.5146 -5.99506,-59.505 -18.0257,-83.8498 -12.1521,-24.3043 -28.8006,-44.8009 -50.3099,-61.3278 -21.5093,-16.4864 -47.1908,-29.1651 -77.0041,-37.8337 -30.0158,-8.5065 -62.6646,-12.8408 -98.1893,-12.8408 -21.3068,0 -41.4793,1.49876 -60.4772,4.69883 -18.8358,3.15956 -35.4843,6.96723 -49.9858,11.6661 -14.5016,4.49629 -26.3702,9.31664 -35.8488,14.3395 -9.31664,4.82035 -15.5142,8.62802 -18.5118,11.1395 -2.99753,2.67347 -5.14441,5.50897 -6.64317,8.83056 -1.33674,3.15956 -2.67347,7.00774 -3.84818,11.342 -1.17471,4.49629 -1.98485,10.0053 -2.51144,16.6484 -0.486086,6.52165 -0.648114,14.7041 -0.648114,24.0207 0,15.5142 1.33674,26.3296 3.80767,32.3247 2.67347,5.99506 6.68368,8.99259 11.8686,8.99259 3.15956,0 8.83056,-2.14688 16.8105,-6.48114 8.02042,-4.33426 18.1877,-8.99259 30.5019,-14.0155 12.3547,-4.98238 26.8562,-9.6407 43.5047,-13.975 16.6484,-4.33426 35.4843,-6.52165 56.6695,-6.52165 17.8231,0 33.6614,2.18739 47.3124,6.35962 13.6914,4.13173 25.3575,10.1673 35.0387,17.6611 9.47867,7.65585 16.6484,16.8105 21.4688,27.6664 4.65832,10.8154 7.00774,22.9676 7.00774,36.1729 0,14.6636 -2.8355,27.6664 -8.5065,39.3324 -5.83303,11.6661 -14.137,21.6308 -25.479,29.8133 -11.18,8.34447 -25.3575,14.6636 -42.492,19.1599 -17.013,4.49629 -37.1856,6.84571 -60.3557,6.84571l-54.6441 0c-4.33426,0 -7.85839,0.486086 -10.8559,1.66079 -2.8355,1.17471 -5.34694,3.48361 -7.33179,7.16977 -1.82282,3.48361 -3.32159,8.5065 -4.17224,14.8256 -0.810143,6.35962 -1.17471,14.5016 -1.17471,24.5068 0,9.51918 0.364564,17.175 1.17471,23.1701 0.85065,5.99506 2.18739,10.6534 4.01021,13.8129 1.66079,3.36209 4.01021,5.671 6.68368,6.84571 2.79499,1.33674 6.15709,2.02536 9.96476,2.02536l55.0087 0c18.8358,0 35.5248,2.14688 50.0263,6.64317 14.6636,4.33426 26.8157,10.6534 36.821,18.8358 9.84324,8.18244 17.3371,17.9852 22.4815,29.6512 5.18492,11.504 7.85839,24.3448 7.85839,38.5223 0,10.6534 -1.86333,20.9827 -5.34694,30.5019 -3.68615,9.6407 -8.83056,17.9852 -15.8383,24.9929 -7.00774,7.00774 -16.0003,12.6787 -26.9778,16.6484 -11.0179,4.17224 -24.0207,6.19759 -39.0084,6.19759 -16.851,0 -32.6893,-2.51144 -47.6769,-7.69636 -14.9876,-4.98238 -28.3145,-10.4914 -40.1831,-16.4864 -11.8281,-6.15709 -21.8334,-11.8281 -30.1373,-17.013 -8.34447,-5.14441 -14.3395,-7.81788 -18.3497,-7.81788 -2.51144,0 -4.82035,0.486086 -6.64317,1.66079 -2.02536,1.17471 -3.68615,3.32159 -5.02289,6.68368 -1.17471,3.32159 -2.14688,7.97991 -2.8355,14.137 -0.648114,6.35962 -1.01268,14.3395 -1.01268,24.1828 0,8.18244 0.202536,14.8256 0.526593,20.3346 0.324057,5.34694 1.01268,9.84324 1.98485,13.4889 1.01268,3.52412 2.18739,6.68368 3.68615,9.35715 1.33674,2.47094 3.80767,5.30644 7.00774,8.5065 3.32159,3.15956 9.96476,7.65585 19.97,13.8129 10.1673,6.15709 22.846,12.1521 37.9957,17.9852 15.3522,5.83303 33.0133,10.6939 53.0239,14.8661 20.0105,3.9697 41.6413,5.99506 65.176,5.99506 30.4614,0 57.4796,-3.68615 81.1358,-10.8559 23.4941,-7.16977 43.3426,-17.4991 59.505,-30.988 16.0003,-13.4889 28.355,-30.1778 36.4969,-49.8238 8.34447,-19.8485 12.5167,-42.0059 12.5167,-66.8368 0,-19.1599 -2.51144,-37.1856 -7.33179,-53.672 -4.86086,-16.6484 -11.9901,-31.5146 -21.5093,-44.5174 -9.31664,-13.1648 -21.1852,-24.1423 -35.3222,-33.2969 -14.1775,-9.19512 -30.5019,-16.0003 -49.0137,-20.5371l0 -1.49876c22.1574,-2.63296 42.0059,-8.14194 59.667,-16.8105 17.4991,-8.5065 32.4867,-19.3219 44.6794,-32.3247 12.1521,-13.0028 21.5093,-27.6664 27.9904,-44.1933 6.48114,-16.3244 9.84324,-33.9855 9.84324,-52.8213z"
     id="path2" /></glyph>
   <glyph
   unicode="U"
   horiz-adv-x="652"
   id="glyph3"><path
     d="M584.007 235.491c0,-38.6645 -5.66777,-73.3306 -17.1682,-103.833 -11.3355,-30.6472 -28.0091,-56.4922 -50.1649,-77.6587 -22.1764,-21.1665 -49.5054,-37.3248 -82.0074,-48.3306 -32.6669,-11.1707 -69.9918,-16.6735 -112.325,-16.6735 -39.6744,0 -75.3504,5.00824 -106.843,14.8392 -31.657,9.99588 -58.3265,25 -80.1731,45.1566 -21.8261,20.1772 -38.4996,45.3421 -50,75.5153 -11.5004,30.1525 -17.3331,65.3339 -17.3331,105.668l0 384.336c0,3.15334 1.00989,6.16241 3.00907,8.8211 1.8343,2.49382 5.338,4.67848 10.3256,6.32729 5.00824,1.66941 11.6653,2.84419 19.8475,3.83347 7.9967,1.00989 18.4872,1.50453 31.1624,1.50453 12.1599,0 22.5062,-0.494641 30.5029,-1.50453 8.16158,-0.989283 14.6538,-2.16406 19.4971,-3.83347 4.82275,-1.6488 8.32646,-3.83347 10.4905,-6.32729 2.16406,-2.6587 3.17395,-5.66777 3.17395,-8.8211l0 -373.351c0,-25.1649 3.17395,-46.8261 9.33636,-65.3339 6.16241,-18.3223 15.0041,-33.6562 26.6694,-45.6513 11.5004,-12.0157 25.3298,-21.1665 41.488,-27.1641 16.1789,-6.01814 34.1715,-9.0066 53.9984,-9.0066 20.1772,0 38.3347,3.17395 54.1632,9.33636 16.014,6.16241 29.5136,15.169 40.6843,26.9992 10.9852,11.9951 19.662,26.6694 25.6595,44.0025 5.99753,17.4979 9.0066,37.3248 9.0066,59.5012l0 380.668c0,3.15334 0.989283,6.16241 2.98846,8.8211 1.8343,2.49382 5.338,4.67848 10.1608,6.32729 4.84336,1.66941 11.5004,2.84419 19.8475,3.83347 8.32646,1.00989 18.6727,1.50453 30.9975,1.50453 12.3248,0 22.5062,-0.494641 30.5029,-1.50453 7.9967,-0.989283 14.4889,-2.16406 19.3322,-3.83347 4.82275,-1.6488 8.32646,-3.83347 10.1608,-6.32729 1.99918,-2.6587 3.00907,-5.66777 3.00907,-8.8211l0 -379.019z"
     id="path3" /></glyph>
   <glyph
   unicode="f"
   horiz-adv-x="316"
   id="glyph4"><path
     d="M324.017 618.342c0,-9.51918 -0.364564,-17.013 -1.01268,-22.846 -0.688622,-5.671 -1.66079,-10.1673 -2.8355,-13.1648 -1.33674,-3.15956 -2.8355,-5.14441 -4.49629,-6.31912 -1.49876,-1.17471 -3.32159,-1.66079 -5.34694,-1.66079 -2.30891,0 -4.82035,0.486086 -7.49382,1.66079 -2.8355,1.17471 -6.15709,2.30891 -10.3293,3.64564 -4.01021,1.33674 -8.83056,2.51144 -14.3395,3.68615 -5.50897,1.17471 -11.9901,1.66079 -19.4839,1.66079 -8.66853,0 -16.3649,-1.33674 -22.684,-4.17224 -6.31912,-2.67347 -11.6661,-7.16977 -15.8383,-13.1648 -4.17224,-5.99506 -7.33179,-13.8534 -9.15462,-23.3321 -1.98485,-9.68121 -2.99753,-21.3473 -2.99753,-35.3222l0 -40.0211 79.8396 0c2.99753,0 5.671,-0.810143 8.14194,-2.51144 2.51144,-1.66079 4.49629,-4.29376 6.19759,-7.97991 1.49876,-3.84818 2.8355,-8.99259 3.64564,-15.5142 0.85065,-6.48114 1.17471,-14.5016 1.17471,-23.9802 0,-18.0257 -1.66079,-30.8259 -4.82035,-38.5223 -3.36209,-7.65585 -8.02042,-11.4635 -14.3395,-11.4635l-79.8396 0 0 -352.534c0,-3.15956 -1.01268,-5.99506 -2.99753,-8.5065 -1.82282,-2.47094 -5.18492,-4.49629 -9.68121,-6.15709 -4.65832,-1.49876 -10.9774,-2.8355 -19.1599,-3.64564 -8.18244,-0.85065 -18.1472,-1.17471 -29.8133,-1.17471 -11.8686,0 -21.6713,0.324057 -29.6917,1.17471 -7.97991,0.810143 -14.5016,2.14688 -19.1599,3.64564 -4.65832,1.66079 -8.02042,3.68615 -9.84324,6.15709 -1.82282,2.51144 -2.67347,5.34694 -2.67347,8.5065l0 352.534 -54.4821 0c-6.15709,0 -10.8154,3.80767 -13.8534,11.4635 -3.15956,7.69636 -4.65832,20.4966 -4.65832,38.5223 0,9.47867 0.324057,17.4991 1.17471,23.9802 0.85065,6.52165 1.98485,11.6661 3.48361,15.5142 1.49876,3.68615 3.36209,6.31912 5.83303,7.97991 2.34941,1.7013 5.18492,2.51144 8.5065,2.51144l53.996 0 0 36.659c0,29.6917 2.99753,55.6973 8.83056,78.0168 5.83303,22.1574 15.0282,40.8312 27.5044,55.6568 12.6787,14.8256 28.6791,26.0056 48.001,33.4994 19.3624,7.49382 42.33,11.18 68.7001,11.18 12.6382,0 24.6283,-1.01268 36.1324,-3.15956 11.342,-2.18739 20.3346,-4.49629 26.8562,-6.84571 6.48114,-2.51144 10.9774,-4.82035 13.1648,-6.84571 2.30891,-2.14688 4.17224,-5.30644 5.671,-9.31664 1.49876,-4.17224 2.47094,-9.31664 3.15956,-15.6763 0.648114,-6.48114 1.01268,-14.3395 1.01268,-23.8182z"
     id="path4" /></glyph>
   <glyph
   unicode="D"
   horiz-adv-x="630"
   id="glyph5"><path
     d="M594.013 325.336c0,-57.9982 -7.52423,-107.508 -22.6798,-148.825 -15.1556,-41.1825 -36.8446,-74.68 -65.1743,-100.841 -28.3297,-26.0001 -62.818,-45.1722 -103.331,-57.3288 -40.4863,-12.1834 -88.8181,-18.342 -144.835,-18.342l-150.833 0c-10.8178,0 -19.8147,3.15964 -27.1515,9.5057 -7.3368,6.31928 -11.0052,16.6551 -11.0052,31.0073l0 550.983c0,14.3255 3.6684,24.6613 11.0052,31.0073 7.3368,6.31928 16.3337,9.5057 27.1515,9.5057l161.999 0c56.338,0 104.188,-6.66738 143.335,-19.8415 39.3349,-13.1741 72.3505,-32.6675 99.1806,-58.5069 26.8302,-26.0001 47.3143,-57.9982 61.3185,-95.9942 14.0042,-38.1567 21.0197,-82.1775 21.0197,-132.33zm-133 -4.49847c0,29.9898 -3.50774,57.6501 -10.5232,83.4895 -6.9887,25.6788 -18.1546,47.8498 -33.6582,66.6738 -15.5037,18.824 -35.3452,33.6582 -59.4977,44.1547 -24.34,10.5232 -55.9899,15.8518 -95.5122,15.8518l-64.8262 0 0 -429.015 66.8345 0c35.1577,0 64.8262,4.49847 88.8449,13.6829 23.9919,8.99695 44.1547,22.8137 60.3277,41.1557 15.9856,18.342 28.0084,41.1825 35.9878,68.4946 8.00621,27.3389 12.0227,59.1764 12.0227,95.5122z"
     id="path5" /></glyph>
   <glyph
   unicode="c"
   horiz-adv-x="418"
   id="glyph6"><path
     d="M391.016 85.9967c0,-8.5065 -0.162029,-15.5142 -0.688622,-21.3473 -0.486086,-5.63049 -1.17471,-10.4914 -1.98485,-14.5016 -0.85065,-3.80767 -1.82282,-6.96723 -2.99753,-9.47867 -1.17471,-2.51144 -3.68615,-5.50897 -7.49382,-9.31664 -4.01021,-3.68615 -10.6939,-8.34447 -20.0105,-13.6914 -9.51918,-5.34694 -20.1726,-10.1673 -32.3247,-14.5016 -12.0306,-4.17224 -25.0334,-7.65585 -39.1704,-10.1673 -14.1775,-2.67347 -28.8411,-4.01021 -43.8287,-4.01021 -33.4994,0 -63.1912,5.18492 -89.0347,15.6763 -25.9651,10.3293 -47.6364,25.8436 -65.2975,46.1782 -17.4991,20.3346 -30.8664,45.3275 -39.697,74.6547 -8.99259,29.3272 -13.4889,62.8266 -13.4889,100.66 0,43.6667 5.50897,81.5004 16.3244,113.177 11.0179,31.8386 26.1676,58.1683 45.6921,78.9889 19.4839,20.8612 42.654,36.3349 69.3077,46.5022 26.6942,10.1673 56.0214,15.1902 88.022,15.1902 13.0028,0 25.641,-1.17471 38.3198,-3.52412 12.5167,-2.14688 24.1828,-5.30644 35.1602,-9.15462 10.8559,-4.01021 20.6586,-8.34447 29.1651,-13.1648 8.66853,-4.98238 14.8256,-9.15462 18.3497,-12.8408 3.64564,-3.48361 6.15709,-6.48114 7.65585,-8.99259 1.33674,-2.51144 2.51144,-5.671 3.32159,-9.51918 0.85065,-3.9697 1.49876,-8.83056 2.02536,-14.4611 0.486086,-5.83303 0.648114,-12.6787 0.648114,-20.8612 0,-18.9979 -1.49876,-32.3247 -4.82035,-39.9806 -3.32159,-7.69636 -7.49382,-11.504 -12.6787,-11.504 -5.50897,0 -11.504,2.30891 -17.6611,6.84571 -6.15709,4.49629 -13.4889,9.6407 -21.9954,15.1497 -8.34447,5.50897 -18.5118,10.6534 -30.1778,15.1497 -11.6661,4.49629 -25.641,6.84571 -42.0059,6.84571 -32.0006,0 -56.3049,-12.3142 -73.3179,-36.821 -16.851,-24.6689 -25.317,-60.6797 -25.317,-108.195 0,-23.3321 2.14688,-43.9908 6.31912,-61.9759 4.33426,-17.8231 10.4914,-32.8513 18.8358,-44.8414 8.34447,-11.9901 18.6738,-21.1447 31.15,-27.1803 12.6787,-5.99506 27.1803,-8.99259 43.8287,-8.99259 16.851,0 31.5146,2.51144 43.6667,7.65585 12.1927,5.02289 22.846,10.6939 32.0006,16.851 9.03309,6.15709 16.6889,11.8281 23.0081,16.851 6.15709,5.14441 11.342,7.65585 15.5142,7.65585 2.99753,0 5.34694,-0.85065 7.33179,-2.51144 1.98485,-1.66079 3.48361,-4.65832 4.65832,-8.99259 1.17471,-4.49629 1.98485,-10.1673 2.67347,-17.013 0.648114,-6.8052 1.01268,-15.6358 1.01268,-26.4917z"
     id="path6" /></glyph>
   <glyph
   unicode="t"
   horiz-adv-x="346"
   id="glyph7"><path
     d="M320.006 59.343c0,-14.3395 -0.85065,-25.3575 -2.67347,-33.0133 -1.82282,-7.65585 -4.17224,-13.0028 -7.16977,-16.0003 -2.8355,-3.15956 -7.16977,-5.99506 -12.8408,-8.34447 -5.83303,-2.47094 -12.4762,-4.65832 -20.1726,-6.31912 -7.49382,-1.82282 -15.7978,-3.15956 -24.8309,-4.17224 -8.99259,-1.01268 -17.9852,-1.49876 -27.1398,-1.49876 -24.3448,0 -45.53,3.15956 -63.5152,9.35715 -17.8231,6.15709 -32.6488,15.6358 -44.5174,28.4765 -11.6661,12.8408 -20.2941,29.0031 -25.8031,48.6896 -5.50897,19.4839 -8.34447,42.654 -8.34447,69.3077l0 223.194 -52.8213 0c-6.19759,0 -11.0179,3.80767 -14.1775,11.4635 -3.32159,7.69636 -4.98238,20.4966 -4.98238,38.5223 0,9.47867 0.324057,17.4991 1.1342,23.9802 0.85065,6.52165 2.18739,11.6661 3.84818,15.5142 1.49876,3.68615 3.68615,6.31912 6.15709,7.97991 2.34941,1.7013 5.34694,2.51144 8.5065,2.51144l52.3352 0 0 97.5007c0,3.15956 0.85065,6.15709 2.67347,8.83056 1.82282,2.51144 5.14441,4.65832 9.84324,6.52165 4.65832,1.82282 11.1395,3.15956 19.1599,3.9697 7.97991,0.85065 17.8231,1.17471 29.6512,1.17471 11.9901,0 21.9954,-0.324057 30.0158,-1.17471 7.97991,-0.810143 14.3395,-2.14688 18.9979,-3.9697 4.49629,-1.86333 7.81788,-4.01021 9.6407,-6.52165 2.02536,-2.67347 3.03804,-5.671 3.03804,-8.83056l0 -97.5007 94.4627 0c3.36209,0 6.19759,-0.810143 8.5065,-2.51144 2.51144,-1.66079 4.49629,-4.29376 6.19759,-7.97991 1.66079,-3.84818 2.79499,-8.99259 3.64564,-15.5142 0.85065,-6.48114 1.17471,-14.5016 1.17471,-23.9802 0,-18.0257 -1.66079,-30.8259 -4.82035,-38.5223 -3.36209,-7.65585 -8.02042,-11.4635 -14.1775,-11.4635l-94.9893 0 0 -204.683c0,-23.8182 3.64564,-41.6819 11.1395,-53.5099 7.49382,-11.8281 20.8612,-17.8231 40.0211,-17.8231 6.48114,0 12.3142,0.486086 17.4991,1.66079 5.14441,1.17471 9.80273,2.51144 13.8129,4.01021 4.17224,1.33674 7.49382,2.67347 10.3293,3.80767 2.67347,1.17471 5.34694,1.7013 7.49382,1.7013 2.02536,0 3.84818,-0.526593 5.671,-1.7013 1.66079,-1.1342 3.20006,-3.32159 4.17224,-6.8052 0.85065,-3.36209 1.82282,-8.02042 2.67347,-13.8534 0.85065,-5.99506 1.17471,-13.3269 1.17471,-22.4815z"
     id="path7" /></glyph>
   <glyph
   unicode="R"
   horiz-adv-x="563"
   id="glyph8"><path
     d="M537.996 16.4944c0,-3.50774 -0.669416,-6.50672 -2.00825,-8.99695 -1.31205,-2.49023 -4.31104,-4.49847 -9.15761,-6.15862 -5.00723,-1.49949 -11.9959,-2.67766 -21.5016,-3.34708 -9.5057,-0.669416 -22.3317,-0.990735 -38.5048,-0.990735 -13.6561,0 -24.5006,0.32132 -32.6675,0.990735 -8.16687,0.669416 -14.6468,1.84759 -19.3327,3.6684 -4.65913,1.84759 -7.97944,4.01649 -9.98768,6.82804 -1.84759,2.83832 -3.50774,6.1854 -4.84657,10.0145l-56.9807 141.488c-6.85482,16.0124 -13.4954,30.3379 -20.0021,42.6819 -6.50672,12.5047 -13.8435,22.8405 -21.8497,31.168 -7.97944,8.32753 -17.3245,14.4862 -27.8209,18.824 -10.3358,4.17715 -22.4924,6.34606 -36.1752,6.34606l-40.1649 0 0 -241.498c0,-3.18642 -0.990735,-6.1854 -3.15964,-8.67563 -2.16891,-2.67766 -5.67665,-4.84657 -10.4964,-6.50672 -4.84657,-1.49949 -11.3265,-2.83832 -19.4934,-3.82906 -8.00621,-0.990735 -18.5027,-1.49949 -31.0073,-1.49949 -12.344,0 -22.6798,0.508756 -31.0073,1.49949 -8.32753,0.990735 -14.8343,2.32957 -19.654,3.82906 -4.84657,1.66015 -8.35431,3.82906 -10.1751,6.34606 -2.00825,2.65089 -2.99898,5.64987 -2.99898,8.83629l0 573.984c0,14.3255 3.6684,24.6613 11.0052,31.0073 7.3368,6.31928 16.3337,9.5057 26.9908,9.5057l163.659 0c16.5212,0 30.3379,-0.348096 41.0218,-1.01751 10.6571,-0.669416 20.4841,-1.49949 29.3204,-2.32957 25.3307,-3.6684 48.1712,-9.82702 68.4946,-18.6633 20.3502,-8.67563 37.6747,-20.1628 51.8396,-34.3276 14.1648,-14.1648 25.0094,-30.8467 32.5068,-50.1794 7.49746,-19.3327 11.1659,-41.5038 11.1659,-66.647 0,-21.0197 -2.67766,-40.3524 -8.00621,-57.6769 -5.48921,-17.5119 -13.3348,-32.9888 -23.8312,-46.6717 -10.3358,-13.6561 -23.1618,-25.4914 -38.5048,-35.5058 -15.343,-10.1483 -32.8281,-18.1546 -52.3215,-24.5006 9.47893,-4.49847 18.3152,-9.98768 26.6695,-16.4944 8.32753,-6.50672 16.1463,-14.4862 23.4831,-23.8312 7.3368,-9.31827 14.3255,-19.8415 20.8322,-31.8374 6.50672,-11.8353 12.826,-25.3307 19.0114,-40.3256l53.4997 -124.833c4.81979,-12.344 8.16687,-21.341 9.66636,-27.1783 1.66015,-5.64987 2.49023,-10.1483 2.49023,-13.4954zm-165.988 429.176c0,20.8322 -4.68591,38.5048 -14.1648,52.6696 -9.5057,14.3255 -25.0094,24.5006 -46.511,30.3379 -6.50672,1.66015 -13.8435,2.81155 -22.171,3.82906 -8.32753,0.990735 -19.8147,1.49949 -34.4883,1.49949l-57.6769 0 0 -179.002 65.4956 0c18.342,0 34.167,2.16891 47.8498,6.66738 13.8167,4.33781 25.17,10.4964 34.3276,18.5027 9.15761,7.81878 15.9856,17.4851 20.5109,28.4903 4.49847,11.0052 6.82804,23.3224 6.82804,37.0053z"
     id="path8" /></glyph>
   <glyph
   unicode="A"
   horiz-adv-x="606"
   id="glyph9"><path
     d="M586.489 47.8231c3.85583,-11.6478 6.34606,-20.9929 7.3368,-27.8209 1.01751,-6.82804 -0.32132,-11.9959 -3.82906,-15.5037 -3.6684,-3.3203 -9.98768,-5.48921 -19.1721,-6.31928 -8.99695,-0.856852 -21.6623,-1.17817 -37.4873,-1.17817 -16.6818,0 -29.6685,0.16066 -38.8261,0.669416 -9.34504,0.508756 -16.3337,1.49949 -21.341,2.99898 -4.84657,1.49949 -8.16687,3.50774 -10.1751,6.15862 -1.98147,2.517 -3.6684,5.99796 -4.81979,10.1751l-41.5038 127.002 -238.339 0 -39.8436 -123.494c-1.31205,-4.68591 -2.99898,-8.51497 -5.16789,-11.514 -1.98147,-3.15964 -5.48921,-5.48921 -10.1483,-7.3368 -4.65913,-1.82081 -11.3265,-2.99898 -20.0021,-3.6684 -8.67563,-0.669416 -20.0021,-0.990735 -34.0063,-0.990735 -14.9949,0 -26.6695,0.508756 -35.1577,1.49949 -8.51497,0.990735 -14.3523,3.3203 -17.5119,6.9887 -3.3203,3.85583 -4.49847,9.18438 -3.50774,16.0124 1.01751,6.82804 3.50774,15.825 7.3368,27.3389l194.666 560.837c1.84759,5.48921 4.17715,9.98768 6.85482,13.3348 2.49023,3.48096 6.66738,5.99796 12.3172,7.81878 5.83731,1.84759 13.6829,2.99898 23.8312,3.50774 10.0145,0.481979 23.3492,0.669416 40.0043,0.669416 19.1721,0 34.5151,-0.187436 45.8416,-0.669416 11.4872,-0.508756 20.3235,-1.66015 26.6695,-3.50774 6.31928,-1.82081 10.8178,-4.49847 13.6561,-8.00621 2.67766,-3.6684 5.16789,-8.48819 7.01548,-14.6468l195.309 -560.355zm-289.991 464.012l-0.508756 0 -87.988 -268.837 177.342 0 -88.8449 268.837z"
     id="path9" /></glyph>
   <glyph
   unicode="-"
   horiz-adv-x="306"
   id="glyph10"><path
     d="M278.001 246c0,-18.9979 -1.82282,-32.1627 -5.34694,-39.6565 -3.64564,-7.49382 -9.31664,-11.342 -17.1345,-11.342l-203.508 0c-8.18244,0 -14.0155,3.84818 -17.6611,11.504 -3.52412,7.65585 -5.34694,20.8207 -5.34694,39.4945 0,18.3497 1.82282,31.15 5.34694,38.6843 3.64564,7.49382 9.47867,11.3015 17.6611,11.3015l203.508 0c3.9697,0 7.33179,-0.810143 9.96476,-2.47094 2.8355,-1.7013 5.18492,-4.33426 7.16977,-8.34447 1.86333,-3.84818 3.36209,-9.15462 4.17224,-15.6763 0.85065,-6.48114 1.17471,-14.3395 1.17471,-23.4941z"
     id="path10" /></glyph>
   <glyph
   unicode="q"
   horiz-adv-x="536"
   id="glyph11"><path
     d="M474.987 -155.993c0,-3.32159 -0.972172,-6.15709 -2.99753,-8.83056 -1.82282,-2.51144 -5.14441,-4.86086 -9.6407,-6.52165 -4.49629,-1.82282 -10.8559,-3.15956 -18.5118,-4.17224 -7.81788,-0.972172 -17.8231,-1.49876 -29.8538,-1.49876 -11.9901,0 -21.9954,0.526593 -29.8133,1.49876 -7.65585,1.01268 -14.0155,2.34941 -18.6738,4.17224 -4.82035,1.66079 -7.97991,4.01021 -9.84324,6.52165 -1.82282,2.67347 -2.63296,5.50897 -2.63296,8.83056l0 206.992c-11.7066,-10.8154 -23.1701,-20.1726 -34.188,-27.9904 -11.18,-8.02042 -22.1574,-14.5016 -33.1754,-19.6865 -11.1395,-4.98238 -22.4815,-8.66853 -34.3096,-10.9774 -11.6661,-2.18739 -24.0207,-3.36209 -37.0235,-3.36209 -32.0006,0 -59.1404,6.52165 -81.6624,19.3624 -22.3194,12.8408 -40.6692,30.1373 -54.8467,51.9707 -14.137,21.6713 -24.4663,47.1908 -30.988,76.356 -6.48114,29.1651 -9.84324,59.8291 -9.84324,91.9917 0,38.6843 4.17224,73.5205 12.6787,104.508 8.5065,30.8259 20.8207,57.1556 37.1856,78.9889 16.3244,21.8334 36.3349,38.5223 59.9911,50.3504 23.8182,11.6661 51.3226,17.4991 82.6751,17.4991 11.9901,0 23.4941,-1.17471 34.6336,-3.68615 11.0179,-2.47094 22.0359,-6.64317 33.1754,-12.6382 11.0179,-6.03557 22.522,-13.8534 34.5121,-23.5347 11.8281,-9.47867 24.8309,-21.3068 39.1704,-35.3222l0 47.5149c0,3.32159 1.01268,6.15709 2.8355,8.66853 1.66079,2.47094 4.65832,4.49629 8.66853,6.15709 4.17224,1.49876 9.31664,2.8355 15.8383,3.64564 6.48114,0.85065 14.9876,1.17471 25.479,1.17471 9.68121,0 17.8231,-0.324057 24.5068,-1.17471 6.68368,-0.810143 11.9901,-2.14688 16.0003,-3.64564 3.84818,-1.66079 6.68368,-3.68615 8.18244,-6.15709 1.66079,-2.51144 2.47094,-5.34694 2.47094,-8.5065l0 -608.498zm-121.967 463.645c-17.5396,22.1979 -34.5121,39.0084 -50.5124,50.8365 -16.1624,11.6661 -33.0133,17.4991 -50.6744,17.4991 -15.8383,0 -29.6512,-3.9697 -41.1553,-11.9901 -11.6661,-7.97991 -20.8612,-18.5118 -27.8284,-31.8386 -7.00774,-13.4889 -12.3547,-28.3145 -15.6763,-44.6389 -3.52412,-16.5269 -5.18492,-33.3374 -5.18492,-50.5124 0,-18.3497 1.49876,-36.1729 4.33426,-53.5099 2.99753,-17.3371 7.85839,-32.8108 14.5016,-46.1782 6.68368,-13.3269 15.5142,-23.9802 26.6942,-32.1627 10.9774,-8.14194 24.9929,-12.1521 41.9654,-12.1521 8.34447,0 16.6889,1.17471 24.6689,3.64564 8.02042,2.51144 16.0003,6.35962 24.3448,12.0306 8.34447,5.46847 16.851,12.6382 25.6815,21.6713 8.83056,8.99259 18.4713,19.808 28.8411,32.8108l0 144.489z"
     id="path11" /></glyph>
   <glyph
   unicode="O"
   horiz-adv-x="676"
   id="glyph12"><path
     d="M637.004 323.325c0,-52.3261 -6.50875,-99.1677 -19.5049,-140.482 -12.9962,-41.3359 -32.3303,-76.5045 -58.1733,-105.186 -25.6509,-28.8306 -57.4904,-50.8323 -95.3265,-65.9838 -38.0068,-15.1729 -81.8395,-22.6633 -131.669,-22.6633 -49.1677,0 -91.9974,6.48741 -128.489,19.3342 -36.6837,12.8254 -67.1788,32.3303 -91.6773,58.8135 -24.3278,26.3338 -42.659,59.8378 -54.8229,100.512 -12.1639,40.6743 -18.3312,88.8391 -18.3312,144.494 0,51.003 6.48741,97.0124 19.4836,137.836 12.9962,40.8237 32.3303,75.5015 58.1733,104.161 25.6722,28.6812 57.4904,50.6615 95.3265,65.8344 38.0068,15.3436 82.0102,23.0047 132.181,23.0047 47.8233,0 89.9915,-6.33803 126.654,-18.9927 36.513,-12.6761 67.1788,-32.181 91.6773,-58.6641 24.6692,-26.3338 43.1711,-59.5177 55.6551,-99.6799 12.5053,-40.3329 18.8434,-87.6654 18.8434,-142.339zm-134.998 -6.48741c0,33.1626 -2.66752,63.3376 -7.83184,90.5036 -5.16432,27.166 -13.9991,50.4908 -26.5045,69.825 -12.5053,19.3342 -29.172,34.3363 -50,45.0064 -20.828,10.4994 -46.8417,15.8344 -77.9983,15.8344 -31.4981,0 -57.8318,-5.99659 -78.8306,-17.8404 -21.1694,-11.8224 -38.3483,-27.8276 -51.3444,-47.6739 -12.9962,-19.825 -22.1724,-43.0004 -27.4861,-69.4836 -5.33504,-26.6752 -8.00256,-54.6735 -8.00256,-84.3363 0,-34.507 2.66752,-65.5143 7.83184,-93.0004 5.16432,-27.5075 13.9991,-51.003 26.3338,-70.6786 12.3346,-19.4836 28.8306,-34.3363 49.6586,-44.665 20.828,-10.1579 46.991,-15.3222 78.5105,-15.3222 31.4981,0 57.8318,5.82586 78.8306,17.6697 21.1694,11.6517 38.3269,27.6569 51.3231,47.8233 12.9962,20.1665 22.1724,43.662 27.5075,70.5079 5.33504,26.8246 8.00256,55.4844 8.00256,85.8301z"
     id="path12" /></glyph>
   <glyph
   unicode="]"
   horiz-adv-x="324"
   id="glyph13"><path
     d="M247.985 -123.992c0,-7.16977 -0.972172,-13.3269 -3.15956,-18.5118 -2.14688,-5.14441 -4.82035,-9.47867 -7.97991,-12.6787 -3.36209,-3.32159 -7.16977,-5.83303 -11.6661,-7.33179 -4.69883,-1.66079 -9.68121,-2.47094 -15.1902,-2.47094l-150.97 0c-5.50897,0 -9.68121,3.32159 -12.6787,9.80273 -2.8355,6.52165 -4.33426,17.8637 -4.33426,34.188 0,8.5065 0.324057,15.5142 1.17471,20.9827 0.810143,5.50897 1.98485,10.1673 3.48361,13.6914 1.49876,3.64564 3.15956,5.99506 5.34694,7.33179 2.14688,1.33674 4.49629,1.98485 7.00774,1.98485l73.9661 0 0 679.994 -73.9661 0c-5.50897,0 -9.68121,3.15956 -12.6787,9.51918 -2.8355,6.31912 -4.33426,17.8231 -4.33426,34.4716 0,8.5065 0.324057,15.5142 1.17471,21.0232 0.810143,5.50897 1.98485,10.0053 3.48361,13.4889 1.49876,3.32159 3.15956,5.83303 5.34694,7.33179 2.14688,1.49876 4.49629,2.18739 7.00774,2.18739l150.97 0c5.50897,0 10.4914,-0.688622 15.1902,-2.18739 4.49629,-1.49876 8.30397,-4.01021 11.6661,-7.33179 3.15956,-3.48361 5.83303,-7.81788 7.97991,-13.0028 2.18739,-5.14441 3.15956,-11.1395 3.15956,-17.9852l0 -774.497z"
     id="path13" /></glyph>
   <glyph
   unicode="n"
   horiz-adv-x="536"
   id="glyph14"><path
     d="M477.984 16.4864c0,-3.15956 -0.972172,-5.99506 -2.99753,-8.5065 -1.82282,-2.47094 -5.14441,-4.49629 -9.6407,-6.15709 -4.69883,-1.49876 -11.0179,-2.8355 -18.9979,-3.64564 -8.02042,-0.85065 -17.8637,-1.17471 -29.5297,-1.17471 -12.1521,0 -22.1574,0.324057 -30.1373,1.17471 -8.02042,0.810143 -14.3395,2.14688 -18.9979,3.64564 -4.5368,1.66079 -7.85839,3.68615 -9.68121,6.15709 -1.98485,2.51144 -2.99753,5.34694 -2.99753,8.5065l0 248.511c0,21.1852 -1.49876,37.8337 -4.65832,49.8238 -2.99753,12.1927 -7.49382,22.522 -13.3269,31.0285 -5.83303,8.66853 -13.5294,15.3117 -22.684,20.1321 -9.31664,4.69883 -20.0105,7.00774 -32.3247,7.00774 -15.6763,0 -31.3525,-5.671 -47.3529,-17.175 -15.8383,-11.3015 -32.4867,-27.9904 -49.6618,-49.6618l0 -289.667c0,-3.15956 -1.01268,-5.99506 -2.99753,-8.5065 -1.82282,-2.47094 -5.18492,-4.49629 -10.0053,-6.15709 -4.65832,-1.49876 -10.9774,-2.8355 -18.6738,-3.64564 -7.81788,-0.85065 -17.8231,-1.17471 -29.8133,-1.17471 -11.9901,0 -21.9954,0.324057 -29.8538,1.17471 -7.65585,0.810143 -13.975,2.14688 -18.6333,3.64564 -4.86086,1.66079 -8.18244,3.68615 -10.0053,6.15709 -2.02536,2.51144 -2.99753,5.34694 -2.99753,8.5065l0 436.019c0,3.15956 0.810143,5.99506 2.47094,8.5065 1.49876,2.47094 4.49629,4.49629 8.66853,6.15709 4.33426,1.49876 9.68121,2.8355 16.3244,3.64564 6.68368,0.85065 15.1902,1.17471 25.1954,1.17471 10.4914,0 18.9979,-0.324057 25.8436,-1.17471 6.8052,-0.810143 12.1521,-2.14688 16.0003,-3.64564 3.64564,-1.66079 6.31912,-3.68615 7.97991,-6.15709 1.66079,-2.51144 2.51144,-5.34694 2.51144,-8.5065l0 -50.3504c23.9802,26.0056 48.4871,45.3275 73.48,58.3303 24.8309,13.0028 50.8365,19.5244 77.8547,19.5244 29.6512,0 54.6441,-4.86086 74.9787,-14.6636 20.3346,-9.68121 36.659,-23.0081 49.3377,-39.859 12.5167,-16.6484 21.5093,-36.3349 27.0183,-58.8164 5.46847,-22.522 8.30397,-49.4997 8.30397,-81.0143l0 -269.17z"
     id="path14" /></glyph>
   <glyph
   unicode="L"
   horiz-adv-x="422"
   id="glyph15"><path
     d="M416.002 53.6604c0,-9.66636 -0.348096,-17.9939 -1.17817,-24.6613 -0.830076,-6.66738 -2.16891,-12.1566 -3.6684,-16.4944 -1.66015,-4.49847 -3.6684,-7.65812 -6.15862,-9.5057 -2.49023,-2.00825 -5.32855,-2.99898 -8.48819,-2.99898l-289.509 0c-10.6571,0 -19.654,3.15964 -26.9908,9.5057 -7.3368,6.31928 -11.0052,16.6551 -11.0052,31.0073l0 573.984c0,3.15964 0.990735,6.15862 3.15964,8.83629 2.16891,2.49023 5.67665,4.65913 10.4964,6.34606 4.84657,1.66015 11.514,2.81155 19.8415,3.82906 8.32753,0.990735 18.6633,1.49949 31.0073,1.49949 12.6653,0 23.1618,-0.508756 31.3287,-1.49949 8.00621,-1.01751 14.6736,-2.16891 19.4934,-3.82906 4.84657,-1.68693 8.32753,-3.85583 10.4964,-6.34606 2.16891,-2.67766 3.18642,-5.67665 3.18642,-8.83629l0 -508.488 198.495 0c3.15964,0 6.15862,-0.830076 8.48819,-2.67766 2.49023,-1.82081 4.49847,-4.65913 6.15862,-8.83629 1.68693,-3.98972 2.83832,-9.31827 3.6684,-16.1731 0.830076,-6.66738 1.17817,-14.8343 1.17817,-24.6613z"
     id="path15" /></glyph>
   <glyph
   unicode="รณ"
   horiz-adv-x="537"
   id="glyph16"><path
     d="M502.005 238.83c0,-36.983 -4.82035,-70.847 -14.6636,-101.511 -9.84324,-30.5019 -24.5068,-56.8315 -44.5174,-78.9889 -19.808,-22.1574 -44.6389,-39.1704 -74.6547,-51.3226 -30.0158,-11.9901 -65.014,-18.0257 -104.995,-18.0257 -38.8464,0 -72.5078,5.34694 -101.187,16.2029 -28.6386,10.6534 -52.4973,26.3296 -71.3331,46.8263 -18.8358,20.4966 -32.8108,45.6516 -42.0059,75.6674 -9.15462,29.8133 -13.6509,64.0013 -13.6509,102.483 0,37.0235 4.98238,71.009 14.8256,101.673 10.0053,30.8259 24.8309,57.1556 44.8414,79.151 19.8485,21.8334 44.6794,38.8464 74.4926,50.9985 29.6917,12.0306 64.6899,18.0257 104.67,18.0257 39.1704,0 72.9939,-5.34694 101.673,-15.8383 28.6791,-10.6534 52.3352,-26.1676 71.009,-46.6642 18.8358,-20.4966 32.6488,-45.6921 41.8034,-75.6674 9.19512,-29.8538 13.6914,-64.1633 13.6914,-103.01zm-126.018 -4.82035c0,21.5093 -1.66079,41.3173 -5.14441,59.343 -3.52412,18.1472 -9.19512,33.8235 -17.4991,47.1503 -8.18244,13.3269 -18.9979,23.8182 -32.5272,31.312 -13.6509,7.53433 -30.6639,11.18 -51.3226,11.18 -18.3092,0 -34.3096,-3.32159 -48.163,-10.0053 -13.6509,-6.64317 -24.9929,-16.4864 -33.8235,-29.3272 -8.83056,-12.8408 -15.5142,-28.3145 -19.8485,-46.3402 -4.49629,-18.1472 -6.64317,-38.6438 -6.64317,-61.8139 0,-21.5093 1.82282,-41.3578 5.30644,-59.343 3.68615,-18.1472 9.51918,-33.8235 17.4991,-47.1503 8.02042,-13.3674 18.8358,-23.6967 32.6893,-31.0285 13.6509,-7.33179 30.6639,-10.9774 50.9985,-10.9774 18.6738,0 34.8361,3.32159 48.6491,10.0053 13.6914,6.64317 24.9929,16.3244 33.8235,29.0031 8.87107,12.8003 15.3522,28.1525 19.6865,46.1376 4.17224,18.1877 6.31912,38.6843 6.31912,61.8544zm-84.3359 432.495c2.34941,3.48361 5.02289,6.64317 8.34447,9.15462 3.15956,2.67347 7.33179,4.65832 12.1521,6.15709 4.86086,1.49876 11.0179,2.51144 18.5118,3.20006 7.49382,0.648114 16.5269,0.972172 27.3423,0.972172 14.8256,0 26.6537,-0.648114 35.1602,-1.98485 8.66853,-1.33674 14.8256,-3.15956 18.6738,-5.50897 3.64564,-2.51144 5.34694,-5.34694 4.98238,-8.66853 -0.324057,-3.15956 -1.82282,-6.64317 -4.82035,-10.1673l-94.5032 -113.501c-2.67347,-3.32159 -5.14441,-5.99506 -7.81788,-8.14194 -2.51144,-2.02536 -5.83303,-3.84818 -10.0053,-5.18492 -4.01021,-1.17471 -9.15462,-2.14688 -15.3522,-2.8355 -6.15709,-0.648114 -13.975,-1.01268 -23.3321,-1.01268 -11.3015,0 -20.3346,0.526593 -26.9778,1.49876 -6.68368,1.01268 -11.342,2.51144 -14.0155,4.69883 -2.51144,1.98485 -3.64564,4.82035 -3.15956,7.97991 0.486086,3.32159 2.14688,7.00774 5.18492,11.342l69.6318 112.002z"
     id="path16" /></glyph>
   <glyph
   unicode="I"
   horiz-adv-x="266"
   id="glyph17"><path
     d="M198.013 17.5119c0,-3.18642 -1.01751,-6.1854 -3.18642,-8.83629 -2.16891,-2.517 -5.64987,-4.68591 -10.4964,-6.34606 -4.81979,-1.49949 -11.4872,-2.83832 -19.4934,-3.82906 -8.16687,-0.990735 -18.6633,-1.49949 -31.3287,-1.49949 -12.344,0 -22.6798,0.508756 -31.0073,1.49949 -8.32753,0.990735 -14.9949,2.32957 -19.8415,3.82906 -4.81979,1.66015 -8.32753,3.82906 -10.4964,6.34606 -2.16891,2.65089 -3.15964,5.64987 -3.15964,8.83629l0 596.985c0,3.15964 0.990735,6.15862 3.15964,8.83629 2.16891,2.49023 5.67665,4.65913 10.8445,6.34606 4.98045,1.66015 11.4872,2.81155 19.654,3.82906 8.16687,0.990735 18.5027,1.49949 30.8467,1.49949 12.6653,0 23.1618,-0.508756 31.3287,-1.49949 8.00621,-1.01751 14.6736,-2.16891 19.4934,-3.82906 4.84657,-1.68693 8.32753,-3.85583 10.4964,-6.34606 2.16891,-2.67766 3.18642,-5.67665 3.18642,-8.83629l0 -596.985z"
     id="path17" /></glyph>
   <glyph
   unicode="5"
   horiz-adv-x="506"
   id="glyph18"><path
     d="M461.012 205.331c0,-34.1475 -5.99506,-64.6494 -17.8637,-91.5057 -11.8281,-26.8157 -28.6386,-49.4997 -50.3099,-68.0115 -21.6713,-18.3092 -47.6769,-32.3247 -78.0168,-42.1274 -30.5019,-9.84324 -64.1633,-14.7041 -101.308,-14.7041 -19.5244,0 -38.1982,1.17471 -55.6973,3.68615 -17.6611,2.51144 -33.2969,5.671 -47.3124,9.31664 -14.0155,3.84818 -25.5195,7.53433 -34.5121,11.342 -8.83056,3.84818 -14.8256,6.84571 -17.4991,9.35715 -2.8355,2.47094 -4.82035,5.14441 -6.15709,7.97991 -1.33674,2.99753 -2.34941,6.52165 -3.15956,10.4914 -0.85065,4.17224 -1.33674,9.35715 -1.66079,15.5142 -0.364564,6.15709 -0.526593,13.4889 -0.526593,21.9954 0,9.15462 0.364564,16.851 1.01268,23.1701 0.648114,6.31912 1.66079,11.504 3.15956,15.3117 1.49876,4.01021 3.15956,6.84571 5.18492,8.34447 1.82282,1.66079 4.17224,2.51144 6.8052,2.51144 3.20006,0 8.18244,-1.82282 14.8661,-5.671 6.64317,-3.64564 15.4737,-7.81788 26.3296,-12.3142 10.9774,-4.5368 24.3043,-8.66853 39.8185,-12.3547 15.6763,-3.84818 34.5121,-5.671 56.1834,-5.671 18.9979,0 36.1324,2.02536 51.6466,5.83303 15.5142,4.01021 28.517,10.1673 39.3324,18.8358 10.6534,8.66853 18.9979,19.3219 24.8309,32.4867 5.83303,13.0028 8.83056,28.517 8.83056,46.8668 0,15.4737 -2.47094,29.4892 -7.33179,41.6413 -4.82035,12.1927 -12.4762,22.522 -23.0081,31.0285 -10.3293,8.46599 -23.8182,14.8256 -40.4666,18.9979 -16.6889,4.13173 -36.8615,6.31912 -60.5177,6.31912 -18.9979,0 -36.1729,-1.01268 -51.4846,-2.99753 -15.5142,-1.82282 -30.1778,-2.8355 -43.8287,-2.8355 -9.35715,0 -16.2029,2.34941 -20.1726,7.00774 -4.17224,4.82035 -6.19759,13.4889 -6.19759,26.1676l0 274.152c0,13.0028 2.51144,22.3194 7.53433,27.9904 5.14441,5.671 13.1648,8.5065 24.1423,8.5065l299.348 0c2.8355,0 5.671,-1.01268 8.34447,-2.99753 2.47094,-1.82282 4.82035,-4.98238 6.48114,-9.15462 1.82282,-4.33426 3.15956,-9.84324 4.01021,-17.013 0.810143,-7.00774 1.17471,-15.3117 1.17471,-25.1549 0,-19.5244 -1.7013,-33.6614 -5.18492,-42.492 -3.32159,-8.83056 -8.34447,-13.1648 -14.8256,-13.1648l-225.017 0 0 -135.01c11.342,1.33674 22.684,2.14688 34.026,2.51144 11.1395,0.324057 22.9676,0.486086 35.3222,0.486086 34.3501,0 64.6494,-4.01021 91.1816,-11.9901 26.6537,-8.02042 48.9731,-19.6865 66.9988,-35.1602 18.1472,-15.5142 31.7981,-34.6741 41.3173,-57.6822 9.51918,-22.846 14.1775,-49.4997 14.1775,-79.8396z"
     id="path18" /></glyph>
   <glyph
   unicode="y"
   horiz-adv-x="473"
   id="glyph19"><path
     d="M313.842 0l-52.8379 -153.981c-3.02164,-8.1666 -10.8207,-14.0057 -23.8465,-17.6807 -12.9849,-3.51164 -31.9722,-5.34912 -57.0029,-5.34912 -12.9849,0 -23.479,0.530829 -31.1556,1.67415 -7.83993,1.18416 -13.6791,3.02164 -17.6807,5.67579 -3.8383,2.65414 -6.00245,5.83912 -6.32911,9.67742 -0.326664,4.00163 0.694161,8.65659 3.02164,14.169l57.9829 145.815c-4.16497,2.00082 -8.00327,4.98163 -11.3107,8.98326 -3.51164,4.16497 -6.00245,8.5341 -7.6766,13.0257l-149.49 400.653c-4.16497,11.3516 -6.36995,20.1715 -6.36995,26.1739 0,6.00245 2.00082,10.6574 5.83912,14.169 3.8383,3.34831 10.4941,5.67579 19.6815,6.98244 9.35076,1.34749 21.519,2.00082 36.8314,2.00082 13.8424,0 24.8265,-0.163332 32.9931,-0.653328 8.1666,-0.489996 14.4957,-1.83748 18.9873,-3.67497 4.53246,-2.00082 8.00327,-4.98163 10.1674,-9.14659 2.36831,-4.00163 4.53246,-9.84075 6.85994,-17.354l102.491 -291.67 1.51082 0 92.9767 297.509c2.00082,8.49326 4.53246,14.169 7.6766,16.9865 3.02164,2.69498 8.1666,4.69579 15.3532,6.00245 7.14577,1.34749 19.804,2.00082 37.648,2.00082 14.169,0 25.8473,-0.653328 34.9939,-2.00082 9.35076,-1.30666 16.1699,-3.63414 20.6615,-7.30911 4.3283,-3.51164 6.53328,-8.32993 6.53328,-14.3324 0,-6.00245 -1.18416,-13.1891 -3.8383,-21.3557l-144.671 -426.991z"
     id="path19" /></glyph>
   <glyph
   unicode="F"
   horiz-adv-x="459"
   id="glyph20"><path
     d="M424.01 579.339c0,-9.84075 -0.326664,-18.0073 -1.18416,-24.6631 -0.81666,-6.65578 -2.16415,-12.0049 -4.00163,-16.0065 -1.83748,-3.8383 -3.8383,-6.81911 -6.00245,-8.65659 -2.32748,-2.00082 -4.98163,-3.02164 -7.83993,-3.02164l-206.982 0 0 -169.988 194.161 0c3.02164,0 5.67579,-0.81666 7.83993,-2.49081 2.32748,-1.51082 4.3283,-4.3283 6.16578,-8.1666 1.83748,-4.00163 2.98081,-9.18742 3.8383,-15.6799 0.81666,-6.49245 1.34749,-14.659 1.34749,-24.4998 0,-9.67742 -0.530829,-17.844 -1.34749,-24.3365 -0.857493,-6.49245 -2.00082,-11.8416 -3.8383,-16.1699 -1.83748,-4.16497 -3.8383,-7.14577 -6.16578,-8.98326 -2.16415,-1.83748 -4.81829,-2.69498 -7.83993,-2.69498l-194.161 0 0 -235.484c0,-3.51164 -0.979992,-6.65578 -2.98081,-9.35076 -1.83748,-2.49081 -5.34912,-4.65496 -10.5349,-6.49245 -4.98163,-1.83748 -11.6374,-3.14414 -19.6407,-4.16497 -8.1666,-0.979992 -18.6607,-1.46999 -31.3597,-1.46999 -12.3316,0 -22.6623,0.489996 -30.9922,1.46999 -8.32993,1.02082 -14.9857,2.32748 -19.804,4.16497 -4.85913,1.67415 -8.37076,4.00163 -10.5349,6.49245 -2.16415,2.69498 -3.14414,5.83912 -3.14414,9.35076l0 573.009c0,14.3324 3.67497,24.6631 10.9841,30.9922 7.34994,6.32911 16.3332,9.51409 27.1948,9.51409l297.795 0c2.85831,0 5.51245,-0.857493 7.83993,-2.69498 2.16415,-1.83748 4.16497,-4.65496 6.00245,-8.81993 1.83748,-4.00163 3.18497,-9.51409 4.00163,-16.3332 0.857493,-6.81911 1.18416,-15.149 1.18416,-24.8265z"
     id="path20" /></glyph>
   <glyph
   unicode="h"
   horiz-adv-x="536"
   id="glyph21"><path
     d="M477.984 16.4864c0,-3.15956 -0.972172,-5.99506 -2.99753,-8.5065 -1.82282,-2.47094 -5.14441,-4.49629 -9.6407,-6.15709 -4.69883,-1.49876 -11.0179,-2.8355 -18.9979,-3.64564 -8.02042,-0.85065 -17.8637,-1.17471 -29.5297,-1.17471 -12.1521,0 -22.1574,0.324057 -30.1373,1.17471 -8.02042,0.810143 -14.3395,2.14688 -18.9979,3.64564 -4.5368,1.66079 -7.85839,3.68615 -9.68121,6.15709 -1.98485,2.51144 -2.99753,5.34694 -2.99753,8.5065l0 248.511c0,21.1852 -1.49876,37.8337 -4.65832,49.8238 -2.99753,12.1927 -7.49382,22.522 -13.3269,31.0285 -5.83303,8.66853 -13.5294,15.3117 -22.684,20.1321 -9.31664,4.69883 -20.0105,7.00774 -32.3247,7.00774 -15.6763,0 -31.3525,-5.671 -47.3529,-17.175 -15.8383,-11.3015 -32.4867,-27.9904 -49.6618,-49.6618l0 -289.667c0,-3.15956 -1.01268,-5.99506 -2.99753,-8.5065 -1.82282,-2.47094 -5.18492,-4.49629 -10.0053,-6.15709 -4.65832,-1.49876 -10.9774,-2.8355 -18.6738,-3.64564 -7.81788,-0.85065 -17.8231,-1.17471 -29.8133,-1.17471 -11.9901,0 -21.9954,0.324057 -29.8538,1.17471 -7.65585,0.810143 -13.975,2.14688 -18.6333,3.64564 -4.86086,1.66079 -8.18244,3.68615 -10.0053,6.15709 -2.02536,2.51144 -2.99753,5.34694 -2.99753,8.5065l0 642.524c0,3.32159 0.972172,6.15709 2.99753,8.83056 1.82282,2.51144 5.14441,4.82035 10.0053,6.48114 4.65832,1.86333 10.9774,3.15956 18.6333,4.17224 7.85839,1.01268 17.8637,1.49876 29.8538,1.49876 11.9901,0 21.9954,-0.486086 29.8133,-1.49876 7.69636,-1.01268 14.0155,-2.30891 18.6738,-4.17224 4.82035,-1.66079 8.18244,-3.9697 10.0053,-6.48114 1.98485,-2.67347 2.99753,-5.671 2.99753,-8.83056l0 -241.018c21.1852,20.8207 42.654,36.3349 64.6899,46.6642 21.9954,10.1673 44.8009,15.3522 68.6596,15.3522 29.6512,0 54.6441,-4.86086 74.9787,-14.6636 20.3346,-9.68121 36.659,-23.1701 49.3377,-40.0211 12.5167,-16.9725 21.5093,-36.659 27.0183,-59.343 5.46847,-22.6435 8.30397,-50.1479 8.30397,-82.3105l0 -267.185z"
     id="path21" /></glyph>
   <glyph
   unicode="2"
   horiz-adv-x="506"
   id="glyph22"><path
     d="M467.007 52.3352c0,-9.51918 -0.324057,-17.6611 -1.17471,-24.3448 -0.85065,-6.64317 -2.14688,-11.9901 -3.64564,-16.3244 -1.7013,-4.17224 -3.84818,-7.16977 -6.35962,-8.99259 -2.67347,-1.82282 -5.671,-2.67347 -8.83056,-2.67347l-363.511 0c-7.16977,0 -13.3269,0.648114 -18.4713,1.98485 -5.18492,1.33674 -9.51918,3.84818 -12.6787,7.53433 -3.32159,3.80767 -5.671,9.15462 -7.16977,16.3244 -1.49876,7.16977 -2.14688,16.4864 -2.14688,27.8284 0,10.8154 0.486086,20.0105 1.49876,27.6664 0.972172,7.65585 2.63296,14.5016 5.30644,20.4966 2.67347,5.99506 5.99506,11.8281 10.0053,17.4991 4.17224,5.83303 9.35715,11.9901 16.0003,18.8358l109.491 116.985c21.8334,22.846 39.4945,43.5047 52.8618,62.3405 13.3269,18.6738 23.8182,35.8488 31.312,51.3226 7.49382,15.5142 12.5167,29.6917 15.3522,42.6945 2.8355,13.0028 4.17224,25.479 4.17224,37.1451 0,10.6939 -1.7013,20.8612 -5.18492,30.5019 -3.32159,9.51918 -8.5065,17.8231 -15.1497,24.9929 -6.68368,7.16977 -15.0282,12.6787 -25.1954,16.851 -10.0053,4.01021 -21.8334,5.99506 -35.6463,5.99506 -19.1599,0 -36.1729,-2.51144 -50.9985,-7.33179 -14.8256,-4.82035 -27.8284,-10.3293 -39.0084,-16.3244 -11.342,-6.15709 -20.6586,-11.6661 -28.1525,-16.6889 -7.53433,-5.14441 -13.3674,-7.65585 -17.4991,-7.65585 -2.99753,0 -5.50897,1.01268 -7.69636,2.99753 -2.14688,1.82282 -3.80767,5.18492 -5.14441,9.68121 -1.17471,4.65832 -2.34941,10.6534 -3.15956,18.4713 -0.85065,7.69636 -1.17471,17.013 -1.17471,28.0309 0,7.49382 0.162029,13.8129 0.648114,18.9979 0.526593,4.98238 1.33674,9.31664 2.34941,13.1648 0.810143,3.64564 2.14688,7.00774 3.80767,9.84324 1.7013,2.63296 4.5368,5.99506 8.5065,9.96476 4.17224,3.84818 11.6661,8.87107 22.522,14.8661 10.9774,6.15709 24.3043,11.9901 40.3046,17.6611 16.0003,5.671 33.4994,10.4914 52.8618,14.5016 19.1599,3.80767 39.1704,5.83303 59.9911,5.83303 33.0133,0 61.6519,-4.17224 86.3207,-12.5167 24.5068,-8.34447 45.0034,-19.808 61.3278,-34.6741 16.3649,-14.8256 28.355,-32.3247 36.3349,-52.6593 8.02042,-20.3346 12.0306,-42.1679 12.0306,-65.6621 0,-20.4966 -2.02536,-40.6692 -5.83303,-60.5177 -4.01021,-19.97 -12.1927,-41.3173 -24.5068,-64.3254 -12.3547,-22.8055 -29.8538,-48.325 -52.3352,-76.1534 -22.522,-27.8284 -52.3352,-60.1531 -89.5208,-97.0146l-73.804 -75.5053 248.997 0c3.32159,0 6.31912,-0.972172 8.99259,-2.99753 2.8355,-1.82282 5.14441,-4.82035 7.16977,-8.99259 1.98485,-4.01021 3.32159,-9.31664 4.33426,-16.0003 0.972172,-6.64317 1.49876,-14.6636 1.49876,-23.6562z"
     id="path22" /></glyph>
   <glyph
   unicode="C"
   horiz-adv-x="529"
   id="glyph23"><path
     d="M506.015 95.5159c0,-8.18244 -0.162029,-15.1902 -0.688622,-20.8612 -0.486086,-5.671 -1.33674,-10.6534 -2.30891,-14.6636 -0.85065,-4.17224 -2.18739,-7.65585 -3.84818,-10.6534 -1.66079,-2.8355 -4.17224,-6.15709 -7.81788,-9.84324 -3.52412,-3.64564 -10.5319,-8.5065 -20.6992,-14.3395 -10.3293,-5.671 -22.8055,-11.3015 -37.6716,-16.6484 -14.8256,-5.18492 -31.6361,-9.68121 -50.6339,-13.1648 -18.9979,-3.52412 -39.697,-5.34694 -61.8544,-5.34694 -43.1401,0 -82.1485,6.68368 -116.985,20.0105 -34.8361,13.3269 -64.5279,33.3374 -88.8322,59.8291 -24.5068,26.4917 -43.1806,59.505 -56.1834,99.3235 -13.0028,39.6565 -19.4839,85.8346 -19.4839,138.494 0,53.672 7.16977,101.349 21.5093,143.031 14.299,41.6413 34.3096,76.6395 59.9911,104.995 25.641,28.3145 56.5075,49.6618 92.4778,64.3254 35.8488,14.6636 75.5053,21.9954 118.848,21.9954 17.4991,0 34.3501,-1.49876 50.6744,-4.49629 16.3244,-2.8355 31.312,-6.68368 45.1655,-11.504 13.8129,-4.65832 26.1676,-10.1673 37.3071,-16.3244 11.0179,-6.35962 18.8358,-11.6661 23.1701,-16.0003 4.33426,-4.49629 7.33179,-8.18244 9.03309,-11.0179 1.66079,-2.99753 2.99753,-6.64317 3.80767,-11.1395 1.01268,-4.69883 1.82282,-10.0053 2.34941,-16.1624 0.486086,-6.19759 0.648114,-13.6914 0.648114,-22.846 0,-9.68121 -0.324057,-18.0257 -0.972172,-24.8309 -0.688622,-6.84571 -1.86333,-12.3547 -3.36209,-16.5269 -1.66079,-4.13173 -3.64564,-7.33179 -5.83303,-9.15462 -2.30891,-1.98485 -4.98238,-2.99753 -7.81788,-2.99753 -4.82035,0 -11.0179,2.8355 -18.5118,8.5065 -7.49382,5.671 -17.175,11.9901 -29.0031,18.9979 -11.8281,7.00774 -26.0056,13.3269 -42.492,18.9979 -16.3244,5.671 -35.8488,8.5065 -58.6544,8.5065 -24.9929,0 -47.3529,-5.18492 -66.9988,-15.3522 -19.6865,-10.3293 -36.3349,-24.8309 -50.1884,-43.8287 -13.8129,-19.1599 -24.3043,-42.1679 -31.4741,-69.1457 -7.16977,-26.8562 -10.6939,-57.3581 -10.6939,-91.1816 0,-36.983 3.84818,-69.1457 11.504,-96.326 7.65585,-27.0183 18.5118,-49.4997 32.6893,-66.9988 13.975,-17.4991 31.15,-30.6639 51.1605,-39.1704 20.0105,-8.66853 42.492,-13.0028 67.4849,-13.0028 22.684,0 42.33,2.67347 59.0189,8.02042 16.4864,5.30644 30.6639,11.3015 42.492,17.6611 11.9901,6.48114 21.6713,12.3142 29.3272,17.4991 7.65585,5.14441 13.4889,7.81788 17.8231,7.81788 3.15956,0 5.83303,-0.648114 7.69636,-1.98485 1.98485,-1.33674 3.64564,-3.84818 4.98238,-7.85839 1.17471,-3.80767 2.14688,-9.31664 2.8355,-16.3244 0.648114,-7.16977 1.01268,-16.4864 1.01268,-28.3145z"
     id="path23" /></glyph>
   <glyph
   unicode="v"
   horiz-adv-x="473"
   id="glyph24"><path
     d="M462.511 452.991c0,-1.66079 0,-3.64564 -0.162029,-5.99506 -0.162029,-2.14688 -0.526593,-4.65832 -1.01268,-7.49382 -0.486086,-2.8355 -1.17471,-5.99506 -1.98485,-9.51918 -0.85065,-3.64564 -1.86333,-7.65585 -3.20006,-12.1521l-130.798 -394.499c-1.53927,-5.50897 -3.84818,-10.0053 -6.52165,-13.3269 -2.8355,-3.52412 -7.33179,-6.15709 -13.6509,-8.18244 -6.35962,-1.82282 -15.0282,-3.15956 -25.8436,-3.80767 -10.8559,-0.688622 -25.1549,-1.01268 -42.654,-1.01268 -17.175,0 -31.3525,0.324057 -42.1679,1.17471 -10.8559,0.810143 -19.5244,2.30891 -25.6815,4.17224 -6.15709,1.98485 -10.6534,4.65832 -13.3269,8.14194 -2.8355,3.36209 -5.02289,7.65585 -6.68368,12.8408l-130.474 394.499c-2.02536,6.52165 -3.52412,12.3547 -4.69883,17.4991 -1.1342,5.18492 -1.82282,8.99259 -1.98485,11.342 -0.162029,2.14688 -0.162029,4.33426 -0.162029,6.31912 0,3.15956 0.810143,5.99506 2.67347,8.5065 1.82282,2.51144 4.98238,4.49629 9.47867,6.15709 4.49629,1.49876 10.8559,2.67347 18.6738,3.36209 8.02042,0.648114 17.9852,0.972172 30.0158,0.972172 13.3269,0 23.9802,-0.324057 32.1627,-1.17471 7.97991,-0.810143 14.5016,-1.98485 19.1599,-3.48361 4.65832,-1.49876 7.97991,-3.48361 10.0053,-6.31912 1.82282,-2.8355 3.48361,-6.19759 4.82035,-10.0053l98.9995 -320.169 2.99753 -12.1521 2.8355 12.1521 97.1767 320.169c1.01268,3.80767 2.51144,7.16977 4.65832,10.0053 2.18739,2.8355 5.50897,4.82035 10.0053,6.31912 4.65832,1.49876 10.6534,2.67347 18.3497,3.48361 7.81788,0.85065 17.8231,1.17471 30.1373,1.17471 12.1927,0 21.9954,-0.324057 29.6917,-0.972172 7.65585,-0.688622 13.6509,-1.86333 17.8231,-3.36209 4.33426,-1.66079 7.16977,-3.64564 8.83056,-6.15709 1.66079,-2.51144 2.51144,-5.34694 2.51144,-8.5065z"
     id="path24" /></glyph>
   <glyph
   unicode="e"
   horiz-adv-x="503"
   id="glyph25"><path
     d="M464.009 247.013c0,-15.0282 -3.36209,-26.0056 -10.0053,-33.1754 -6.68368,-7.16977 -15.8383,-10.8559 -27.6664,-10.8559l-265.322 0c0,-18.4713 2.14688,-35.1602 6.64317,-50.3099 4.33426,-14.9876 11.342,-27.8284 20.8207,-38.3198 9.68121,-10.5319 22.0359,-18.5118 37.1856,-24.0207 15.1497,-5.50897 33.1754,-8.34447 54.3201,-8.34447 21.5093,0 40.3451,1.49876 56.6695,4.69883 16.1624,3.15956 30.3399,6.48114 42.1679,10.3293 11.8281,3.80767 21.6713,7.16977 29.5297,10.3293 7.81788,3.15956 14.137,4.65832 18.9979,4.65832 2.99753,0 5.46847,-0.486086 7.33179,-1.66079 1.98485,-1.17471 3.64564,-3.15956 4.98238,-6.15709 1.17471,-2.8355 2.18739,-7.00774 2.67347,-12.3547 0.486086,-5.34694 0.648114,-12.1521 0.648114,-20.1726 0,-7.16977 -0.162029,-13.3269 -0.486086,-18.3092 -0.324057,-5.02289 -0.85065,-9.35715 -1.49876,-12.8408 -0.648114,-3.68615 -1.49876,-6.68368 -2.8355,-8.99259 -1.33674,-2.51144 -2.99753,-4.86086 -5.18492,-7.16977 -2.14688,-2.18739 -7.81788,-5.34694 -17.2966,-9.35715 -9.51918,-3.9697 -21.5093,-7.81788 -36.1729,-11.6661 -14.6636,-3.80767 -31.3525,-7.16977 -50.1884,-10.0053 -18.8358,-2.8355 -39.0084,-4.33426 -60.4772,-4.33426 -38.8464,0 -72.6698,4.86086 -101.835,14.7041 -29.0031,9.6407 -53.3479,24.4663 -72.9939,44.3148 -19.5244,19.8485 -34.026,45.0034 -43.6667,75.1813 -9.51918,30.2993 -14.3395,65.8241 -14.3395,106.493 0,38.6438 4.98238,73.48 15.1497,104.67 10.0053,30.988 24.6689,57.3176 43.9908,78.9889 19.2004,21.6713 42.5325,38.1577 69.9964,49.4997 27.6664,11.504 58.6949,17.175 93.1664,17.175 36.5374,0 67.6874,-5.34694 93.531,-16.1624 26.0056,-10.6939 47.1503,-25.6815 63.8393,-44.6794 16.4864,-18.9979 28.8006,-41.6819 36.659,-67.6874 7.81788,-25.9651 11.6661,-54.3201 11.6661,-84.984l0 -19.4839zm-119.01 34.9982c1.01268,34.4716 -5.99506,61.6519 -20.8207,81.3384 -14.8256,19.808 -37.6716,29.6512 -68.6596,29.6512 -15.6763,0 -29.3677,-2.99753 -40.8717,-8.83056 -11.6661,-5.83303 -21.3068,-13.6509 -28.9626,-23.6562 -7.69636,-10.0053 -13.5294,-21.6713 -17.4991,-35.1602 -4.17224,-13.6914 -6.52165,-28.0309 -7.16977,-43.3426l183.983 0z"
     id="path25" /></glyph>
   <glyph
   unicode="T"
   horiz-adv-x="495"
   id="glyph26"><path
     d="M488.995 579.339c0,-9.5057 -0.32132,-17.5119 -1.1514,-24.34 -0.830076,-6.66738 -2.00825,-11.9959 -3.6684,-16.0124 -1.68693,-4.15038 -3.6684,-7.14936 -6.1854,-8.99695 -2.32957,-1.98147 -5.16789,-2.99898 -7.97944,-2.99898l-158.009 0 0 -509.479c0,-3.18642 -0.990735,-6.1854 -3.15964,-8.83629 -2.16891,-2.517 -5.67665,-4.68591 -10.4964,-6.34606 -4.84657,-1.49949 -11.514,-2.83832 -19.8415,-3.82906 -8.32753,-0.990735 -18.6633,-1.49949 -31.0073,-1.49949 -12.3172,0 -22.653,0.508756 -31.0073,1.49949 -8.32753,0.990735 -14.9949,2.32957 -19.8147,3.82906 -4.84657,1.66015 -8.35431,3.82906 -10.4964,6.34606 -2.16891,2.65089 -3.18642,5.64987 -3.18642,8.83629l0 509.479 -157.982 0c-3.18642,0 -5.99796,1.01751 -8.35431,2.99898 -2.14213,1.84759 -4.15038,4.84657 -5.81053,8.99695 -1.49949,4.01649 -2.83832,9.34504 -3.6684,16.0124 -0.830076,6.82804 -1.17817,14.8343 -1.17817,24.34 0,9.66636 0.348096,17.9939 1.17817,24.8219 0.830076,6.82804 2.16891,12.344 3.6684,16.3337 1.66015,4.17715 3.6684,7.01548 5.81053,8.83629 2.35634,1.84759 5.16789,2.67766 8.35431,2.67766l445.001 0c2.81155,0 5.48921,-0.830076 7.97944,-2.67766 2.517,-1.82081 4.49847,-4.65913 6.1854,-8.83629 1.66015,-3.98972 2.83832,-9.5057 3.6684,-16.3337 0.830076,-6.82804 1.1514,-15.1556 1.1514,-24.8219z"
     id="path26" /></glyph>
   <glyph
   unicode="s"
   horiz-adv-x="398"
   id="glyph27"><path
     d="M369.02 139.831c0,-24.6689 -4.69883,-46.5022 -14.0155,-65.5001 -9.15462,-18.8358 -22.3194,-34.5121 -39.3324,-47.3124 -17.013,-12.6787 -37.0235,-22.1979 -60.1531,-28.517 -23.1701,-6.31912 -48.2035,-9.51918 -75.1813,-9.51918 -16.3244,0 -32.0006,1.17471 -46.8263,3.68615 -14.8256,2.51144 -28.0309,5.671 -39.859,9.47867 -11.6661,3.68615 -21.4688,7.53433 -29.3272,11.504 -7.81788,4.01021 -13.4889,7.69636 -16.9725,11.18 -3.68615,3.48361 -6.52165,8.83056 -8.34447,16.1624 -2.02536,7.16977 -2.99753,18.0257 -2.99753,32.3247 0,9.35715 0.324057,16.851 0.972172,22.522 0.688622,5.671 1.7013,10.3293 2.8355,13.6509 1.33674,3.36209 2.99753,5.671 5.02289,6.84571 1.82282,1.17471 4.33426,1.66079 7.33179,1.66079 3.48361,0 8.83056,-1.98485 15.8383,-6.15709 7.00774,-4.17224 15.6358,-8.66853 26.1676,-13.4889 10.3293,-5.02289 22.4815,-9.68121 36.3349,-13.8534 13.8129,-4.33426 29.6512,-6.48114 47.1503,-6.48114 11.0179,0 20.9827,1.1342 29.4892,3.48361 8.66853,2.14688 16.1624,5.50897 22.522,9.84324 6.31912,4.17224 11.1395,9.47867 14.5016,16.1624 3.15956,6.48114 4.82035,13.975 4.82035,22.4815 0,9.84324 -2.99753,18.1877 -8.99259,25.1954 -6.15709,6.96723 -14.1775,13.1648 -24.0207,18.3092 -9.96476,5.18492 -21.3068,10.0053 -33.8235,14.6636 -12.4762,4.49629 -25.479,9.51918 -38.6438,15.1902 -13.1648,5.46847 -26.1676,11.8281 -38.6843,18.9979 -12.5167,7.16977 -23.8182,15.8383 -33.8235,26.3296 -9.84324,10.3293 -17.8231,23.0081 -24.0207,37.5096 -5.99506,14.6636 -8.99259,32.3247 -8.99259,52.8213 0,20.8207 4.17224,39.8185 12.3547,57.3176 8.14194,17.3371 19.808,32.3247 35.1602,44.6794 15.4737,12.3142 34.1475,21.9954 56.1429,28.8411 22.1979,6.8052 46.8263,10.1673 74.3306,10.1673 13.8534,0 27.0183,-1.01268 40.0211,-2.8355 12.8408,-2.02536 24.6689,-4.49629 34.9982,-7.33179 10.4914,-2.99753 19.3219,-5.99506 26.4917,-9.51918 7.16977,-3.32159 12.3547,-6.31912 15.5142,-8.66853 3.15956,-2.47094 5.30644,-4.82035 6.64317,-7.33179 1.17471,-2.47094 2.18739,-5.30644 2.8355,-8.83056 0.688622,-3.32159 1.33674,-7.65585 1.86333,-12.6787 0.486086,-4.98238 0.648114,-11.3015 0.648114,-18.7953 0,-8.87107 -0.162029,-16.0003 -0.648114,-21.5093 -0.526593,-5.50897 -1.33674,-10.0053 -2.51144,-13.1648 -1.17471,-3.36209 -2.67347,-5.50897 -4.65832,-6.68368 -2.02536,-1.17471 -4.33426,-1.66079 -6.84571,-1.66079 -2.99753,0 -7.65585,1.66079 -13.8534,5.18492 -6.15709,3.32159 -13.975,6.96723 -23.3321,10.8154 -9.31664,3.84818 -20.1321,7.49382 -32.3247,10.8154 -12.3142,3.52412 -26.3296,5.18492 -42.0059,5.18492 -11.1395,0 -20.8207,-1.17471 -29.0031,-3.32159 -8.14194,-2.34941 -14.8256,-5.671 -20.1321,-9.84324 -5.18492,-4.17224 -9.19512,-9.15462 -11.6661,-14.8256 -2.67347,-5.671 -4.01021,-11.8281 -4.01021,-18.1877 0,-10.1673 3.15956,-18.6738 9.31664,-25.479 6.15709,-6.84571 14.3395,-12.8408 24.5068,-18.0257 10.0053,-5.14441 21.6713,-10.1673 34.5121,-14.6636 12.8408,-4.49629 26.0056,-9.47867 39.1704,-14.8256 13.1648,-5.34694 26.3296,-11.6661 39.1704,-18.8358 12.8003,-7.16977 24.4663,-16.0003 34.4716,-26.3296 10.1673,-10.4914 18.3497,-22.846 24.5068,-37.3476 6.15709,-14.5016 9.35715,-31.6361 9.35715,-51.4846z"
     id="path27" /></glyph>
   <glyph
   unicode="b"
   horiz-adv-x="536"
   id="glyph28"><path
     d="M499.98 240.329c0,-38.6438 -4.13173,-73.48 -12.6382,-104.508 -8.5065,-30.8259 -20.6586,-57.1556 -36.4969,-78.9889 -16.0003,-21.8334 -35.6868,-38.4818 -58.8569,-50.3504 -23.3321,-11.6661 -49.6618,-17.4991 -79.151,-17.4991 -14.6636,0 -28.355,1.33674 -40.9932,4.17224 -12.6787,2.67347 -24.8309,7.16977 -36.3349,13.3269 -11.6661,6.35962 -23.0081,14.0155 -34.188,23.5347 -11.1395,9.47867 -22.6435,20.8207 -34.3096,34.1475l0 -47.5149c0,-3.64564 -1.01268,-6.64317 -2.67347,-9.15462 -1.82282,-2.30891 -4.82035,-4.49629 -8.83056,-6.15709 -4.17224,-1.49876 -9.51918,-2.67347 -16.3244,-3.32159 -6.84571,-0.688622 -15.1902,-1.01268 -25.0334,-1.01268 -9.96476,0 -18.3092,0.324057 -24.9929,1.01268 -6.8052,0.648114 -12.1521,1.82282 -16.1624,3.32159 -4.17224,1.66079 -7.00774,3.64564 -8.5065,6.15709 -1.66079,2.51144 -2.47094,5.50897 -2.47094,8.99259l0 642.524c0,3.32159 0.972172,6.15709 2.99753,8.83056 1.82282,2.51144 5.14441,4.82035 10.0053,6.48114 4.65832,1.86333 10.9774,3.15956 18.6333,4.17224 7.85839,1.01268 17.8637,1.49876 29.8538,1.49876 11.9901,0 21.9954,-0.486086 29.8133,-1.49876 7.69636,-1.01268 14.0155,-2.30891 18.6738,-4.17224 4.82035,-1.66079 8.18244,-3.9697 10.0053,-6.48114 1.98485,-2.67347 2.99753,-5.671 2.99753,-8.83056l0 -241.018c11.0179,11.0179 22.1574,20.4966 33.1754,28.355 10.9774,7.81788 22.1574,14.137 33.1754,19.3219 10.9774,4.98238 22.3194,8.66853 34.1475,10.9774 11.6661,2.18739 24.0207,3.36209 37.0235,3.36209 32.1627,0 59.4645,-6.52165 81.9865,-19.3624 22.3194,-12.8003 40.6692,-30.1373 54.8467,-51.9707 14.137,-21.6713 24.4663,-47.1908 30.988,-76.356 6.48114,-29.1651 9.6407,-59.8291 9.6407,-91.9917zm-126.99 -8.5065c0,18.5118 -1.33674,36.3349 -4.17224,53.5099 -2.63296,17.3371 -7.49382,32.4867 -14.299,45.8541 -6.84571,13.3269 -15.8383,23.9802 -26.6942,31.7981 -10.8154,8.02042 -24.6689,12.0306 -41.3173,12.0306 -8.02042,0 -16.0003,-1.17471 -23.8587,-3.36209 -7.81788,-2.30891 -15.7978,-6.31912 -24.1423,-11.8281 -8.34447,-5.50897 -16.851,-12.6382 -25.6815,-21.3068 -8.83056,-8.87107 -17.9852,-19.6865 -27.8284,-32.6893l0 -144.489c17.3371,-21.9954 33.8235,-38.6843 49.4997,-50.1884 15.8383,-11.504 32.3247,-17.1345 49.6618,-17.1345 15.8383,0 29.4892,3.9697 40.5071,12.1521 11.0179,8.18244 20.3346,18.6738 27.6664,31.6766 7.16977,13.0028 12.5167,27.8284 15.8383,44.3148 3.15956,16.4864 4.82035,33.1754 4.82035,49.6618z"
     id="path28" /></glyph>
   <glyph
   unicode="Q"
   horiz-adv-x="685"
   id="glyph29"><path
     d="M697.007 -59.9911c0,-11.6661 -0.526593,-21.0232 -1.66079,-28.193 -1.17471,-7.12926 -2.67347,-12.6382 -4.69883,-16.4864 -1.98485,-4.01021 -4.13173,-6.48114 -6.31912,-7.65585 -2.30891,-1.17471 -4.82035,-1.66079 -7.33179,-1.66079 -10.8154,0 -24.8309,2.99753 -42.33,8.83056 -17.4991,5.83303 -36.3349,14.137 -56.5075,25.1549 -20.1726,10.8154 -40.8312,24.1828 -61.8139,40.0211 -21.0232,15.6358 -40.5071,33.8235 -58.4923,54.3201 -15.0282,-6.84571 -33.1754,-12.6787 -54.5226,-17.8231 -21.1447,-5.02289 -44.8414,-7.53433 -71.009,-7.53433 -49.1352,0 -91.9917,6.35962 -128.489,18.8358 -36.659,12.5167 -67.1609,32.0006 -91.6677,58.3303 -24.3448,26.3702 -42.654,59.8696 -54.8467,100.701 -12.1521,40.8312 -18.3092,89.4803 -18.3092,145.664 0,51.1605 6.48114,97.1361 19.4839,137.967 13.0028,40.8717 32.3247,75.5053 58.1683,104.022 25.6815,28.3145 57.5202,50.3504 95.3538,65.5001 37.9957,15.3117 81.9865,23.0081 132.134,23.0081 47.1908,0 88.8322,-6.35962 125.167,-18.9979 36.3349,-12.6787 66.8368,-32.1627 91.8702,-58.3303 24.8309,-26.1676 43.6667,-59.343 56.467,-99.364 12.8408,-39.9806 19.3624,-87.3334 19.3624,-141.978 0,-28.355 -1.86333,-55.0087 -5.671,-79.8396 -3.68615,-24.8309 -9.19512,-47.8389 -16.3244,-68.9837 -7.16977,-21.1852 -15.8383,-40.5071 -26.3702,-58.1683 -10.3293,-17.4991 -22.3194,-33.0133 -35.6463,-46.3402 20.3346,-17.6611 38.1577,-31.0285 53.834,-40.1831 15.6763,-9.15462 28.8411,-16.0003 39.4945,-20.6586 10.6534,-4.49629 19.1599,-7.81788 25.5195,-10.0053 6.31912,-2.14688 11.3015,-4.82035 14.8256,-8.34447 3.64564,-3.32159 6.31912,-9.15462 7.81788,-17.4991 1.66079,-8.14194 2.51144,-19.646 2.51144,-34.3096zm-195.001 377.648c0,33.0133 -2.67347,62.8266 -7.85839,90.0069 -5.14441,27.0183 -13.975,50.1884 -26.4917,69.5103 -12.4762,19.3219 -29.1651,34.3096 -49.9858,45.0034 -20.8207,10.4914 -46.8263,15.8383 -78.0168,15.8383 -31.4741,0 -57.8037,-5.83303 -78.8269,-17.7016 -21.1447,-11.6661 -38.3198,-27.4638 -51.3226,-47.3124 -13.0028,-19.8485 -22.1574,-43.0186 -27.5044,-69.5103 -5.34694,-26.6537 -7.97991,-54.4821 -7.97991,-83.8093 0,-34.8361 2.63296,-66.1887 7.81788,-93.8551 5.14441,-27.6664 14.0155,-51.1605 26.3296,-70.847 12.3142,-19.4839 28.8411,-34.3096 49.6618,-44.6389 20.8207,-10.1673 46.9883,-15.3522 78.5029,-15.3522 31.5146,0 57.8442,5.83303 78.8269,17.6611 21.1852,11.6661 38.3603,27.6664 51.3226,47.8389 13.0028,20.1726 22.1979,43.6667 27.5044,70.847 5.34694,26.9778 8.02042,55.8189 8.02042,86.3207z"
     id="path29" /></glyph>
   <glyph
   unicode="p"
   horiz-adv-x="536"
   id="glyph30"><path
     d="M499.98 240.815c0,-38.6438 -4.13173,-73.642 -12.4762,-104.63 -8.18244,-31.0285 -20.3346,-57.5202 -36.3349,-79.3535 -15.8383,-21.8334 -35.6868,-38.4818 -59.343,-50.3504 -23.8182,-11.6661 -50.9985,-17.4991 -81.5004,-17.4991 -12.6787,0 -24.3448,1.17471 -34.8361,3.68615 -10.6534,2.51144 -20.8207,6.15709 -30.8259,11.18 -9.84324,5.14441 -19.646,11.3015 -29.4892,18.8358 -9.68121,7.49382 -19.8485,16.3244 -30.1778,26.3296l0 -205.007c0,-3.32159 -1.01268,-6.15709 -2.99753,-8.83056 -1.82282,-2.51144 -5.18492,-4.86086 -10.0053,-6.52165 -4.65832,-1.82282 -10.9774,-3.15956 -18.6738,-4.17224 -7.81788,-0.972172 -17.8231,-1.49876 -29.8133,-1.49876 -11.9901,0 -21.9954,0.526593 -29.8538,1.49876 -7.65585,1.01268 -13.975,2.34941 -18.6333,4.17224 -4.86086,1.66079 -8.18244,4.01021 -10.0053,6.52165 -2.02536,2.67347 -2.99753,5.50897 -2.99753,8.83056l0 608.498c0,3.15956 0.810143,5.99506 2.47094,8.5065 1.49876,2.47094 4.33426,4.49629 8.5065,6.15709 4.01021,1.49876 9.35715,2.8355 16.1624,3.64564 6.68368,0.85065 15.0282,1.17471 24.9929,1.17471 9.84324,0 18.0257,-0.324057 24.6689,-1.17471 6.68368,-0.810143 12.1927,-2.14688 16.1624,-3.64564 4.01021,-1.66079 6.84571,-3.68615 8.5065,-6.15709 1.66079,-2.51144 2.51144,-5.34694 2.51144,-8.66853l0 -51.3631c12.6787,13.0028 24.9929,24.5068 37.3476,34.3501 12.1521,10.0053 24.5068,18.1877 37.1451,24.8309 12.8408,6.68368 25.8436,11.6661 39.3324,14.9876 13.5294,3.20006 27.8284,4.86086 43.1806,4.86086 31.8386,0 58.9784,-6.35962 81.5004,-18.8358 22.3194,-12.5167 40.6692,-29.6917 54.8467,-51.5251 14.137,-21.6308 24.4663,-47.1503 30.988,-76.1534 6.48114,-28.8411 9.6407,-59.8291 9.6407,-92.6804zm-127.962 -8.46599c0,18.4713 -1.33674,36.3349 -4.17224,53.3074 -2.67347,17.013 -7.49382,32.1627 -14.1775,45.53 -6.68368,13.3269 -15.3522,23.9802 -26.1676,31.7981 -11.0179,8.02042 -24.5068,12.0306 -40.6692,12.0306 -8.18244,0 -16.1624,-1.17471 -24.1828,-3.68615 -7.97991,-2.51144 -16.0003,-6.31912 -24.3043,-11.9901 -8.34447,-5.50897 -16.851,-12.6787 -25.5195,-21.3473 -8.83056,-8.83056 -18.1472,-19.646 -27.8284,-32.6488l0 -143.517c17.175,-21.6713 33.6614,-38.3198 49.1757,-50.1479 15.6763,-11.8281 31.8386,-17.6611 48.6491,-17.6611 16.0003,0 29.5297,3.9697 40.6692,12.1521 11.18,8.18244 20.4966,18.8358 27.5044,31.8386 7.16977,13.1648 12.5167,27.9904 15.8383,44.6389 3.48361,16.5269 5.18492,33.1754 5.18492,49.7023z"
     id="path30" /></glyph>
   <glyph
   unicode="N"
   horiz-adv-x="658"
   id="glyph31"><path
     d="M589.996 45.0115c0,-7.52423 -1.33883,-14.1648 -3.82906,-20.1896 -2.67766,-5.81053 -6.15862,-10.6571 -10.6571,-14.6468 -4.33781,-3.82906 -9.5057,-6.66738 -15.5037,-8.51497 -6.1854,-1.82081 -12.1834,-2.65089 -18.342,-2.65089l-54.8385 0c-11.4872,0 -21.3142,1.1514 -29.6685,3.3203 -8.16687,2.32957 -15.825,6.50672 -22.8137,12.5047 -7.17614,5.99796 -13.8435,14.1648 -20.3502,24.5006 -6.50672,10.1751 -13.8167,23.5099 -21.9836,39.8436l-156.831 295.48c-9.18438,17.6726 -18.342,36.684 -27.8477,57.0074 -9.5057,20.3235 -17.8332,40.1649 -25.3307,59.337l-0.990735 0c1.31205,-23.5099 2.32957,-46.8323 2.99898,-70.1815 0.669416,-23.1618 0.990735,-47.3143 0.990735,-71.9756l0 -330.852c0,-3.15964 -0.830076,-6.15862 -2.67766,-8.83629 -1.82081,-2.49023 -4.98045,-4.65913 -9.31827,-6.47994 -4.33781,-1.84759 -10.3358,-3.18642 -17.8332,-4.17715 -7.49746,-0.990735 -17.1638,-1.49949 -28.8384,-1.49949 -11.4872,0 -20.9929,0.508756 -28.4903,1.49949 -7.49746,0.990735 -13.3348,2.32957 -17.5119,4.17715 -4.33781,1.66015 -7.3368,3.98972 -8.83629,6.47994 -1.66015,2.67766 -2.49023,5.67665 -2.49023,8.83629l0 568.013c0,15.3162 4.49847,26.8302 13.4954,34.4883 8.83629,7.68489 19.8415,11.514 32.9888,11.514l68.8427 0c12.344,0 22.8405,-1.01751 31.3287,-3.18642 8.51497,-2.16891 16.0124,-5.64987 22.6798,-10.4964 6.66738,-4.81979 12.9867,-11.6478 18.824,-20.3235 5.83731,-8.51497 11.8353,-19.3327 17.9939,-31.9981l122.851 -231.163c7.14936,-14.0042 14.1648,-27.8477 21.1535,-41.3431 7.01548,-13.4954 13.8435,-26.9908 20.1628,-40.4863 6.50672,-13.5222 12.8528,-26.857 19.0114,-39.8436 6.31928,-13.1741 12.344,-26.1608 18.1546,-39.1742l0.508756 0c-0.990735,22.8405 -1.82081,46.6717 -2.32957,71.3329 -0.508756,24.8487 -0.669416,48.4925 -0.669416,71.0116l0 296.658c0,3.15964 0.990735,6.15862 2.99898,8.83629 1.84759,2.49023 5.16789,4.81979 9.66636,6.82804 4.65913,2.00825 10.6571,3.34708 18.1813,4.17715 7.49746,0.830076 17.1638,1.1514 28.8117,1.1514 11.1659,0 20.5109,-0.32132 28.0084,-1.1514 7.49746,-0.830076 13.1741,-2.16891 17.3245,-4.17715 4.01649,-2.00825 7.01548,-4.33781 8.51497,-6.82804 1.66015,-2.67766 2.49023,-5.48921 2.49023,-8.83629l0 -567.986z"
     id="path31" /></glyph>
   <glyph
   unicode="m"
   horiz-adv-x="813"
   id="glyph32"><path
     d="M755.013 16.4864c0,-3.15956 -1.01268,-5.99506 -2.99753,-8.5065 -1.86333,-2.47094 -5.18492,-4.49629 -9.68121,-6.15709 -4.65832,-1.49876 -10.8154,-2.8355 -18.6738,-3.64564 -7.81788,-0.85065 -17.8231,-1.17471 -29.8133,-1.17471 -12.5167,0 -22.684,0.324057 -30.5019,1.17471 -7.85839,0.810143 -14.1775,2.14688 -18.8358,3.64564 -4.65832,1.66079 -8.02042,3.68615 -9.84324,6.15709 -1.82282,2.51144 -2.67347,5.34694 -2.67347,8.5065l0 258.355c0,14.6636 -1.33674,27.9904 -4.17224,39.9806 -2.67347,12.1927 -6.96723,22.522 -12.6382,31.0285 -5.671,8.66853 -12.8408,15.3117 -21.3473,20.1321 -8.66853,4.69883 -18.8358,7.00774 -30.8259,7.00774 -14.6636,0 -29.4892,-5.671 -44.3553,-17.175 -14.9876,-11.3015 -31.15,-27.9904 -48.6491,-49.6618l0 -289.667c0,-3.15956 -1.01268,-5.99506 -2.99753,-8.5065 -1.82282,-2.47094 -5.18492,-4.49629 -10.0053,-6.15709 -4.65832,-1.49876 -11.0179,-2.8355 -18.8358,-3.64564 -7.81788,-0.85065 -17.6611,-1.17471 -29.3272,-1.17471 -12.1521,0 -22.1574,0.324057 -30.0158,1.17471 -7.81788,0.810143 -14.137,2.14688 -18.8358,3.64564 -4.82035,1.66079 -8.14194,3.68615 -10.0053,6.15709 -1.98485,2.51144 -2.99753,5.34694 -2.99753,8.5065l0 258.355c0,14.6636 -1.33674,27.9904 -4.13173,39.9806 -2.67347,12.1927 -6.84571,22.522 -12.5167,31.0285 -5.50897,8.66853 -12.6787,15.3117 -21.3473,20.1321 -8.83056,4.69883 -19.1599,7.00774 -30.8259,7.00774 -14.9876,0 -29.8133,-5.671 -44.8414,-17.175 -14.9876,-11.3015 -31.15,-27.9904 -48.325,-49.6618l0 -289.667c0,-3.15956 -1.01268,-5.99506 -2.99753,-8.5065 -1.82282,-2.47094 -5.18492,-4.49629 -10.0053,-6.15709 -4.65832,-1.49876 -10.9774,-2.8355 -18.6738,-3.64564 -7.81788,-0.85065 -17.8231,-1.17471 -29.8133,-1.17471 -11.9901,0 -21.9954,0.324057 -29.8538,1.17471 -7.65585,0.810143 -13.975,2.14688 -18.6333,3.64564 -4.86086,1.66079 -8.18244,3.68615 -10.0053,6.15709 -2.02536,2.51144 -2.99753,5.34694 -2.99753,8.5065l0 436.019c0,3.15956 0.810143,5.99506 2.47094,8.5065 1.49876,2.47094 4.49629,4.49629 8.66853,6.15709 4.33426,1.49876 9.68121,2.8355 16.3244,3.64564 6.68368,0.85065 15.1902,1.17471 25.1954,1.17471 10.4914,0 18.9979,-0.324057 25.8436,-1.17471 6.8052,-0.810143 12.1521,-2.14688 16.0003,-3.64564 3.64564,-1.66079 6.31912,-3.68615 7.97991,-6.15709 1.66079,-2.51144 2.51144,-5.34694 2.51144,-8.5065l0 -50.3504c23.9802,26.0056 48.001,45.3275 71.9812,58.3303 24.0207,13.0028 49.0137,19.5244 75.0192,19.5244 17.9852,0 34.1475,-1.82282 48.4871,-5.671 14.3395,-3.68615 27.0183,-8.99259 38.3198,-16.0003 11.18,-7.00774 20.8612,-15.3522 29.0031,-24.9929 8.18244,-9.84324 15.0282,-20.6586 20.4966,-32.6893 13.0028,14.0155 25.8436,26.0056 38.3603,36.0109 12.4762,10.0053 24.9929,18.3497 37.1451,24.6689 12.1927,6.31912 24.3448,10.9774 36.659,14.0155 12.1927,3.15956 24.5068,4.65832 37.3476,4.65832 28.8411,0 53.3479,-4.86086 73.1559,-14.6636 19.8485,-9.68121 35.8488,-23.0081 48.001,-39.859 12.3547,-16.6484 21.0232,-36.3349 26.1676,-58.8164 5.18492,-22.522 7.85839,-46.1782 7.85839,-71.3331l0 -278.851z"
     id="path32" /></glyph>
   <glyph
   unicode="j"
   horiz-adv-x="255"
   id="glyph33"><path
     d="M193.989 1.98485c0,-34.1475 -2.99753,-61.8139 -8.83056,-82.9991 -5.83303,-21.1447 -14.6636,-38.8058 -26.4917,-53.3074 -11.9901,-14.5016 -26.8157,-25.3575 -44.8414,-32.6893 -17.8231,-7.33179 -38.8058,-10.9774 -62.9886,-10.9774 -13.3269,0 -24.6689,0.810143 -34.188,2.67347 -9.47867,1.82282 -16.3244,3.64564 -20.4966,5.63049 -4.13173,2.02536 -7.16977,4.5368 -8.83056,7.33179 -1.49876,3.03804 -2.67347,6.35962 -3.32159,10.1673 -0.648114,3.68615 -1.17471,8.02042 -1.49876,12.6787 -0.324057,4.65832 -0.486086,10.8559 -0.486086,18.3497 0,9.15462 0.162029,16.8105 0.648114,22.8055 0.486086,6.03557 1.49876,10.8559 2.67347,14.5016 1.33674,3.68615 2.8355,6.19759 4.49629,7.85839 1.49876,1.66079 3.68615,2.51144 6.31912,2.51144 1.49876,0 4.86086,-0.526593 9.84324,-1.33674 5.18492,-0.85065 10.4914,-1.17471 16.3244,-1.17471 8.5065,0 15.8383,1.33674 21.9954,3.80767 6.03557,2.67347 11.18,6.68368 15.0282,12.3547 3.80767,5.671 6.8052,13.0028 8.66853,21.8334 1.98485,8.83056 2.99753,23.0081 2.99753,42.33l0 447.158c0,3.15956 0.972172,5.99506 2.99753,8.5065 1.82282,2.51144 5.14441,4.65832 9.6407,6.31912 4.69883,1.86333 10.8559,3.20006 18.6738,4.17224 7.85839,1.01268 17.8637,1.49876 30.0158,1.49876 11.9901,0 21.9954,-0.486086 29.8133,-1.49876 7.85839,-0.972172 14.1775,-2.30891 18.8358,-4.17224 4.86086,-1.66079 8.18244,-3.80767 10.0053,-6.31912 2.02536,-2.51144 2.99753,-5.34694 2.99753,-8.5065l0 -449.508zm8.99259 598.534c0,-24.8714 -4.98238,-41.8439 -14.9876,-51.3631 -9.84324,-9.47867 -28.6791,-14.137 -56.5075,-14.137 -27.3018,0 -45.9756,4.49629 -55.8189,13.6509 -9.84324,9.15462 -14.6636,25.6815 -14.6636,49.3377 0,24.8309 4.98238,42.0059 15.1497,51.6466 10.1673,9.51918 28.8411,14.3395 56.3454,14.3395 27.6664,0 46.5022,-4.65832 55.9809,-13.975 9.68121,-9.19512 14.5016,-25.6815 14.5016,-49.4997z"
     id="path33" /></glyph>
   <glyph
   unicode="H"
   horiz-adv-x="630"
   id="glyph34"><path
     d="M561.995 17.4979c0,-3.17395 -0.989283,-6.16241 -3.15334,-8.8211 -2.18467,-2.51443 -5.66777,-4.67848 -10.5111,-6.3479 -4.82275,-1.50453 -11.3355,-2.82358 -19.4971,-3.83347 -7.9967,-0.989283 -18.343,-1.50453 -30.5029,-1.50453 -12.6546,0 -23.1657,0.515251 -31.4922,1.50453 -8.34707,1.00989 -14.6744,2.32894 -19.4971,3.83347 -4.67848,1.66941 -8.01731,3.83347 -10.1814,6.3479 -2.16406,2.6587 -3.15334,5.64716 -3.15334,8.8211l0 255.503 -237.016 0 0 -255.503c0,-3.17395 -0.989283,-6.16241 -2.98846,-8.8211 -1.8343,-2.51443 -5.338,-4.67848 -10.1608,-6.3479 -4.84336,-1.50453 -11.3355,-2.82358 -19.5177,-3.83347 -7.9967,-0.989283 -18.4872,-1.50453 -30.9975,-1.50453 -12.3248,0 -22.6505,0.515251 -30.9975,1.50453 -8.32646,1.00989 -14.8392,2.32894 -19.662,3.83347 -4.84336,1.66941 -8.32646,3.83347 -10.4905,6.3479 -2.18467,2.6587 -3.17395,5.64716 -3.17395,8.8211l0 597.012c0,3.15334 0.989283,6.16241 3.17395,8.8211 2.16406,2.49382 5.64716,4.67848 10.4905,6.32729 4.82275,1.66941 11.3355,2.84419 19.662,3.83347 8.34707,1.00989 18.6727,1.50453 30.9975,1.50453 12.5103,0 23.0008,-0.494641 30.9975,-1.50453 8.18219,-0.989283 14.6744,-2.32894 19.5177,-3.83347 4.82275,-1.6488 8.32646,-3.83347 10.1608,-6.32729 1.99918,-2.6587 2.98846,-5.66777 2.98846,-8.8211l0 -232.502 237.016 0 0 232.502c0,3.15334 0.989283,6.16241 3.15334,8.8211 2.16406,2.49382 5.50289,4.67848 10.1814,6.32729 4.82275,1.50453 11.15,2.84419 19.4971,3.83347 8.32646,1.00989 18.8376,1.50453 31.4922,1.50453 12.1599,0 22.5062,-0.494641 30.5029,-1.50453 8.16158,-0.989283 14.6744,-2.16406 19.4971,-3.83347 4.84336,-1.6488 8.32646,-3.83347 10.5111,-6.32729 2.16406,-2.6587 3.15334,-5.66777 3.15334,-8.8211l0 -597.012z"
     id="path34" /></glyph>
   <glyph
   unicode="V"
   horiz-adv-x="591"
   id="glyph35"><path
     d="M383.67 22.3378c-1.66765,-5.50765 -3.66445,-10.0059 -6.34147,-13.3412 -2.65508,-3.48891 -6.82422,-5.99039 -12.661,-7.83359 -5.83679,-1.82125 -13.824,-3.00617 -24.0054,-3.48891 -10.0059,-0.504685 -23.1716,-0.680227 -39.4971,-0.680227 -12.9901,0 -24.159,0 -33.5067,0.175543 -9.3257,0.1536 -17.1593,0.658285 -23.6544,1.33851 -6.49507,0.658285 -11.8272,1.66765 -15.8427,2.83062 -4.16914,1.33851 -7.50444,2.98422 -10.3351,5.00296 -2.65508,1.82125 -4.82742,4.32273 -6.31953,6.99976 -1.51405,2.83062 -2.83062,6.31953 -4.16914,10.4887l-187.831 560.332c-3.83999,11.8491 -6.34147,20.9993 -6.99976,27.8454 -0.833827,6.82422 0.658285,12.0027 4.82742,15.4916 3.99359,3.33531 10.9934,5.50765 20.6701,6.34147 9.83038,0.833827 23.5008,1.16297 41.1647,1.16297 14.9869,0 26.6605,-0.329142 35.1743,-1.00937 8.49187,-0.658285 14.9869,-1.82125 19.4852,-3.33531 4.49828,-1.66765 7.83359,-4.16914 9.50124,-7.3289 1.8432,-3.33531 3.51085,-7.3289 5.1785,-12.3319l153.49 -487.504 0.504685 0 150.989 485.178c1.33851,5.4857 3.00617,9.98398 4.84936,13.3193 1.9968,3.51085 5.3321,6.16593 10.1595,8.18467 4.67382,1.82125 11.498,3.15977 20.341,3.81805 8.66741,0.680227 20.8237,1.00937 36.1618,1.00937 14.9869,0 26.6605,-0.504685 34.9988,-1.51405 8.33827,-0.987427 13.9995,-3.31337 17.1593,-6.99976 3.00617,-3.81805 4.01554,-9.15015 2.83062,-15.9963 -0.987427,-6.82422 -3.66445,-15.8208 -7.4825,-27.3188l-188.84 -560.836z"
     id="path35" /></glyph>
   <glyph
   unicode="x"
   horiz-adv-x="459"
   id="glyph36"><path
     d="M440.515 25.317c2.63296,-5.46847 3.80767,-10.1673 3.64564,-13.6509 -0.162029,-3.68615 -2.51144,-6.48114 -7.00774,-8.83056 -4.65832,-2.34941 -11.6661,-3.84818 -20.9827,-4.65832 -9.51918,-0.85065 -21.9954,-1.17471 -37.5096,-1.17471 -14.6636,0 -26.4917,0.162029 -35.3222,0.648114 -8.99259,0.526593 -16.0003,1.49876 -21.0232,2.99753 -4.98238,1.49876 -8.83056,3.36209 -11.1395,5.34694 -2.51144,2.18739 -4.33426,4.82035 -5.671,8.18244l-81.0143 154.818 -80.0016 -154.818c-1.33674,-3.36209 -3.15956,-5.99506 -5.30644,-8.18244 -2.34941,-1.98485 -5.83303,-3.84818 -10.6939,-5.34694 -4.65832,-1.49876 -11.342,-2.47094 -19.808,-2.99753 -8.5065,-0.486086 -19.5244,-0.648114 -33.3374,-0.648114 -14.3395,0 -25.8436,0.324057 -34.188,1.17471 -8.5065,0.810143 -14.8256,2.30891 -18.6738,4.65832 -3.9697,2.34941 -5.99506,5.14441 -6.15709,8.83056 -0.162029,3.48361 1.17471,8.18244 4.17224,13.6509l120.509 214.526 -110.99 201.321c-2.99753,5.99506 -4.49629,10.8559 -4.69883,14.9876 -0.162029,4.01021 1.86333,7.16977 6.19759,9.51918 4.17224,2.34941 10.9774,3.84818 20.3346,4.82035 9.15462,1.01268 21.8334,1.49876 37.8337,1.49876 14.299,0 25.8031,-0.162029 34.4716,-0.648114 8.5065,-0.526593 15.3522,-1.33674 20.1726,-2.34941 5.02289,-0.810143 8.5065,-2.51144 10.8559,-4.49629 2.30891,-2.14688 4.13173,-4.82035 5.83303,-8.14194l77.4902 -145.704 76.4775 145.704c1.01268,2.63296 2.51144,4.82035 4.33426,6.8052 2.02536,2.02536 5.18492,3.68615 9.35715,5.02289 4.33426,1.1342 10.0053,2.14688 17.3371,2.8355 7.33179,0.648114 17.4991,0.972172 30.1373,0.972172 14.3395,0 25.8436,-0.324057 34.5121,-0.972172 8.66853,-0.688622 14.8256,-2.18739 18.5118,-4.33426 3.80767,-2.34941 5.671,-5.50897 5.50897,-9.51918 -0.162029,-4.17224 -2.18739,-9.47867 -5.671,-16.0003l-107.992 -197.837 119.496 -218.009z"
     id="path36" /></glyph>
   <glyph
   unicode="4"
   horiz-adv-x="506"
   id="glyph37"><path
     d="M487.017 181.999c0,-16.6484 -1.7013,-29.3272 -5.18492,-37.9957 -3.32159,-8.66853 -7.97991,-13.0028 -13.8129,-13.0028l-56.0214 0 0 -114.514c0,-3.15956 -1.01268,-5.99506 -2.99753,-8.5065 -1.82282,-2.47094 -5.34694,-4.49629 -10.1673,-6.15709 -4.98238,-1.49876 -11.342,-2.8355 -19.1599,-3.64564 -7.85839,-0.85065 -18.0257,-1.17471 -30.3399,-1.17471 -11.8281,0 -21.6713,0.324057 -29.6512,1.17471 -8.02042,0.810143 -14.5016,2.14688 -19.2004,3.64564 -4.65832,1.66079 -7.97991,3.68615 -9.80273,6.15709 -1.86333,2.51144 -2.67347,5.34694 -2.67347,8.5065l0 114.514 -241.666 0c-4.49629,0 -8.66853,0.486086 -12.1927,1.66079 -3.64564,1.17471 -6.64317,3.84818 -9.15462,7.85839 -2.30891,4.13173 -4.17224,9.96476 -5.30644,17.6611 -1.17471,7.65585 -1.7013,17.8231 -1.7013,30.6639 0,10.4914 0.162029,19.4839 0.688622,27.1398 0.486086,7.69636 1.33674,14.6636 2.51144,20.8612 1.1342,6.15709 2.79499,11.9901 4.82035,17.6611 2.14688,5.50897 4.82035,11.342 8.14194,17.4991l196.176 346.012c1.66079,2.8355 4.49629,5.30644 8.34447,7.49382 4.01021,2.14688 9.31664,3.80767 16.3244,5.30644 7.00774,1.49876 16.0003,2.51144 26.6942,3.20006 10.6534,0.648114 23.8182,0.972172 38.9679,0.972172 16.6889,0 31.0285,-0.324057 42.6945,-1.17471 11.8281,-0.810143 21.3068,-2.14688 28.3145,-3.9697 7.00774,-1.66079 12.1521,-4.01021 15.5142,-6.52165 3.15956,-2.67347 4.82035,-5.671 4.82035,-9.31664l0 -379.998 56.0214 0c5.14441,0 9.6407,-4.01021 13.3269,-11.9901 3.80767,-8.02042 5.671,-21.3473 5.671,-40.0211zm-199.012 342.002l-1.01268 0 -165.998 -289.991 167.011 0 0 289.991z"
     id="path37" /></glyph>
   <glyph
   unicode="g"
   horiz-adv-x="474"
   id="glyph38"><path
     d="M454.166 422.003c0,-15.6763 -1.82282,-27.1803 -5.50897,-34.6741 -3.48361,-7.49382 -7.81788,-11.342 -13.1648,-11.342l-51.1605 0c7.16977,-7.81788 12.1521,-16.6484 15.3522,-26.4917 3.15956,-10.0053 4.65832,-20.3346 4.65832,-30.988 0,-25.3575 -4.33426,-47.8389 -12.6787,-67.5254 -8.5065,-19.646 -20.6586,-36.3349 -36.4969,-49.8238 -15.6763,-13.4889 -34.8361,-23.6562 -56.9936,-30.6639 -22.3599,-7.00774 -47.1908,-10.4914 -74.4926,-10.4914 -14.0155,0 -27.3423,1.66079 -40.0211,5.14441 -12.8408,3.36209 -22.4815,7.3723 -29.3272,11.8686 -4.01021,-4.17224 -7.49382,-9.19512 -10.4914,-15.1902 -3.15956,-5.83303 -4.65832,-12.3142 -4.65832,-19.4839 0,-9.51918 4.13173,-17.3371 12.4762,-23.3321 8.18244,-5.99506 19.8485,-9.35715 34.8361,-10.0053l106.007 -3.84818c24.6689,-0.972172 46.8263,-4.49629 66.1482,-10.4914 19.3624,-5.99506 35.6868,-14.5016 48.8516,-25.479 13.1648,-10.8559 23.3321,-24.0207 30.3399,-39.1704 7.00774,-15.3522 10.4914,-32.8513 10.4914,-52.3352 0,-21.5093 -4.82035,-41.6819 -14.1775,-60.6797 -9.47867,-19.1599 -23.6562,-35.6868 -42.492,-49.6618 -18.9979,-14.0155 -42.654,-24.9929 -71.1711,-33.1754 -28.4765,-8.18244 -61.6519,-12.1521 -99.8096,-12.1521 -37.0235,0 -68.7001,2.99753 -95.0298,8.83056 -26.1676,5.83303 -47.6364,13.975 -64.3254,24.3043 -16.8105,10.5319 -29.0031,22.846 -36.659,37.3476 -7.65585,14.5016 -11.504,30.3399 -11.504,47.6769 0,10.6534 1.33674,20.9827 4.17224,30.6639 2.8355,9.84324 6.84571,19.1599 12.1521,28.1525 5.34694,8.83056 12.0306,17.4991 19.8485,25.5195 7.81788,8.14194 16.6484,16.0003 26.8157,23.4941 -13.975,7.49382 -24.8309,17.6611 -32.4867,30.5019 -7.65585,12.8408 -11.504,26.9778 -11.504,42.33 0,19.1599 4.49629,36.659 13.1648,52.4973 8.83056,15.8383 20.3346,30.0158 34.3501,42.8566 -11.504,11.3015 -20.4966,24.9929 -27.3423,40.8312 -6.84571,16.0003 -10.3293,35.8083 -10.3293,59.4645 0,25.5195 4.49629,48.2035 13.4889,68.1735 8.83056,20.0105 21.3473,36.8615 37.3476,50.6744 15.8383,13.8534 34.9982,24.3448 56.9936,31.6766 22.1574,7.33179 46.6642,10.9774 73.3179,10.9774 13.6914,0 26.8562,-0.810143 39.3324,-2.30891 12.5167,-1.66079 24.1828,-3.84818 34.8361,-6.68368l138.17 0c5.50897,0 10.0053,-3.64564 13.4889,-10.8154 3.36209,-7.16977 5.18492,-19.1599 5.18492,-36.1729zm-157.816 -103.172c0,23.3321 -6.52165,41.6819 -19.5244,54.6847 -13.0028,13.0028 -31.312,19.4839 -55.1707,19.4839 -11.9901,0 -22.6435,-1.98485 -31.6361,-6.15709 -9.19512,-4.01021 -16.6889,-9.51918 -22.846,-16.5269 -5.99506,-6.96723 -10.4914,-15.1497 -13.3269,-24.4663 -2.99753,-9.35715 -4.33426,-18.9979 -4.33426,-29.0031 0,-22.1979 6.48114,-39.697 19.4839,-52.4973 13.0028,-12.8408 30.988,-19.3624 54.1581,-19.3624 12.3547,0 23.1701,2.02536 32.1627,5.83303 9.19512,4.01021 16.6889,9.35715 22.684,16.1624 6.15709,6.84571 10.6534,14.7041 13.8129,23.6967 3.03804,8.99259 4.5368,18.3092 4.5368,28.1525zm28.8006 -347.511c0,14.5016 -5.83303,25.8436 -17.4991,33.4994 -11.8281,7.85839 -27.8284,12.1927 -48.325,12.6787l-87.4954 2.51144c-8.34447,-6.15709 -15.1497,-12.1927 -20.1726,-17.8637 -5.14441,-5.63049 -9.15462,-10.9774 -12.3142,-16.3244 -2.99753,-5.14441 -5.02289,-10.1673 -5.99506,-14.9876 -1.01268,-4.82035 -1.49876,-10.0053 -1.49876,-15.1497 0,-16.2029 8.14194,-28.517 24.6689,-37.0235 16.4864,-8.5065 39.6565,-12.6787 69.4698,-12.6787 18.6738,0 34.3501,1.86333 47.0288,5.671 12.6382,3.68615 22.8055,8.66853 30.6639,14.8661 7.81788,6.15709 13.3269,12.9623 16.6484,20.6586 3.15956,7.65585 4.82035,15.6358 4.82035,24.1423z"
     id="path38" /></glyph>
   <glyph
   unicode="E"
   horiz-adv-x="487"
   id="glyph39"><path
     d="M442.993 50.5007c0,-9.5057 -0.32132,-17.3245 -1.1514,-23.8312 -0.830076,-6.34606 -2.00825,-11.514 -3.6684,-15.343 -1.66015,-3.98972 -3.6684,-6.82804 -6.1854,-8.64885 -2.32957,-1.84759 -5.14111,-2.67766 -7.97944,-2.67766l-317.009 0c-10.6571,0 -19.654,3.15964 -26.9908,9.5057 -7.3368,6.31928 -11.0052,16.6551 -11.0052,31.0073l0 550.983c0,14.3255 3.6684,24.6613 11.0052,31.0073 7.3368,6.31928 16.3337,9.5057 26.9908,9.5057l315.509 0c2.81155,0 5.48921,-0.830076 7.81878,-2.517 2.16891,-1.66015 4.17715,-4.49847 5.83731,-8.48819 1.49949,-4.17715 2.83832,-9.34504 3.6684,-15.6643 0.830076,-6.50672 1.17817,-14.5129 1.17817,-24.34 0,-9.15761 -0.348096,-16.8425 -1.17817,-23.3224 -0.830076,-6.34606 -2.00825,-11.514 -3.6684,-15.343 -1.66015,-3.98972 -3.6684,-6.82804 -5.83731,-8.67563 -2.32957,-1.82081 -5.00723,-2.65089 -7.81878,-2.65089l-225.513 0 0 -154.019 190.007 0c2.99898,0 5.67665,-0.830076 8.00621,-2.65089 2.49023,-1.84759 4.49847,-4.49847 6.15862,-8.32753 1.66015,-3.6684 2.83832,-8.67563 3.6684,-15.1823 0.830076,-6.31928 1.1514,-14.0042 1.1514,-23.0011 0,-9.5057 -0.32132,-17.3245 -1.1514,-23.4831 -0.830076,-6.1854 -2.00825,-11.1659 -3.6684,-14.8343 -1.66015,-3.82906 -3.6684,-6.50672 -6.15862,-8.00621 -2.32957,-1.66015 -5.00723,-2.49023 -8.00621,-2.49023l-190.007 0 0 -178.011 227.012 0c2.99898,0 5.64987,-0.830076 7.97944,-2.67766 2.517,-1.82081 4.52525,-4.65913 6.1854,-8.64885 1.66015,-3.82906 2.83832,-8.99695 3.6684,-15.343 0.830076,-6.50672 1.1514,-14.3255 1.1514,-23.8312z"
     id="path39" /></glyph>
   <glyph
   unicode="S"
   horiz-adv-x="472"
   id="glyph40"><path
     d="M443.991 189.674c0,-33.3311 -6.16593,-62.3395 -18.4978,-87.508 -12.4855,-24.9929 -29.162,-45.8385 -50.3368,-62.6687 -21.3284,-16.6546 -45.9921,-29.3375 -74.3203,-37.8294 -28.3282,-8.49187 -58.6751,-12.661 -90.9969,-12.661 -21.8331,0 -41.9986,1.82125 -60.8474,5.4857 -18.6514,3.66445 -35.1524,8.00913 -49.4811,13.1657 -14.3506,5.00296 -26.3533,10.3351 -36.0082,16.0183 -9.67678,5.66125 -16.501,10.6642 -20.8457,14.8333 -4.14719,4.32273 -7.15336,10.4887 -8.99655,18.4978 -1.82125,7.98719 -2.65508,19.3316 -2.65508,34.3186 0,10.1815 0.329142,18.4978 0.987427,25.344 0.680227,6.82422 1.66765,12.3319 3.18171,16.6546 1.49211,4.16914 3.48891,7.1753 5.81485,9.0185 2.50148,1.82125 5.35405,2.65508 8.66741,2.65508 4.52022,0 11.0153,-2.65508 19.3536,-8.16273 8.31633,-5.3321 18.9805,-11.3444 31.9926,-17.8395 12.9901,-6.49507 28.6573,-12.4855 46.826,-17.8395 18.0151,-5.4857 39.0143,-8.16273 62.8442,-8.16273 15.6672,0 29.6667,1.8432 41.9986,5.50765 12.4855,3.83999 22.9961,8.99655 31.6635,15.8427 8.66741,6.82422 15.1625,15.1625 19.8363,25.1465 4.49828,10.0059 6.82422,21.1748 6.82422,33.5067 0,14.3287 -3.81805,26.6605 -11.6516,36.842 -7.83359,10.3351 -18.0151,19.3316 -30.6761,27.3188 -12.5074,8.00913 -26.8361,15.5136 -42.8324,22.5133 -15.8427,6.99976 -32.3437,14.3287 -49.3275,22.1622 -17.0057,7.83359 -33.5067,16.6765 -49.3494,26.6605 -15.9963,9.83038 -30.325,21.6795 -42.8324,35.5035 -12.661,13.8459 -22.8205,30.1714 -30.6541,49.1739 -7.83359,18.8269 -11.6736,41.4939 -11.6736,67.8252 0,30.1714 5.66125,56.8319 16.8301,79.828 11.1689,22.8425 26.3314,41.845 45.3339,57.0074 19.178,15.1625 41.4939,26.5069 67.3425,34.0114 25.8267,7.4825 53.321,11.147 82.3294,11.147 14.8333,0 29.8422,-1.16297 44.8292,-3.48891 15.0089,-2.17234 29.0084,-5.3321 41.9986,-9.1721 13.0121,-3.99359 24.5101,-8.33827 34.6697,-13.1657 10.0059,-5.00296 16.6765,-8.99655 20.0118,-12.3319 3.15977,-3.15977 5.3321,-5.99039 6.49507,-8.16273 1.16297,-2.32594 2.1504,-5.3321 2.98422,-9.1721 0.833827,-3.66445 1.33851,-8.33827 1.66765,-14.1531 0.351085,-5.68319 0.504685,-12.6829 0.504685,-21.1748 0,-9.3257 -0.1536,-17.3348 -0.658285,-23.8299 -0.504685,-6.49507 -1.33851,-11.8491 -2.50148,-16.1719 -1.16297,-4.16914 -2.83062,-7.3289 -4.82742,-9.1721 -2.17234,-1.9968 -5.00296,-2.98422 -8.66741,-2.98422 -3.51085,0 -9.1721,2.32594 -17.0057,6.82422 -7.83359,4.49828 -17.5104,9.50124 -28.8329,15.0089 -11.498,5.3321 -24.6637,10.1595 -39.6726,14.4823 -14.9869,4.49828 -31.3343,6.67062 -49.3275,6.67062 -13.9995,0 -26.1778,-1.66765 -36.6664,-5.15656 -10.3351,-3.33531 -19.0025,-8.18467 -26.0022,-14.1751 -6.99976,-5.99039 -12.3319,-13.1657 -15.6672,-21.6576 -3.48891,-8.51381 -5.15656,-17.5104 -5.15656,-26.8361 0,-13.9995 3.81805,-26.1778 11.498,-36.3373 7.65804,-10.3351 17.9931,-19.5072 30.8297,-27.4943 12.8365,-7.83359 27.4943,-15.338 43.8198,-22.3378 16.1719,-6.99976 32.8484,-14.5042 49.8321,-22.1622 17.0057,-7.83359 33.6822,-16.6765 49.8541,-26.6825 16.3255,-9.98398 30.8297,-21.8331 43.6662,-35.6571 12.661,-13.824 22.9961,-29.9958 30.8297,-48.8447 7.83359,-18.6514 11.6516,-40.66 11.6516,-65.9821z"
     id="path40" /></glyph>
   <glyph
   unicode="u"
   horiz-adv-x="536"
   id="glyph41"><path
     d="M474.987 16.4864c0,-3.15956 -0.810143,-5.99506 -2.47094,-8.5065 -1.49876,-2.47094 -4.33426,-4.49629 -8.5065,-6.15709 -4.01021,-1.49876 -9.35715,-2.8355 -16.1624,-3.64564 -6.68368,-0.85065 -15.0282,-1.17471 -25.0334,-1.17471 -10.8154,0 -19.4839,0.324057 -26.1271,1.17471 -6.68368,0.810143 -12.0306,2.14688 -15.8383,3.64564 -4.01021,1.66079 -6.68368,3.68615 -8.34447,6.15709 -1.66079,2.51144 -2.51144,5.34694 -2.51144,8.5065l0 50.3504c-23.9802,-25.8436 -48.4871,-45.3275 -73.48,-58.3303 -24.9929,-13.0028 -50.8365,-19.5244 -77.5307,-19.5244 -29.9753,0 -55.3328,4.86086 -75.6674,14.7041 -20.2941,9.6407 -36.821,23.1296 -49.2972,39.9806 -12.5167,17.013 -21.5093,36.4969 -27.0183,58.8164 -5.34694,22.3599 -7.97991,50.1884 -7.97991,83.3637l0 266.659c0,3.15956 0.810143,5.99506 2.63296,8.5065 1.86333,2.47094 5.18492,4.49629 9.84324,6.15709 4.65832,1.49876 11.18,2.8355 19.1599,3.64564 8.02042,0.85065 17.8637,1.17471 29.6917,1.17471 11.9901,0 21.9954,-0.324057 29.8133,-1.17471 7.85839,-0.810143 14.1775,-2.14688 18.8358,-3.64564 4.82035,-1.66079 8.18244,-3.68615 10.0053,-6.15709 1.98485,-2.51144 2.99753,-5.34694 2.99753,-8.5065l0 -246.162c0,-22.846 1.49876,-40.1831 4.33426,-52.1732 2.99753,-12.1521 7.49382,-22.522 13.4889,-30.988 5.99506,-8.66853 13.6914,-15.3522 23.0081,-20.1726 9.15462,-4.65832 20.0105,-7.00774 32.4867,-7.00774 15.6763,0 31.3525,5.671 47.1908,17.013 15.6763,11.3015 32.6488,27.9904 50.5124,49.6618l0 289.829c0,3.15956 0.810143,5.99506 2.63296,8.5065 1.86333,2.47094 5.02289,4.49629 9.84324,6.15709 4.65832,1.49876 11.0179,2.8355 18.6738,3.64564 7.81788,0.85065 17.8231,1.17471 29.8133,1.17471 12.0306,0 22.0359,-0.324057 29.8538,-1.17471 7.65585,-0.810143 14.0155,-2.14688 18.5118,-3.64564 4.49629,-1.66079 7.81788,-3.68615 9.6407,-6.15709 2.02536,-2.51144 2.99753,-5.34694 2.99753,-8.5065l0 -436.019z"
     id="path41" /></glyph>
   <glyph
   unicode="d"
   horiz-adv-x="536"
   id="glyph42"><path
     d="M474.987 16.4864c0,-3.48361 -0.810143,-6.48114 -2.47094,-8.99259 -1.49876,-2.51144 -4.33426,-4.49629 -8.18244,-6.15709 -4.01021,-1.49876 -9.31664,-2.67347 -16.0003,-3.32159 -6.68368,-0.688622 -14.8256,-1.01268 -24.5068,-1.01268 -10.4914,0 -18.9979,0.324057 -25.479,1.01268 -6.52165,0.648114 -11.6661,1.82282 -15.8383,3.32159 -4.01021,1.66079 -7.00774,3.84818 -8.66853,6.15709 -1.82282,2.51144 -2.8355,5.50897 -2.8355,9.15462l0 48.5276c-22.3194,-24.1828 -46.0161,-42.8566 -70.5229,-56.1834 -24.6689,-13.3269 -51.8086,-20.0105 -81.8244,-20.0105 -33.1754,0 -61.3278,6.52165 -84.1739,19.3624 -22.9676,12.8408 -41.6413,30.1373 -56.1429,51.9707 -14.5016,21.6713 -24.9929,47.1908 -31.5146,76.356 -6.48114,29.1651 -9.84324,59.8291 -9.84324,91.9917 0,38.6843 4.17224,73.5205 12.5167,104.508 8.34447,30.8259 20.3346,57.1556 36.3349,78.9889 16.0003,21.8334 35.8488,38.5223 59.667,50.3504 23.6562,11.6661 50.9985,17.4991 81.9865,17.4991 24.3448,0 46.5022,-5.02289 66.3507,-14.8256 20.0105,-10.0053 39.6565,-24.5068 59.1809,-43.6667l0 235.468c0,3.36209 0.810143,6.19759 2.63296,8.83056 1.86333,2.51144 5.02289,4.86086 9.84324,6.52165 4.65832,1.82282 11.0179,3.15956 18.6738,4.17224 7.81788,0.972172 17.8231,1.49876 29.8133,1.49876 12.0306,0 22.0359,-0.526593 29.8538,-1.49876 7.65585,-1.01268 14.0155,-2.34941 18.5118,-4.17224 4.49629,-1.66079 7.81788,-4.01021 9.6407,-6.52165 2.02536,-2.63296 2.99753,-5.46847 2.99753,-8.83056l0 -640.499zm-121.967 291.165c-17.5396,22.1979 -34.5121,39.0084 -50.5124,50.8365 -16.1624,11.6661 -33.0133,17.4991 -50.6744,17.4991 -15.8383,0 -29.6512,-3.9697 -41.1553,-11.9901 -11.6661,-7.97991 -20.8612,-18.5118 -27.8284,-31.8386 -7.00774,-13.4889 -12.3547,-28.3145 -15.6763,-44.6389 -3.52412,-16.5269 -5.18492,-33.3374 -5.18492,-50.5124 0,-18.3497 1.49876,-36.0109 4.33426,-53.1859 2.99753,-17.3371 7.85839,-32.6488 14.5016,-46.1376 6.68368,-13.5294 15.5142,-24.3448 26.6942,-32.5272 10.9774,-8.14194 24.9929,-12.1521 41.9654,-12.1521 8.34447,0 16.6889,1.17471 24.6689,3.64564 8.02042,2.51144 16.0003,6.35962 24.3448,12.0306 8.34447,5.46847 16.851,12.6382 25.6815,21.6713 8.83056,8.99259 18.4713,19.808 28.8411,32.8108l0 144.489z"
     id="path42" /></glyph>
   <glyph
   unicode="B"
   horiz-adv-x="560"
   id="glyph43"><path
     d="M525.992 189.671c0,-22.5139 -3.15834,-42.8297 -9.32565,-61.1609 -6.16731,-18.1818 -14.6607,-34.3363 -25.5015,-48.3355 -10.9902,-13.9991 -24.0077,-26.0137 -38.9885,-36.1716 -15.1729,-10.1793 -31.8395,-18.3312 -50,-25.0107 -18.1818,-6.48741 -37.6867,-11.3316 -58.344,-14.3192 -20.6573,-3.17968 -43.662,-4.6735 -68.9927,-4.6735l-167.84 0c-10.6701,0 -19.6756,3.15834 -26.9953,9.49637 -7.34102,6.33803 -11.0115,16.6667 -11.0115,31.0073l0 551.003c0,14.3192 3.67051,24.6692 11.0115,30.9859 7.31968,6.33803 16.3252,9.51771 26.9953,9.51771l158.344 0c38.647,0 71.3188,-3.35041 98.1647,-9.83781 26.8246,-6.50875 49.3171,-16.3466 67.6483,-29.5134 18.5019,-13.1669 32.5011,-29.8335 42.1682,-50 9.83781,-20.1665 14.682,-43.8327 14.682,-71.1694 0,-15.3222 -2.00598,-29.6628 -5.8472,-43.1498 -3.81989,-13.5083 -9.66709,-25.8429 -16.9868,-36.8331 -7.51174,-11.1822 -16.6667,-20.8493 -27.6782,-29.3427 -10.8195,-8.49338 -23.1541,-15.3222 -37.1532,-20.4866 17.819,-3.35041 34.4857,-9.00555 49.6586,-17.1788 15.1729,-8.17328 28.3397,-18.6726 39.5006,-31.4981 11.3316,-12.8254 20.1665,-27.9983 26.6752,-45.1771 6.48741,-17.3282 9.81647,-36.6624 9.81647,-58.1519zm-165.984 266.325c0,12.6761 -2.00598,24.0077 -5.8472,34.1656 -3.81989,10.0085 -9.66709,18.5019 -17.4989,25.1814 -7.83184,6.65813 -17.6697,11.6517 -29.4921,15.3222 -11.8438,3.49979 -27.6782,5.33504 -47.5032,5.33504l-64.6607 0 0 -163.999 71.4895 0c18.5019,0 33.3333,2.15536 44.3449,6.65813 10.9902,4.33205 20.1665,10.35 27.4861,18.0111 7.34102,7.66112 12.6761,16.6667 16.3466,26.8246 3.49979,10.3286 5.33504,20.9987 5.33504,32.5011zm32.9919 -270.999c0,14.6607 -2.4968,27.8276 -7.34102,39.5006 -4.82288,11.5023 -11.9932,21.1694 -21.4895,29.0013 -9.34699,7.83184 -21.3402,13.8284 -36.0009,18.1605 -14.6607,4.18267 -33.6748,6.33803 -57.1703,6.33803l-75.9923 0 0 -180.004 92.659 0c17.8404,0 32.8425,1.83525 45.1771,5.67648 12.1639,3.67051 22.6633,9.32565 31.6475,16.6667 8.83483,7.31968 15.8344,16.3252 21.0201,27.3367 4.9936,10.8195 7.4904,23.3248 7.4904,37.3239z"
     id="path43" /></glyph>
   <glyph
   unicode=" "
   horiz-adv-x="225"
   id="glyph44" />
   <glyph
   unicode="P"
   horiz-adv-x="532"
   id="glyph45"><path
     d="M502.002 439.999c0,-35.6596 -5.5108,-66.9945 -16.6807,-94.3261 -10.9969,-27.5046 -27.1586,-50.5115 -48.4851,-69.1692 -21.1783,-18.8306 -47.1754,-33.0154 -77.9914,-42.8261 -30.8407,-9.83542 -67.1675,-14.679 -109.005,-14.679l-52.8345 0 0 -201.502c0,-3.33613 -1.0132,-6.15331 -3.16315,-8.82222 -2.17467,-2.49592 -5.68378,-4.67059 -10.5026,-6.35101 -4.84357,-1.65571 -11.3429,-2.81718 -19.4979,-3.83038 -8.00672,-0.988484 -18.5094,-1.48273 -31.0137,-1.48273 -12.3313,0 -22.661,0.494242 -30.989,1.48273 -8.32798,1.0132 -14.8273,2.34765 -19.6708,3.83038 -4.84357,1.68042 -8.32798,3.85509 -10.1567,6.35101 -2.00168,2.66891 -3.01488,5.65907 -3.01488,8.82222l0 568.502c0,15.3462 4.00336,26.8373 12.0101,34.4981 7.98201,7.66075 18.4847,11.5158 31.4832,11.5158l149.014 0c15.0002,0 29.3333,-0.518954 42.8261,-1.68042 13.4928,-1.16147 29.6792,-3.65739 48.6581,-7.33949 18.8553,-3.83038 38.0072,-10.6509 57.3568,-20.8323 19.3249,-9.98369 35.9808,-22.834 49.6466,-38.3285 13.6658,-15.4945 24.1684,-33.5096 31.3349,-54.3419 7.16651,-20.6593 10.6756,-43.8146 10.6756,-69.4904zm-134.014 -9.34118c0,22.1668 -3.97865,40.5031 -11.8124,54.8362 -7.83374,14.333 -17.5209,25.0086 -29.012,31.8292 -11.4911,6.84525 -23.5012,11.1699 -36.0055,12.9986 -12.6526,1.85341 -25.6512,2.66891 -39.1687,2.66891l-54.9844 0 0 -214.995 57.9993 0c20.6593,0 37.8342,2.84189 51.8213,8.32798 13.8388,5.5108 25.3299,13.3445 34.1768,23.3529 8.82222,9.83542 15.4945,21.8208 20.1651,35.6596 4.4976,13.8388 6.82054,28.9873 6.82054,45.322z"
     id="path44" /></glyph>
   <glyph
   unicode="a"
   horiz-adv-x="493"
   id="glyph46"><path
     d="M432.981 14.9876c0,-4.49629 -1.66079,-7.97991 -4.82035,-10.6534 -3.32159,-2.67347 -8.5065,-4.49629 -15.4737,-5.671 -7.00774,-1.17471 -17.3371,-1.66079 -31.1905,-1.66079 -14.6636,0 -25.317,0.486086 -32.0006,1.66079 -6.64317,1.17471 -11.504,2.99753 -14.1775,5.671 -2.8355,2.67347 -4.13173,6.15709 -4.13173,10.6534l0 34.6741c-18.0257,-19.1599 -38.3603,-33.9855 -61.3683,-44.6794 -22.8055,-10.6534 -48.325,-16.0003 -76.3155,-16.0003 -23.0081,0 -44.3553,3.03804 -63.6772,9.03309 -19.3219,5.99506 -36.0109,14.9876 -50.1479,26.8157 -14.1775,11.9901 -25.1954,26.6537 -33.0133,44.1528 -7.81788,17.7016 -11.6661,38.1982 -11.6661,61.5304 0,25.479 4.98238,47.4744 14.8256,66.1482 10.0053,18.8358 24.8309,34.188 44.5174,46.5022 19.646,12.1521 43.9908,21.1852 73.3179,27.0183 29.1651,5.83303 63.1912,8.83056 101.835,8.83056l42.492 0 0 26.3296c0,13.6509 -1.33674,25.641 -4.17224,35.9703 -2.63296,10.1673 -7.33179,18.8358 -13.6509,25.6815 -6.31912,6.84571 -14.6636,11.8281 -25.317,15.1902 -10.5319,3.15956 -23.6967,4.82035 -39.1704,4.82035 -20.4966,0 -38.8464,-2.34941 -54.8467,-6.84571 -16.1624,-4.49629 -30.3399,-9.6407 -42.654,-15.1497 -12.3547,-5.50897 -22.684,-10.6939 -30.988,-15.1902 -8.34447,-4.49629 -15.0282,-6.8052 -20.1726,-6.8052 -3.68615,0 -6.84571,1.1342 -9.51918,3.32159 -2.8355,2.34941 -5.14441,5.671 -6.84571,9.84324 -1.82282,4.17224 -3.15956,9.47867 -4.13173,15.6358 -1.01268,6.19759 -1.49876,13.0028 -1.49876,20.3346 0,10.1673 0.810143,18.1877 2.47094,24.0207 1.49876,5.83303 4.65832,10.9774 9.19512,15.8383 4.65832,4.65832 12.4762,9.84324 23.9802,15.4737 11.342,5.671 24.6689,11.0179 40.0211,15.8383 15.3117,5.02289 31.9601,8.99259 49.9858,12.0306 18.1472,3.15956 36.821,4.65832 55.9809,4.65832 34.188,0 63.3532,-3.36209 87.698,-10.0053 24.1423,-6.68368 44.1528,-17.013 59.667,-30.8259 15.6358,-13.8534 27.1398,-31.6766 34.3096,-53.5099 7.16977,-21.6713 10.6534,-47.6769 10.6534,-77.4902l0 -293.191zm-120.995 187.022l-46.8263 0c-19.808,0 -36.659,-1.49876 -50.6744,-4.33426 -13.975,-2.99753 -25.317,-7.33179 -34.1475,-13.3269 -8.83056,-5.83303 -15.1902,-12.8408 -19.1599,-21.1852 -4.17224,-8.34447 -6.19759,-17.8231 -6.19759,-28.4765 0,-18.3497 5.83303,-32.6893 17.3371,-43.0186 11.504,-10.4914 27.5044,-15.6763 48.001,-15.6763 17.175,0 33.0133,4.33426 47.5149,13.1648 14.5016,8.83056 29.1651,21.6713 44.1528,38.6843l0 74.1686z"
     id="path45" /></glyph>
   <glyph
   unicode="r"
   horiz-adv-x="355"
   id="glyph47"><path
     d="M342.002 411.836c0,-11.6661 -0.324057,-21.3473 -1.01268,-28.8411 -0.648114,-7.49382 -1.66079,-13.3269 -2.8355,-17.4991 -1.33674,-4.17224 -3.15956,-7.16977 -5.14441,-8.83056 -2.18739,-1.66079 -4.86086,-2.34941 -8.18244,-2.34941 -2.51144,0 -5.50897,0.526593 -8.83056,1.7013 -3.15956,1.1342 -6.84571,2.30891 -10.9774,3.64564 -4.01021,1.33674 -8.5065,2.51144 -13.3674,3.68615 -4.98238,1.1342 -10.3293,1.66079 -16.1624,1.66079 -6.8052,0 -13.6509,-1.33674 -20.4966,-4.17224 -6.84571,-2.8355 -13.975,-7.00774 -21.3068,-13.0028 -7.3723,-5.83303 -15.0282,-13.6509 -23.0081,-23.3321 -8.02042,-9.84324 -16.5269,-21.8334 -25.6815,-36.1729l0 -271.843c0,-3.15956 -1.01268,-5.99506 -2.99753,-8.5065 -1.82282,-2.47094 -5.18492,-4.49629 -10.0053,-6.15709 -4.65832,-1.49876 -10.9774,-2.8355 -18.6738,-3.64564 -7.81788,-0.85065 -17.8231,-1.17471 -29.8133,-1.17471 -11.9901,0 -21.9954,0.324057 -29.8538,1.17471 -7.65585,0.810143 -13.975,2.14688 -18.6333,3.64564 -4.86086,1.66079 -8.18244,3.68615 -10.0053,6.15709 -2.02536,2.51144 -2.99753,5.34694 -2.99753,8.5065l0 436.019c0,3.15956 0.810143,5.99506 2.47094,8.5065 1.49876,2.47094 4.49629,4.49629 8.66853,6.15709 4.33426,1.49876 9.68121,2.8355 16.3244,3.64564 6.68368,0.85065 15.1902,1.17471 25.1954,1.17471 10.4914,0 18.9979,-0.324057 25.8436,-1.17471 6.8052,-0.810143 12.1521,-2.14688 16.0003,-3.64564 3.64564,-1.66079 6.31912,-3.68615 7.97991,-6.15709 1.66079,-2.51144 2.51144,-5.34694 2.51144,-8.5065l0 -54.3201c11.342,16.3244 22.1574,29.6512 32.1627,40.1426 10.1673,10.4914 19.808,18.9979 28.8411,25.1549 9.15462,6.19759 18.3092,10.5319 27.5044,12.8408 8.99259,2.51144 18.1472,3.68615 27.3018,3.68615 4.17224,0 8.83056,-0.162029 13.6914,-0.688622 4.82035,-0.486086 10.0053,-1.33674 15.1497,-2.47094 5.18492,-1.17471 9.84324,-2.51144 13.6914,-3.84818 3.9697,-1.49876 6.8052,-2.99753 8.62802,-4.65832 1.7013,-1.66079 3.03804,-3.52412 3.84818,-5.34694 0.85065,-1.98485 1.49876,-4.65832 2.18739,-8.18244 0.648114,-3.32159 1.1342,-8.46599 1.49876,-15.3117 0.324057,-6.84571 0.486086,-16.0003 0.486086,-27.6664z"
     id="path46" /></glyph>
   <glyph
   unicode="o"
   horiz-adv-x="537"
   id="glyph48"><path
     d="M502.005 238.83c0,-36.983 -4.82035,-70.847 -14.6636,-101.511 -9.84324,-30.5019 -24.5068,-56.8315 -44.5174,-78.9889 -19.808,-22.1574 -44.6389,-39.1704 -74.6547,-51.3226 -30.0158,-11.9901 -65.014,-18.0257 -104.995,-18.0257 -38.8464,0 -72.5078,5.34694 -101.187,16.2029 -28.6386,10.6534 -52.4973,26.3296 -71.3331,46.8263 -18.8358,20.4966 -32.8108,45.6516 -42.0059,75.6674 -9.15462,29.8133 -13.6509,64.0013 -13.6509,102.483 0,37.0235 4.98238,71.009 14.8256,101.673 10.0053,30.8259 24.8309,57.1556 44.8414,79.151 19.8485,21.8334 44.6794,38.8464 74.4926,50.9985 29.6917,12.0306 64.6899,18.0257 104.67,18.0257 39.1704,0 72.9939,-5.34694 101.673,-15.8383 28.6791,-10.6534 52.3352,-26.1676 71.009,-46.6642 18.8358,-20.4966 32.6488,-45.6921 41.8034,-75.6674 9.19512,-29.8538 13.6914,-64.1633 13.6914,-103.01zm-126.018 -4.82035c0,21.5093 -1.66079,41.3173 -5.14441,59.343 -3.52412,18.1472 -9.19512,33.8235 -17.4991,47.1503 -8.18244,13.3269 -18.9979,23.8182 -32.5272,31.312 -13.6509,7.53433 -30.6639,11.18 -51.3226,11.18 -18.3092,0 -34.3096,-3.32159 -48.163,-10.0053 -13.6509,-6.64317 -24.9929,-16.4864 -33.8235,-29.3272 -8.83056,-12.8408 -15.5142,-28.3145 -19.8485,-46.3402 -4.49629,-18.1472 -6.64317,-38.6438 -6.64317,-61.8139 0,-21.5093 1.82282,-41.3578 5.30644,-59.343 3.68615,-18.1472 9.51918,-33.8235 17.4991,-47.1503 8.02042,-13.3674 18.8358,-23.6967 32.6893,-31.0285 13.6509,-7.33179 30.6639,-10.9774 50.9985,-10.9774 18.6738,0 34.8361,3.32159 48.6491,10.0053 13.6914,6.64317 24.9929,16.3244 33.8235,29.0031 8.87107,12.8003 15.3522,28.1525 19.6865,46.1376 4.17224,18.1877 6.31912,38.6843 6.31912,61.8544z"
     id="path47" /></glyph>
   <glyph
   unicode="+"
   horiz-adv-x="497"
   id="glyph49"><path
     d="M473.002 280.512c0,-9.19512 -0.486086,-16.851 -1.49876,-23.0081 -1.01268,-6.15709 -2.34941,-11.18 -4.33426,-14.9876 -1.98485,-3.68615 -4.33426,-6.35962 -6.84571,-8.02042 -2.67347,-1.66079 -5.30644,-2.51144 -8.30397,-2.51144l-152.023 0 0 -165.472c0,-3.15956 -0.810143,-6.19759 -2.51144,-8.5065 -1.49876,-2.51144 -4.33426,-4.65832 -8.14194,-6.35962 -4.01021,-1.82282 -9.19512,-3.15956 -15.6763,-4.13173 -6.48114,-1.01268 -14.6636,-1.49876 -24.3448,-1.49876 -9.80273,0 -17.9852,0.486086 -24.5068,1.49876 -6.48114,0.972172 -11.6661,2.30891 -15.6358,4.13173 -3.84818,1.7013 -6.68368,3.84818 -8.5065,6.35962 -1.82282,2.30891 -2.67347,5.34694 -2.67347,8.5065l0 165.472 -151.011 0c-2.99753,0 -5.671,0.85065 -8.14194,2.51144 -2.34941,1.66079 -4.49629,4.33426 -6.52165,8.02042 -1.98485,3.80767 -3.48361,8.83056 -4.65832,14.9876 -1.17471,6.15709 -1.66079,13.8129 -1.66079,23.0081 0,8.83056 0.486086,16.4864 1.49876,22.8055 1.01268,6.35962 2.30891,11.342 4.17224,15.1902 1.66079,3.64564 3.80767,6.31912 5.99506,7.97991 2.30891,1.66079 4.82035,2.51144 7.81788,2.51144l152.509 0 0 165.512c0,3.15956 0.85065,6.15709 2.67347,8.99259 1.82282,2.8355 4.65832,4.98238 8.5065,6.84571 3.9697,1.82282 9.15462,3.15956 15.6358,4.13173 6.52165,1.01268 14.7041,1.49876 24.5068,1.49876 9.68121,0 17.8637,-0.486086 24.3448,-1.49876 6.48114,-0.972172 11.6661,-2.30891 15.6763,-4.13173 3.80767,-1.86333 6.64317,-4.01021 8.14194,-6.84571 1.7013,-2.8355 2.51144,-5.83303 2.51144,-8.99259l0 -165.512 153.522 0c2.47094,0 4.98238,-0.85065 7.49382,-2.51144 2.47094,-1.66079 4.65832,-4.33426 6.31912,-7.97991 1.82282,-3.84818 3.15956,-8.83056 4.17224,-15.1902 1.01268,-6.31912 1.49876,-13.975 1.49876,-22.8055z"
     id="path48" /></glyph>
   <glyph
   unicode="M"
   horiz-adv-x="873"
   id="glyph50"><path
     d="M805.013 17.5119c0,-3.18642 -0.856852,-6.1854 -2.67766,-8.83629 -1.84759,-2.517 -5.16789,-4.68591 -9.82702,-6.34606 -4.68591,-1.49949 -11.0052,-2.83832 -18.8507,-3.82906 -7.81878,-0.990735 -17.8332,-1.49949 -29.8292,-1.49949 -11.8353,0 -21.6623,0.508756 -29.5078,1.49949 -7.81878,0.990735 -13.9774,2.32957 -18.6633,3.82906 -4.49847,1.66015 -7.81878,3.82906 -9.66636,6.34606 -1.98147,2.65089 -2.99898,5.64987 -2.99898,8.83629l0 514.486 -0.990735 0 -182.51 -514.004c-1.31205,-4.15038 -3.3203,-7.65812 -6.31928,-10.4964 -2.99898,-2.83832 -6.82804,-5.00723 -11.9959,-6.66738 -5.00723,-1.49949 -11.514,-2.65089 -19.1721,-3.15964 -7.84555,-0.508756 -17.3245,-0.669416 -28.3297,-0.669416 -11.1659,0 -20.5109,0.32132 -28.3297,1.17817 -7.84555,0.830076 -14.3523,2.14213 -19.3327,3.98972 -5.00723,1.82081 -9.02372,3.98972 -12.0227,6.50672 -2.81155,2.65089 -4.81979,5.83731 -5.81053,9.31827l-176.19 514.004 -0.990735 0 0 -514.486c0,-3.18642 -0.830076,-6.1854 -2.67766,-8.83629 -1.82081,-2.517 -5.14111,-4.68591 -9.98768,-6.34606 -5.00723,-1.49949 -11.3265,-2.83832 -19.0114,-3.82906 -7.65812,-0.990735 -17.4851,-1.49949 -29.4811,-1.49949 -11.8353,0 -21.6623,0.508756 -29.5078,1.49949 -7.81878,0.990735 -14.1648,2.32957 -18.824,3.82906 -4.68591,1.66015 -8.00621,3.82906 -9.8538,6.34606 -1.82081,2.65089 -2.65089,5.64987 -2.65089,8.83629l0 563.166c0,16.6551 4.33781,29.3204 13.1741,38.1567 8.80951,8.83629 20.4841,13.1741 35.3184,13.1741l83.9983 0c14.9949,0 28.0084,-1.17817 38.6655,-3.6684 10.8445,-2.517 20.1628,-6.50672 28.0084,-12.1834 7.65812,-5.64987 14.3255,-13.1473 19.4934,-22.4924 5.16789,-9.31827 9.82702,-20.8322 13.6829,-34.4883l136.159 -376.506 2.00825 0 140.979 375.676c4.17715,13.6561 8.83629,25.1433 13.8435,34.649 5.16789,9.34504 11.0052,17.0032 17.6726,22.8405 6.66738,5.83731 14.6468,9.98768 23.6705,12.5047 9.15761,2.49023 19.8147,3.6684 31.8106,3.6684l86.6759 0c8.83629,0 16.3337,-1.17817 22.6798,-3.50774 6.31928,-2.16891 11.6478,-5.48921 15.6643,-9.98768 4.15038,-4.33781 7.14936,-9.69314 9.31827,-16.0124 2.16891,-6.34606 3.18642,-13.6561 3.18642,-21.823l0 -563.166z"
     id="path49" /></glyph>
   <glyph
   unicode="l"
   horiz-adv-x="245"
   id="glyph51"><path
     d="M184.996 16.4864c0,-3.15956 -1.01268,-5.99506 -2.99753,-8.5065 -1.82282,-2.47094 -5.18492,-4.49629 -10.0053,-6.15709 -4.65832,-1.49876 -10.9774,-2.8355 -18.6738,-3.64564 -7.81788,-0.85065 -17.8231,-1.17471 -29.8133,-1.17471 -11.9901,0 -21.9954,0.324057 -29.8538,1.17471 -7.65585,0.810143 -13.975,2.14688 -18.6333,3.64564 -4.86086,1.66079 -8.18244,3.68615 -10.0053,6.15709 -2.02536,2.51144 -2.99753,5.34694 -2.99753,8.5065l0 642.524c0,3.32159 0.972172,6.15709 2.99753,8.83056 1.82282,2.51144 5.14441,4.82035 10.0053,6.48114 4.65832,1.86333 10.9774,3.15956 18.6333,4.17224 7.85839,1.01268 17.8637,1.49876 29.8538,1.49876 11.9901,0 21.9954,-0.486086 29.8133,-1.49876 7.69636,-1.01268 14.0155,-2.30891 18.6738,-4.17224 4.82035,-1.66079 8.18244,-3.9697 10.0053,-6.48114 1.98485,-2.67347 2.99753,-5.50897 2.99753,-8.83056l0 -642.524z"
     id="path50" /></glyph>
   <glyph
   unicode="["
   horiz-adv-x="324"
   id="glyph52"><path
     d="M282.983 -120.995c0,-16.3244 -1.49876,-27.6664 -4.33426,-34.188 -2.99753,-6.48114 -7.12926,-9.80273 -12.8003,-9.80273l-151.173 0c-5.50897,0 -10.6939,0.810143 -15.1902,2.47094 -4.49629,1.49876 -8.46599,4.01021 -11.6661,7.33179 -3.32159,3.20006 -5.99506,7.53433 -7.81788,12.6787 -1.98485,5.18492 -2.99753,11.342 -2.99753,18.5118l0 774.497c0,6.84571 1.01268,12.8408 2.99753,17.9852 1.82282,5.18492 4.49629,9.51918 7.81788,13.0028 3.20006,3.32159 7.16977,5.83303 11.6661,7.33179 4.49629,1.49876 9.68121,2.18739 15.1902,2.18739l151.173 0c2.63296,0 5.14441,-0.688622 7.33179,-2.18739 2.30891,-1.49876 4.17224,-4.01021 5.671,-7.33179 1.49876,-3.48361 2.47094,-7.97991 3.15956,-13.4889 0.648114,-5.50897 0.972172,-12.5167 0.972172,-21.0232 0,-16.6484 -1.49876,-28.1525 -4.33426,-34.4716 -2.99753,-6.35962 -7.12926,-9.51918 -12.8003,-9.51918l-73.8445 0 0 -679.994 73.8445 0c2.63296,0 5.14441,-0.648114 7.33179,-1.98485 2.30891,-1.33674 4.17224,-3.68615 5.671,-7.33179 1.49876,-3.52412 2.47094,-8.18244 3.15956,-13.6914 0.648114,-5.46847 0.972172,-12.4762 0.972172,-20.9827z"
     id="path51" /></glyph>
   <glyph
   unicode="รฑ"
   horiz-adv-x="536"
   id="glyph53"><path
     d="M477.984 16.4864c0,-3.15956 -0.972172,-5.99506 -2.99753,-8.5065 -1.82282,-2.47094 -5.14441,-4.49629 -9.6407,-6.15709 -4.69883,-1.49876 -11.0179,-2.8355 -18.9979,-3.64564 -8.02042,-0.85065 -17.8637,-1.17471 -29.5297,-1.17471 -12.1521,0 -22.1574,0.324057 -30.1373,1.17471 -8.02042,0.810143 -14.3395,2.14688 -18.9979,3.64564 -4.5368,1.66079 -7.85839,3.68615 -9.68121,6.15709 -1.98485,2.51144 -2.99753,5.34694 -2.99753,8.5065l0 248.511c0,21.1852 -1.49876,37.8337 -4.65832,49.8238 -2.99753,12.1927 -7.49382,22.522 -13.3269,31.0285 -5.83303,8.66853 -13.5294,15.3117 -22.684,20.1321 -9.31664,4.69883 -20.0105,7.00774 -32.3247,7.00774 -15.6763,0 -31.3525,-5.671 -47.3529,-17.175 -15.8383,-11.3015 -32.4867,-27.9904 -49.6618,-49.6618l0 -289.667c0,-3.15956 -1.01268,-5.99506 -2.99753,-8.5065 -1.82282,-2.47094 -5.18492,-4.49629 -10.0053,-6.15709 -4.65832,-1.49876 -10.9774,-2.8355 -18.6738,-3.64564 -7.81788,-0.85065 -17.8231,-1.17471 -29.8133,-1.17471 -11.9901,0 -21.9954,0.324057 -29.8538,1.17471 -7.65585,0.810143 -13.975,2.14688 -18.6333,3.64564 -4.86086,1.66079 -8.18244,3.68615 -10.0053,6.15709 -2.02536,2.51144 -2.99753,5.34694 -2.99753,8.5065l0 436.019c0,3.15956 0.810143,5.99506 2.47094,8.5065 1.49876,2.47094 4.49629,4.49629 8.66853,6.15709 4.33426,1.49876 9.68121,2.8355 16.3244,3.64564 6.68368,0.85065 15.1902,1.17471 25.1954,1.17471 10.4914,0 18.9979,-0.324057 25.8436,-1.17471 6.8052,-0.810143 12.1521,-2.14688 16.0003,-3.64564 3.64564,-1.66079 6.31912,-3.68615 7.97991,-6.15709 1.66079,-2.51144 2.51144,-5.34694 2.51144,-8.5065l0 -50.3504c23.9802,26.0056 48.4871,45.3275 73.48,58.3303 24.8309,13.0028 50.8365,19.5244 77.8547,19.5244 29.6512,0 54.6441,-4.86086 74.9787,-14.6636 20.3346,-9.68121 36.659,-23.0081 49.3377,-39.859 12.5167,-16.6484 21.5093,-36.3349 27.0183,-58.8164 5.46847,-22.522 8.30397,-49.4997 8.30397,-81.0143l0 -269.17zm-34.9982 636.003c0,-39.1704 -9.31664,-69.1457 -27.9904,-90.1689 -18.8358,-20.8207 -44.6794,-31.312 -77.8142,-31.312 -12.8408,0 -24.0207,1.33674 -33.6614,3.80767 -9.84324,2.67347 -18.6738,6.03557 -26.5322,10.3698 -7.65585,4.13173 -14.8256,8.62802 -21.1447,13.3269 -6.35962,4.65832 -12.5167,9.15462 -18.3497,13.1648 -5.83303,3.9697 -11.504,7.49382 -17.3371,10.1673 -5.671,2.8355 -11.6661,4.17224 -18.1472,4.17224 -10.8559,0 -18.5118,-3.84818 -23.1701,-11.504 -4.49629,-7.49382 -6.84571,-17.4991 -6.84571,-29.8538 0,-2.99753 -0.486086,-5.30644 -1.66079,-7.16977 -1.17471,-1.66079 -3.15956,-3.15956 -5.83303,-3.9697 -2.8355,-1.01268 -6.68368,-1.7013 -11.6661,-2.02536 -5.18492,-0.324057 -11.504,-0.486086 -19.3219,-0.486086 -6.84571,0 -12.5167,0.162029 -17.3371,0.648114 -4.65832,0.526593 -8.34447,1.49876 -11.18,2.99753 -2.67347,1.49876 -4.82035,3.52412 -5.99506,5.99506 -1.33674,2.67347 -1.98485,6.03557 -1.98485,10.3698 0,37.4691 9.15462,67.1609 27.3018,88.6296 18.1877,21.5093 44.1933,32.3652 78.0168,32.3652 18.6738,0 34.3501,-2.8355 47.1503,-8.5065 12.8408,-5.671 24.1828,-11.9901 34.188,-18.9979 10.0053,-7.00774 19.1599,-13.3269 27.5044,-18.9979 8.5065,-5.671 17.3371,-8.5065 26.4917,-8.5065 9.68121,0 17.3371,3.48361 22.4815,10.4914 5.18492,7.00774 7.85839,17.175 7.85839,30.8259 0,5.50897 2.51144,9.19512 7.33179,11.0179 4.82035,1.82282 14.6636,2.67347 29.6512,2.67347 14.6636,0 24.6689,-1.17471 30.0158,-3.68615 5.34694,-2.30891 7.97991,-7.65585 7.97991,-15.8383z"
     id="path52" /></glyph>
   <glyph
   unicode="G"
   horiz-adv-x="637"
   id="glyph54"><path
     d="M576.01 533.677c0,-9.33636 -0.350371,-17.5185 -1.17477,-24.3405 -0.845012,-6.84254 -1.99918,-12.3454 -3.50371,-16.3438 -1.50453,-4.16323 -3.17395,-6.98681 -5.338,-8.49134 -2.16406,-1.66941 -4.65787,-2.49382 -7.50206,-2.49382 -4.32811,0 -11.15,2.98846 -20.4864,8.8211 -9.50124,5.83265 -22.0115,12.3454 -37.6752,19.1674 -15.6636,6.84254 -34.1715,13.3347 -55.8326,19.1674 -21.6612,5.83265 -46.8261,8.84171 -75.4946,8.84171 -30.5029,0 -58.1616,-5.338 -82.8318,-15.8285 -24.8351,-10.676 -46.0016,-25.6801 -63.4996,-45.0124 -17.4979,-19.4971 -30.9975,-42.6628 -40.4988,-69.9918 -9.50124,-27.1641 -14.1797,-57.1723 -14.1797,-90.169 0,-36.1707 4.84336,-68.0132 14.3446,-95.6719 9.66612,-27.4938 23.1657,-50.4946 40.3339,-69.1674 17.3331,-18.4872 38.1698,-32.5021 62.3248,-42.0033 24.3405,-9.50124 51.1748,-14.1591 80.338,-14.1591 14.324,0 28.5037,1.66941 42.4979,4.82275 14.1591,3.33883 27.1641,8.34707 39.1591,14.8392l0 147.341 -119.497 0c-5.83265,0 -10.3256,3.66859 -13.6645,10.9852 -3.15334,7.33718 -4.82275,19.6826 -4.82275,37.3454 0,9.0066 0.329761,16.6735 1.15416,22.8359 0.845012,6.16241 2.16406,11.1707 3.66859,14.8186 1.66941,3.83347 3.66859,6.51278 5.83265,8.34707 2.32894,1.8343 5.00824,2.6587 7.83182,2.6587l213.335 0c5.17312,0 9.831,-0.824402 13.8293,-2.6587 4.18384,-1.8343 7.66694,-4.5136 10.8409,-8.16158 3.00907,-3.50371 5.50289,-7.85243 7.00742,-12.8401 1.66941,-5.17312 2.49382,-11.0058 2.49382,-17.4979l0 -251.999c0,-9.831 -1.66941,-18.343 -5.17312,-25.6801 -3.31822,-7.31657 -10.3256,-13.1492 -21.0016,-17.3331 -10.4905,-4.32811 -23.6603,-8.65622 -39.324,-13.3347 -15.6636,-4.49299 -31.8425,-8.49134 -48.6603,-11.6653 -16.6735,-3.31822 -33.6768,-5.83265 -50.845,-7.31657 -17.0033,-1.66941 -34.1715,-2.51443 -51.5045,-2.51443 -50.4946,0 -95.6513,7.33718 -135.655,21.8467 -39.8392,14.4889 -73.6603,35.4905 -101.34,62.9843 -27.6587,27.5144 -48.8252,61.0058 -63.4996,100.68 -14.6538,39.6538 -21.9909,84.5012 -21.9909,134.666 0,51.8343 7.83182,98.3306 23.4955,139.489 15.4988,41.3438 37.6752,76.3397 66.3232,105.173 28.6686,28.8335 63.1698,50.8244 103.833,66.1583 40.4988,15.3339 85.676,23.0008 135.346,23.0008 27.4938,0 52.3289,-1.8343 74.8351,-5.66777 22.3207,-3.83347 42.0033,-8.32646 58.8211,-13.8293 16.6735,-5.338 30.6678,-11.1707 41.6735,-17.3331 11.1707,-6.32729 18.8376,-11.6653 23.1657,-16.3232 4.49299,-4.5136 7.66694,-11.0058 9.50124,-19.3322 1.99918,-8.18219 3.00907,-20.507 3.00907,-36.8302z"
     id="path53" /></glyph>
   <glyph
   unicode="z"
   horiz-adv-x="397"
   id="glyph55"><path
     d="M366.995 50.5124c0,-9.51918 -0.486086,-17.4991 -1.49876,-24.3448 -1.01268,-6.68368 -2.34941,-11.9901 -3.84818,-15.8383 -1.66079,-4.01021 -3.80767,-6.64317 -6.31912,-8.18244 -2.67347,-1.49876 -5.671,-2.14688 -8.83056,-2.14688l-285.17 0c-8.66853,0 -15.5142,2.99753 -20.1726,8.83056 -4.82035,5.83303 -7.16977,15.5142 -7.16977,28.8411l0 22.6435c0,5.83303 0.162029,11.18 0.688622,15.8383 0.486086,4.69883 1.49876,9.35715 2.99753,13.6914 1.49876,4.49629 3.48361,8.99259 5.83303,13.4889 2.51144,4.65832 5.671,9.68121 9.68121,15.1497l163.811 251.509 -155.345 0c-6.15709,0 -11.1395,4.01021 -14.9876,11.8281 -3.84818,7.85839 -5.671,20.3346 -5.671,37.6716 0,9.51918 0.324057,17.3371 1.17471,23.8587 0.85065,6.31912 2.14688,11.3015 3.64564,15.1497 1.7013,3.68615 3.84818,6.31912 6.52165,7.97991 2.51144,1.7013 5.671,2.51144 9.15462,2.51144l267.023 0c4.65832,0 8.5065,-0.486086 11.8281,-1.49876 3.15956,-1.01268 5.99506,-2.67347 7.97991,-5.30644 2.18739,-2.67347 3.84818,-6.19759 5.02289,-10.8559 1.17471,-4.49629 1.66079,-10.1673 1.66079,-17.175l0 -23.9802c0,-6.52165 -0.324057,-12.3547 -1.01268,-17.3371 -0.648114,-5.02289 -1.66079,-9.84324 -2.99753,-14.5016 -1.17471,-4.49629 -3.15956,-9.15462 -5.50897,-13.6509 -2.47094,-4.5368 -5.30644,-9.51918 -8.66853,-14.7041l-162.798 -250.982 172.479 0c2.8355,0 5.671,-0.648114 8.34447,-1.98485 2.47094,-1.33674 4.65832,-3.68615 6.48114,-7.33179 1.82282,-3.52412 3.15956,-8.5065 4.17224,-15.0282 1.01268,-6.31912 1.49876,-14.3395 1.49876,-24.1423z"
     id="path54" /></glyph>
   <glyph
   unicode="i"
   horiz-adv-x="245"
   id="glyph56"><path
     d="M184.996 16.4864c0,-3.15956 -1.01268,-5.99506 -2.99753,-8.5065 -1.82282,-2.47094 -5.18492,-4.49629 -10.0053,-6.15709 -4.65832,-1.49876 -10.9774,-2.8355 -18.6738,-3.64564 -7.81788,-0.85065 -17.8231,-1.17471 -29.8133,-1.17471 -11.9901,0 -21.9954,0.324057 -29.8538,1.17471 -7.65585,0.810143 -13.975,2.14688 -18.6333,3.64564 -4.86086,1.66079 -8.18244,3.68615 -10.0053,6.15709 -2.02536,2.51144 -2.99753,5.34694 -2.99753,8.5065l0 435.006c0,3.15956 0.972172,5.99506 2.99753,8.5065 1.82282,2.51144 5.14441,4.65832 10.0053,6.31912 4.65832,1.86333 10.9774,3.20006 18.6333,4.17224 7.85839,1.01268 17.8637,1.49876 29.8538,1.49876 11.9901,0 21.9954,-0.486086 29.8133,-1.49876 7.69636,-0.972172 14.0155,-2.30891 18.6738,-4.17224 4.82035,-1.66079 8.18244,-3.80767 10.0053,-6.31912 1.98485,-2.51144 2.99753,-5.34694 2.99753,-8.5065l0 -435.006zm10.0053 584.032c0,-24.8714 -4.98238,-41.8439 -15.1497,-51.3631 -10.1673,-9.47867 -28.8411,-14.137 -56.3454,-14.137 -27.6664,0 -46.5022,4.49629 -56.0214,13.6509 -9.6407,9.15462 -14.5016,25.6815 -14.5016,49.3377 0,24.8309 5.02289,42.0059 15.0282,51.6466 9.80273,9.51918 28.6386,14.3395 56.5075,14.3395 27.3018,0 45.9756,-4.65832 55.8189,-13.975 9.84324,-9.19512 14.6636,-25.6815 14.6636,-49.4997z"
     id="path55" /></glyph>
  </font><font
     id="FontID1"
     horiz-adv-x="722"
     font-variant="normal"
     style="fill-rule:nonzero"
     font-style="normal"
     font-weight="700"
     horiz-origin-x="0"
     horiz-origin-y="0"
     vert-origin-x="512"
     vert-origin-y="768"
     vert-adv-y="1024">
	<font-face
   font-family="Arial"
   id="font-face56">
	</font-face>
   <missing-glyph
   id="missing-glyph56"><path
     d="M0 0z"
     id="path56" /></missing-glyph>
   <glyph
   unicode="3"
   horiz-adv-x="556"
   id="glyph57"><path
     d="M37.9957 189.817l132.985 16.2029c4.17224,-34.026 15.5142,-60.0316 34.026,-78.0168 18.5118,-17.9852 40.8312,-27.0183 66.9988,-27.0183 28.1525,0 51.8086,10.8559 71.1711,32.3652 19.1599,21.4688 28.8411,50.4719 28.8411,87.1309 0,34.5121 -9.19512,62.0164 -27.6664,82.189 -18.5118,20.1726 -41.0337,30.3399 -67.6874,30.3399 -17.4991,0 -38.3198,-3.52412 -62.6646,-10.3293l15.1497 111.314c37.0235,-1.01268 65.176,7.16977 84.7004,24.3448 19.4839,17.013 29.1651,39.8185 29.1651,68.3356 0,24.1423 -7.16977,43.3426 -21.5093,57.8442 -14.3395,14.299 -33.3374,21.4688 -57.1556,21.4688 -23.5347,0 -43.5047,-8.14194 -60.0316,-24.5068 -16.6484,-16.3244 -26.6537,-40.1426 -30.2993,-71.4951l-126.018 21.5093c8.83056,43.6667 21.9954,78.5029 39.8185,104.67 17.6611,26.0056 42.5325,46.5022 74.1686,61.4899 31.6766,14.8256 67.3634,22.3599 106.696,22.3599 67.3229,0 121.319,-21.5093 161.988,-64.6899 33.4994,-35.3222 50.3099,-75.3433 50.3099,-119.82 0,-62.9886 -34.3096,-113.501 -103.131,-151.011 40.9932,-8.83056 73.642,-28.4765 98.3109,-59.1404 24.5068,-30.7044 36.821,-67.6874 36.821,-111.03 0,-62.8266 -22.9676,-116.499 -68.8216,-160.813 -45.8136,-44.3553 -102.848,-66.5127 -171.143,-66.5127 -64.6899,0 -118.362,18.6738 -160.854,56.1834 -42.654,37.3071 -67.3229,86.1587 -74.1686,146.636z"
     id="path57" /></glyph>
   <glyph
   unicode="0"
   horiz-adv-x="556"
   id="glyph58"><path
     d="M274.498 720.001c69.3263,0 123.511,-24.8384 162.669,-74.5151 46.5011,-58.6651 69.8367,-156.147 69.8367,-292.163 0,-135.817 -23.5057,-233.498 -70.3471,-292.815 -38.8171,-48.9963 -92.832,-73.4944 -162.158,-73.4944 -69.6666,0 -125.836,26.8232 -168.51,80.4979 -42.6449,53.6464 -63.9957,149.484 -63.9957,287.144 0,135.165 23.5057,232.505 70.3471,291.851 38.8171,48.9963 92.832,73.4944 162.158,73.4944zm0 -114.013c-16.3321,0 -30.9913,-5.33061 -43.6656,-15.9918 -12.8445,-10.4911 -22.8252,-29.4885 -29.8287,-56.9922 -9.32857,-35.4996 -14.007,-95.4973 -14.007,-179.681 0,-84.3257 4.16808,-142.169 12.5043,-173.67 8.33617,-31.4733 18.8273,-52.4838 31.5016,-62.9749 12.6744,-10.5195 27.1634,-15.6799 43.4955,-15.6799 16.3321,0 30.9913,5.33061 43.8358,15.9918 12.6744,10.5195 22.6551,29.5168 29.6586,57.0205 9.32857,35.1594 14.007,94.987 14.007,179.313 0,84.184 -4.16808,141.998 -12.5043,173.5 -8.33617,31.5016 -18.8273,52.6823 -31.5016,63.1734 -12.6744,10.6612 -27.1634,15.9918 -43.4955,15.9918z"
     id="path58" /></glyph>
   <glyph
   unicode="8"
   horiz-adv-x="556"
   id="glyph59"><path
     d="M160.327 387.167c-35.3222,14.9876 -61.1658,35.4843 -77.1661,61.8139 -16.1624,26.1676 -24.1423,55.0087 -24.1423,86.1992 0,53.4694 18.6333,97.6627 55.8189,132.499 37.1451,34.8361 90.1689,52.3352 158.667,52.3352 68.0115,0 120.671,-17.4991 158.18,-52.3352 37.4691,-34.8361 56.3049,-79.0294 56.3049,-132.499 0,-33.1754 -8.66853,-62.6646 -26.0056,-88.6702 -17.1345,-25.8436 -41.4793,-45.6921 -72.8319,-59.343 39.859,-16.0003 69.9964,-39.3324 90.8575,-69.9964 20.6586,-30.8259 30.988,-66.1887 30.988,-106.331 0,-66.3507 -20.9827,-120.185 -63.1506,-161.664 -42.0059,-41.5198 -98.0273,-62.1785 -168.024,-62.1785 -64.9735,0 -119.01,17.175 -162.312,51.4846 -50.9985,40.3451 -76.518,96.0019 -76.518,166.525 0,38.8464 9.68121,74.4926 28.8411,106.979 19.1599,32.5272 49.3377,57.5202 90.493,75.1813zm28.6791 138.008c0,-27.3423 7.65585,-48.8516 23.0081,-64.1633 15.4737,-15.3522 35.9703,-23.0081 61.4899,-23.0081 26.0056,0 46.6642,7.81788 62.1785,23.3321 15.4737,15.5142 23.3321,36.983 23.3321,64.3254 0,25.8436 -7.69636,46.5022 -23.0081,62.0164 -15.5142,15.4737 -35.8488,23.3321 -61.0038,23.3321 -26.3296,0 -47.1503,-7.85839 -62.6646,-23.4941 -15.5142,-15.6763 -23.3321,-36.4969 -23.3321,-62.3405zm-13.0028 -307.004c0,-38.1577 9.68121,-67.8495 29.0031,-89.1562 19.3219,-21.3473 43.3426,-32.0006 72.1432,-32.0006 28.355,0 51.6871,10.3293 70.1989,30.8259 18.4713,20.4966 27.6664,50.1479 27.6664,88.8322 0,33.8235 -9.35715,61.0038 -28.193,81.5004 -18.8358,20.4966 -42.654,30.8259 -71.4951,30.8259 -33.4994,0 -58.3303,-11.6661 -74.8167,-34.9982 -16.3244,-23.3321 -24.5068,-48.4871 -24.5068,-75.8294z"
     id="path59" /></glyph>
   <glyph
   unicode="5"
   horiz-adv-x="556"
   id="glyph60"><path
     d="M43.9908 183.821l136.995 14.1775c4.01021,-30.988 15.5142,-55.6568 34.6741,-73.8445 19.3219,-18.1472 41.5198,-27.1398 66.6748,-27.1398 28.6791,0 52.9834,11.6661 72.8319,35.1602 19.8485,23.4941 29.8133,58.8164 29.8133,106.007 0,44.3148 -9.80273,77.4902 -29.6512,99.6476 -19.646,22.1574 -45.3275,33.1754 -77.0041,33.1754 -39.4945,0 -74.9787,-17.3371 -106.331,-52.0112l-110.99 16.0003 69.9964 372.018 362.985 0 0 -128.003 -258.8 0 -21.6713 -121.846c30.5019,15.1497 61.8139,22.846 93.8146,22.846 61.0038,0 112.691,-22.1574 155.021,-66.6748 42.492,-44.3148 63.6367,-101.997 63.6367,-173.006 0,-59.1809 -17.1345,-111.84 -51.3226,-158.342 -46.6642,-63.3127 -111.314,-94.9893 -193.989,-94.9893 -66.1887,0 -120.185,17.8231 -161.826,53.3479 -41.8439,35.6463 -66.6748,83.3232 -74.8572,143.476z"
     id="path60" /></glyph>
   <glyph
   unicode="2"
   horiz-adv-x="556"
   id="glyph61"><path
     d="M506.011 126.999l0 -126.999 -481.003 0c5.16049,48.3441 20.8121,93.9946 46.813,137.178 26.0009,43.1553 77.5207,100.488 154.191,171.997 61.8124,57.6443 99.6654,96.83 113.644,117.33 18.8556,28.326 28.3543,56.34 28.3543,84.1556 0,30.6794 -8.16604,54.1851 -24.6683,70.659 -16.3321,16.5022 -39.0155,24.6683 -67.8519,24.6683 -28.6662,0 -51.3213,-8.64807 -68.3339,-26.0009 -16.8141,-17.1544 -26.4829,-45.8206 -29.1482,-85.9986l-137.008 13.6668c8.16604,75.6777 33.6566,130.005 76.6701,163.009 42.9851,32.8343 96.6599,49.3365 161.166,49.3365 70.659,0 126.177,-19.1675 166.667,-57.3324 40.3198,-38.1649 60.5081,-85.6584 60.5081,-142.509 0,-32.3239 -5.84099,-63.0033 -17.3528,-92.3217 -11.4835,-29.1766 -29.8287,-59.6575 -54.979,-91.6695 -16.5022,-21.3224 -46.6712,-51.8317 -90.025,-91.6695 -43.4955,-39.8378 -70.9992,-66.179 -82.4827,-79.3354 -11.682,-12.9863 -21.0105,-25.8308 -28.1842,-38.1649l273.024 0z"
     id="path61" /></glyph>
   <glyph
   unicode="7"
   horiz-adv-x="556"
   id="glyph62"><path
     d="M42.0059 579.981l0 127.03 470.004 0 0 -100.012c-38.8464,-38.1577 -78.1788,-92.8424 -118.362,-164.175 -39.9806,-71.3331 -70.6445,-147.162 -91.6677,-227.488 -20.9827,-80.3257 -31.312,-152.185 -30.988,-215.336l-132.013 0c2.34941,99.1615 22.684,200.348 61.2063,303.52 38.6438,102.969 89.9664,195.325 154.494,276.461l-312.675 0z"
     id="path62" /></glyph>
   <glyph
   unicode="4"
   horiz-adv-x="556"
   id="glyph63"><path
     d="M311.014 0l0 144.003 -292.016 0 0 119.496 309.677 455.503 115.324 0 0 -455.017 88.9942 0 0 -119.982 -88.9942 0 0 -144.003 -132.985 0zm0 263.985l0 244.501 -163.689 -244.501 163.689 0z"
     id="path63" /></glyph>
   <glyph
   unicode="1"
   horiz-adv-x="556"
   id="glyph64"><path
     d="M392.991 0l-136.98 0 0 518.345c-50.017,-47.0115 -109.022,-81.8589 -177.016,-104.344l0 124.986c35.8399,11.682 74.6853,33.8551 116.508,66.6894 41.9927,32.6642 70.659,70.8291 86.3389,114.325l111.149 0 0 -720.001z"
     id="path64" /></glyph>
   <glyph
   unicode=" "
   horiz-adv-x="277"
   id="glyph65" />
   <glyph
   unicode="9"
   horiz-adv-x="556"
   id="glyph66"><path
     d="M47.0115 166.326l132.982 14.6875c3.17568,-27.1918 11.682,-47.3517 25.1786,-60.338 13.4967,-13.1848 31.5016,-19.6779 53.6747,-19.6779 28.1558,0 51.9735,13.1564 71.6514,39.3274 19.6779,26.171 32.1821,80.4979 37.6829,162.669 -34.5072,-40.0079 -77.5207,-59.9977 -129.352,-59.9977 -56.1699,0 -104.826,21.6627 -145.656,65.1582 -40.8302,43.5239 -61.1603,100.006 -61.1603,169.672 0,72.6721 21.4926,131.167 64.6478,175.513 43.1836,44.4879 98.1626,66.661 164.852,66.661 72.502,0 132.159,-28.1558 178.661,-84.3257 46.5011,-56.34 69.8367,-148.832 69.8367,-277.844 0,-130.997 -24.1862,-225.672 -72.502,-283.657 -48.3441,-58.1831 -111.347,-87.1612 -189.01,-87.1612 -55.8296,0 -100.828,14.9994 -135.335,44.9983 -34.3371,29.8287 -56.4818,74.6569 -66.1506,134.314zm308.977 300.329c0,44.176 -10.1508,78.5131 -30.4809,102.841 -20.1883,24.328 -43.6656,36.492 -70.3471,36.492 -25.3204,0 -46.331,-9.98072 -63.0033,-29.9989 -16.8141,-19.9898 -25.1503,-52.654 -25.1503,-97.9925 0,-46.1608 9.15844,-79.9875 27.3336,-101.65 18.1468,-21.5209 40.8302,-32.3523 68.1638,-32.3523 26.3412,0 48.4859,10.3493 66.4909,31.1614 18.005,20.8404 26.9933,51.3497 26.9933,91.4994z"
     id="path65" /></glyph>
   <glyph
   unicode="6"
   horiz-adv-x="556"
   id="glyph67"><path
     d="M506.987 540.649l-132.985 -14.6636c-3.15956,27.3423 -11.6661,47.5149 -25.317,60.5177 -13.6914,13.0028 -31.3525,19.4839 -53.1859,19.4839 -29.0031,0 -53.5099,-13.0028 -73.48,-38.9679 -20.0105,-26.0056 -32.5272,-80.2042 -37.6716,-162.515 34.1475,40.3451 76.4775,60.4772 127.314,60.4772 57.1556,0 106.331,-21.8334 147.162,-65.5001 40.8312,-43.8287 61.1658,-100.134 61.1658,-169.32 0,-73.3179 -21.5093,-132.337 -64.4874,-176.652 -43.0186,-44.3553 -98.1893,-66.5127 -165.512,-66.5127 -72.1432,0 -131.648,28.1525 -178.15,84.4979 -46.5022,56.3454 -69.8343,148.499 -69.8343,276.826 0,131.527 24.3448,226.354 72.8319,284.522 48.4871,58.1683 111.476,87.1714 189.006,87.1714 54.3201,0 99.3235,-15.3522 134.97,-46.0161 35.6868,-30.5019 58.3708,-74.9787 68.1735,-133.35zm-310.973 -299.631c0,-44.6794 10.3293,-79.1915 30.8259,-103.536 20.4966,-24.3043 43.8287,-36.4969 70.3204,-36.4969 25.3575,0 46.5022,10.0053 63.5152,29.8538 16.8105,20.0105 25.317,52.6593 25.317,97.9868 0,46.6642 -9.15462,80.8523 -27.3423,102.686 -18.3092,21.6713 -40.9932,32.4867 -68.3356,32.4867 -26.4917,0 -48.6491,-10.3293 -66.9988,-31.15 -18.1472,-20.6992 -27.3018,-51.3631 -27.3018,-91.8297z"
     id="path66" /></glyph>
  </font><font
     id="FontID0"
     horiz-adv-x="507"
     font-variant="normal"
     style="fill-rule:nonzero"
     font-weight="400"
     horiz-origin-x="0"
     horiz-origin-y="0"
     vert-origin-x="512"
     vert-origin-y="768"
     vert-adv-y="1024">
	<font-face
   font-family="Impact"
   id="font-face67">
	</font-face>
   <missing-glyph
   id="missing-glyph67"><path
     d="M0 0z"
     id="path67" /></missing-glyph>
   <glyph
   unicode="D"
   horiz-adv-x="552"
   id="glyph68"><path
     d="M40.9952 791.007l153.844 0c99.1683,0 166.32,-4.51302 201.337,-13.6808 34.9936,-9.16781 61.6464,-24.1482 79.8166,-44.9884 18.1702,-20.8402 29.6772,-43.996 34.1666,-69.5147 4.51302,-25.6604 6.8286,-75.8234 6.8286,-150.82l0 -276.995c0,-71.0033 -3.3316,-118.496 -9.9948,-142.337 -6.6632,-24.0064 -18.3356,-42.8382 -34.8282,-56.33 -16.658,-13.5154 -37.1674,-22.8486 -61.6701,-28.3304 -24.3372,-5.34001 -61.1739,-8.01002 -110.321,-8.01002l-259.18 0 0 791.007zm206.016 -135.013l0 -521.006c29.1574,0 47.1622,6.00161 53.8254,17.8394 6.8286,12.0032 10.1602,44.3268 10.1602,97.1599l0 307.689c0,35.8206 -1.15779,58.8346 -3.3316,68.9948 -2.33921,10.1602 -7.3248,17.485 -15.5002,22.1634 -7.98639,4.82019 -22.9904,7.1594 -45.1538,7.1594z"
     id="path68" /></glyph>
   <glyph
   unicode="A"
   horiz-adv-x="507"
   id="glyph69"><path
     d="M395.823 791.007l117.669 -791.007 -210.151 0 -11.0108 142.007 -74.3349 0 -11.1526 -142.007 -212.844 0 104.343 791.007 297.481 0zm-109.163 -509.002c-9.664,89.6697 -20.155,200.652 -31.1658,333.16 -20.3204,-152.001 -33.1506,-263.007 -38.656,-333.16l69.8218 0z"
     id="path69" /></glyph>
   <glyph
   unicode="R"
   horiz-adv-x="538"
   id="glyph70"><path
     d="M40.9952 791.007l145.504 0c96.9945,0 162.658,-3.6624 196.99,-11.1762 34.3557,-7.49019 62.3553,-26.6528 84.0225,-57.4878 21.6672,-30.6696 32.489,-79.8403 32.489,-147.181 0,-61.5047 -7.65559,-102.831 -22.9904,-124.002 -15.1694,-21.171 -45.3428,-33.8358 -90.3313,-37.9944 40.6644,-10.1602 68.1442,-23.6756 82.1559,-40.6644 13.988,-16.8234 22.6596,-32.5126 25.9912,-46.666 3.497,-14.177 5.17461,-53.1638 5.17461,-117.008l0 -208.828 -191.012 0 0 263.173c0,42.3184 -3.3316,68.4987 -9.9948,78.6589 -6.4978,10.1602 -23.8174,15.1694 -51.9824,15.1694l0 -357.001 -206.016 0 0 791.007zm206.016 -135.013l0 -175.984c22.9904,0 38.9868,3.1662 48.1546,9.49861 9.16781,6.3324 13.8226,26.9836 13.8226,61.8355l0 43.4998c0,25.1642 -4.48939,41.6568 -13.3264,49.4778 -8.83701,7.84462 -25.1642,11.6724 -48.6508,11.6724z"
     id="path70" /></glyph>
   <glyph
   unicode="-"
   horiz-adv-x="294"
   id="glyph71"><path
     d="M276.003 391.995l0 -136.005 -257.998 0 0 136.005 257.998 0z"
     id="path71" /></glyph>
   <glyph
   unicode="O"
   horiz-adv-x="546"
   id="glyph72"><path
     d="M509.995 327.324c0,-79.4858 -1.81938,-135.65 -5.67081,-168.659 -3.6624,-33.1742 -15.3348,-63.324 -34.9936,-90.6621 -19.6588,-27.338 -46.3352,-48.3437 -79.8403,-62.9932 -33.4814,-14.6732 -72.4918,-21.998 -116.984,-21.998 -42.342,0 -80.1711,6.994 -113.842,20.8166 -33.6704,13.8462 -60.8194,34.4974 -81.1635,62.1662 -20.5094,27.6688 -32.678,57.8423 -36.6712,90.3313 -3.8278,32.678 -5.83621,89.6697 -5.83621,170.999l0 135.343c0,79.5095 1.84301,135.674 5.67081,168.659 3.6624,33.1742 15.3348,63.3477 34.9936,90.6621 19.6824,27.338 46.3352,48.3437 79.8403,63.0169 33.505,14.6496 72.4918,21.998 117.008,21.998 42.3184,0 80.1711,-6.994 113.818,-20.8402 33.6704,-13.8226 60.8431,-34.4974 81.1871,-62.1662 20.4858,-27.6688 32.6544,-57.8186 36.6476,-90.3313 3.85142,-32.6544 5.83621,-89.6697 5.83621,-170.999l0 -135.343zm-205.992 259.841c0,36.6712 -2.00841,60.1578 -6.00161,70.5071 -3.9932,10.1602 -12.1686,15.3348 -24.5026,15.3348 -10.491,0 -18.501,-4.18222 -24.1718,-12.4994 -5.48178,-8.17542 -8.31719,-32.678 -8.31719,-73.3425l0 -369.17c0,-45.839 1.81938,-74.1695 5.48178,-84.8259 3.68603,-10.8454 12.1686,-16.1618 25.5186,-16.1618 13.6572,0 22.4942,6.16701 26.322,18.501 3.8278,12.334 5.67081,41.8222 5.67081,88.3229l0 363.333z"
     id="path72" /></glyph>
   <glyph
   unicode="L"
   horiz-adv-x="380"
   id="glyph73"><path
     d="M247.011 791.007l0 -633.004 123.978 0 0 -158.003 -329.994 0 0 791.007 206.016 0z"
     id="path73" /></glyph>
   <glyph
   unicode="I"
   horiz-adv-x="288"
   id="glyph74"><path
     d="M247.011 791.007l0 -791.007 -206.016 0 0 791.007 206.016 0z"
     id="path74" /></glyph>
   <glyph
   unicode="C"
   horiz-adv-x="553"
   id="glyph75"><path
     d="M521.006 446.009l-206.016 0 0 137.328c0,40.0028 -2.15018,64.8363 -6.4978,74.8311 -4.32399,9.8294 -13.988,14.8386 -28.8266,14.8386 -16.658,0 -27.338,-6.00161 -31.8274,-18.0048 -4.51302,-12.1686 -6.8286,-38.1598 -6.8286,-78.1627l0 -366.996c0,-38.5142 2.31558,-63.5131 6.8286,-75.3509 4.48939,-11.6488 14.6732,-17.485 30.3388,-17.485 15.1458,0 25.1642,5.83621 29.819,17.6504 4.67842,11.6724 6.994,39.3412 6.994,82.8411l0 99.4991 206.016 0 0 -30.835c0,-81.9905 -5.83621,-140.164 -17.3432,-174.33 -11.507,-34.332 -37.1674,-64.3401 -76.6741,-90.1659 -39.6484,-25.8258 -88.3229,-38.656 -146.331,-38.656 -60.1578,0 -109.825,10.8218 -149.001,32.6544 -38.9868,21.8326 -65.0017,52.006 -77.6665,90.6621 -12.6648,38.6796 -18.9972,96.6637 -18.9972,174.165l0 231.015c0,56.9916 2.00841,99.6645 5.83621,128.16 3.9932,28.4958 15.5002,55.9992 34.9936,82.3213 19.3516,26.3456 46.1698,47.1859 80.5019,62.3553 34.332,15.1458 73.8387,22.6596 118.496,22.6596 60.5123,0 110.51,-11.6724 150.017,-35.159 39.3176,-23.3448 65.1671,-52.5022 77.6665,-87.5195 12.334,-34.9936 18.501,-89.3152 18.501,-163.154l0 -75.1619z"
     id="path75" /></glyph>
   <glyph
   unicode="T"
   horiz-adv-x="460"
   id="glyph76"><path
     d="M455.012 791.007l0 -158.003 -121.001 0 0 -633.004 -206.016 0 0 633.004 -121.993 0 0 158.003 449.01 0z"
     id="path76" /></glyph>
   <glyph
   unicode="N"
   horiz-adv-x="541"
   id="glyph77"><path
     d="M500 791.007l0 -791.007 -180.001 0 -106.989 359.671 0 -359.671 -172.015 0 0 791.007 172.015 0 114.999 -356.174 0 356.174 171.991 0z"
     id="path77" /></glyph>
   <glyph
   unicode="Y"
   horiz-adv-x="473"
   id="glyph78"><path
     d="M478.994 791.007l-149.993 -504.678 0 -286.329 -189.996 0 0 286.329 -145.007 504.678 188.838 0c29.1574,-154.837 46.0044,-258.849 50.163,-312.178 11.8378,84.3297 30.835,188.342 57.3224,312.178l188.673 0z"
     id="path78" /></glyph>
   <glyph
   unicode="H"
   horiz-adv-x="555"
   id="glyph79"><path
     d="M512.996 791.007l0 -791.007 -205.992 0 0 332.002 -59.9924 0 0 -332.002 -206.016 0 0 791.007 206.016 0 0 -282.997 59.9924 0 0 282.997 205.992 0z"
     id="path79" /></glyph>
   <glyph
   unicode="V"
   horiz-adv-x="523"
   id="glyph80"><path
     d="M528.998 790.997l-104.156 -790.997 -311.516 0 -119.328 790.997 217.006 0c24.4849,-218.173 42.3246,-402.668 53.4953,-553.507 11.0039,152.507 22.3413,287.841 33.8454,406.002l13.6477 147.505 217.006 0z"
     id="path80" /></glyph>
   <glyph
   unicode="E"
   horiz-adv-x="415"
   id="glyph81"><path
     d="M40.9952 791.007l343.013 0 0 -158.003 -136.997 0 0 -151.009 127.995 0 0 -149.993 -127.995 0 0 -173.999 150.985 0 0 -158.003 -357.001 0 0 791.007z"
     id="path81" /></glyph>
   <glyph
   unicode="B"
   horiz-adv-x="552"
   id="glyph82"><path
     d="M40.9952 791.007l204.669 0c64.6709,0 113.676,-5.00922 146.992,-15.1694 33.3396,-9.9948 60.1815,-30.5042 80.6673,-61.1739 20.5094,-30.835 30.6696,-80.3365 30.6696,-148.67 0,-46.1698 -7.1594,-78.3281 -21.6672,-96.4983 -14.4842,-18.3356 -43.169,-32.1582 -85.8183,-41.9876 47.6584,-10.8454 79.982,-28.6848 96.9945,-53.5183 16.9888,-24.9988 25.495,-63.1586 25.495,-114.834l0 -73.3188c0,-53.4946 -6.16701,-93.0013 -18.3356,-118.827 -12.1686,-25.684 -31.4966,-43.3344 -58.1731,-52.833 -26.6528,-9.49861 -81.3289,-14.177 -163.981,-14.177l-237.512 0 0 791.007zm206.016 -135.013l0 -175.984c8.64798,0.330797 15.3112,0.496196 20.155,0.496196 19.6588,0 32.3236,4.98559 37.6636,14.815 5.50541,10.0184 8.17542,38.5142 8.17542,85.3457 0,24.8334 -2.17381,42.1766 -6.6632,52.1714 -4.51302,9.8294 -10.3492,16.1618 -17.5086,18.8318 -7.1594,2.50461 -21.171,3.9932 -41.8222,4.32399zm0 -298.993l0 -222.012c28.3304,1.01602 46.5006,5.50541 54.3216,13.6808 7.84462,8.17542 11.6724,28.3304 11.6724,60.3232l0 74.0041c0,34.0012 -3.497,54.5107 -10.5146,61.8355 -6.994,7.1594 -25.495,11.1762 -55.4794,12.1686z"
     id="path82" /></glyph>
   <glyph
   unicode="S"
   horiz-adv-x="517"
   id="glyph83"><path
     d="M475.994 550.99l-190.988 0 0 58.5039c0,27.338 -2.50461,44.8467 -7.34842,52.3368 -4.82019,7.51382 -12.8302,11.1762 -24.1482,11.1762 -12.334,0 -21.6672,-5.00922 -27.9996,-15.1694 -6.3324,-9.9948 -9.49861,-25.1642 -9.49861,-45.6736 0,-26.322 3.6624,-46.1698 10.8218,-59.4962 6.994,-13.161 26.3456,-29.3228 58.1731,-48.3437 91.1583,-54.487 148.67,-99.3337 172.322,-134.162 23.841,-34.8282 35.6788,-90.9929 35.6788,-168.329 0,-56.33 -6.6632,-97.8451 -19.8478,-124.663 -13.161,-26.6764 -38.4906,-49.0052 -76.3196,-67.0101 -37.6636,-18.1702 -81.4943,-27.149 -131.681,-27.149 -54.9832,0 -101.815,10.491 -140.825,31.3312 -38.8214,20.8166 -64.1747,47.3276 -76.3433,79.4858 -11.9796,32.3472 -17.9812,78.1627 -17.9812,137.328l0 51.8407 190.988 0 0 -96.1675c0,-29.6536 2.67001,-48.6744 8.01002,-57.157 5.31638,-8.50621 14.8386,-12.6648 28.4958,-12.6648 13.6572,0 23.841,5.31638 30.5042,16.1618 6.6632,10.6564 9.9948,26.6528 9.9948,47.6584 0,46.5006 -6.3324,77.0049 -18.9972,91.1819 -13.161,14.3188 -45.1774,38.3252 -96.1675,71.9957 -51.0137,33.8358 -84.6605,58.5039 -101.342,73.8387 -16.4926,15.3112 -30.3388,36.4822 -41.1606,63.4894 -10.8454,27.0072 -16.3272,61.5047 -16.3272,103.492 0,60.5123 7.65559,104.839 23.1558,132.839 15.5002,27.9996 40.3336,49.8322 74.8311,65.6632 34.4974,15.831 76.0125,23.6756 124.829,23.6756 53.3529,0 98.6721,-8.67161 136.336,-25.8258 37.4982,-17.3432 62.3316,-39.0104 74.5003,-65.3561 12.1686,-26.1566 18.3356,-70.6488 18.3356,-133.477l0 -31.3549z"
     id="path83" /></glyph>
   <glyph
   unicode=" "
   horiz-adv-x="176"
   id="glyph84" />
   <glyph
   unicode="P"
   horiz-adv-x="502"
   id="glyph85"><path
     d="M40.9952 791.007l207.174 0c55.9992,0 99.0029,-4.34762 129.176,-13.1846 29.9844,-8.81338 52.644,-21.4782 67.8134,-37.9944 15.1694,-16.658 25.3532,-36.8366 30.835,-60.3232 5.34001,-23.6756 8.01002,-60.1815 8.01002,-109.683l0 -68.8295c0,-50.3284 -5.17461,-87.1651 -15.6656,-110.155 -10.3492,-23.1794 -29.5118,-40.9952 -57.1807,-53.3292 -27.8342,-12.334 -64.151,-18.501 -108.998,-18.501l-55.1486 0 0 -319.007 -206.016 0 0 791.007zm206.016 -135.013l0 -201.503c5.81258,-0.330797 10.8218,-0.496196 14.9804,-0.496196 18.8318,0 31.851,4.67842 39.1758,14.0116 7.1594,9.16781 10.8218,28.4958 10.8218,57.8186l0 65.1671c0,27.0072 -4.15859,44.6813 -12.6648,52.833 -8.31719,8.17542 -25.8258,12.1686 -52.3132,12.1686z"
     id="path84" /></glyph>
   <glyph
   unicode="M"
   horiz-adv-x="716"
   id="glyph86"><path
     d="M674.992 791.007l0 -791.007 -180.001 0 -0.496196 534.001 -71.4995 -534.001 -125.986 0 -75.5163 521.998 -0.496196 -521.998 -180.001 0 0 791.007 265.843 0c7.49019,-47.8475 15.6656,-104.177 24.5026,-168.518l29.1574 -200.818 46.8314 369.335 267.662 0z"
     id="path85" /></glyph>
   <glyph
   unicode="J"
   horiz-adv-x="330"
   id="glyph87"><path
     d="M292.009 790.997l0 -528.665c0,-79.1711 -0.833631,-129.999 -2.50089,-152.674 -1.66726,-22.6509 -9.16994,-42.9915 -22.3413,-61.3314 -13.3381,-18.1493 -31.3445,-30.8205 -53.8287,-37.823 -22.508,-7.0025 -56.4964,-10.5038 -101.846,-10.5038l-102.489 0 0 138.502c12.171,-1.00036 21.0075,-1.50054 26.4856,-1.50054 14.3385,0 25.8426,3.50125 34.1789,10.6705 8.33631,7.16923 13.1714,16.0057 14.3385,26.4856 1.33381,10.337 2.00071,30.5109 2.00071,60.4978l0 556.342 206.002 0z"
     id="path86" /></glyph>
   <glyph
   unicode="X"
   horiz-adv-x="482"
   id="glyph88"><path
     d="M457.493 791.007l-71.9957 -349.842 108.998 -441.165 -189.996 0c-22.6596,78.9897 -43.6652,175.157 -62.9932,288.833 -5.83621,-50.6592 -13.35,-103.823 -22.6832,-159.822l-18.312 -129.011 -200.014 0 74.9965 441.165 -74.9965 349.842 198.998 0c4.18222,-21.8326 11.1762,-58.3385 21.171,-109.352 8.17542,-38.656 15.1694,-74.4766 20.8402,-107.155l43.996 216.507 171.991 0z"
     id="path87" /></glyph>
   <glyph
   unicode="G"
   horiz-adv-x="551"
   id="glyph89"><path
     d="M512.003 499.008l-205.992 0 0 71.8303c0,45.3192 -1.84301,73.6733 -5.67081,84.9913 -3.85142,11.507 -12.9956,17.1778 -27.338,17.1778 -12.334,0 -20.8402,-4.84382 -25.3296,-14.6732 -4.51302,-9.664 -6.6632,-34.8282 -6.6632,-75.1619l0 -379.33c0,-35.348 2.15018,-58.8346 6.6632,-70.0109 4.48939,-11.1762 13.3264,-16.8234 26.6528,-16.8234 14.6732,0 24.5026,6.3324 29.8426,18.9972 5.17461,12.6648 7.82099,37.4982 7.82099,74.3349l0 93.6629 -39.9792 0 0 120.009 239.993 0 0 -424.011 -129.507 0 -18.9972 56.6608c-13.988,-24.5026 -31.662,-42.8382 -52.833,-55.1723 -21.3364,-12.3104 -46.5006,-18.4774 -75.3273,-18.4774 -34.4974,0 -66.6793,8.31719 -96.8291,25.1642 -30.008,16.8234 -52.833,37.4982 -68.3333,62.3316 -15.6656,24.668 -25.3532,50.6592 -29.3464,77.8319 -3.8278,27.1726 -5.83621,68.0025 -5.83621,122.324l0 235.008c0,75.4927 4.01682,130.334 12.1686,164.501 8.17542,34.332 31.4966,65.6632 70.0109,94.1591 38.4906,28.4958 88.3229,42.6728 149.497,42.6728 60.1578,0 109.99,-12.334 149.662,-37.1674 39.672,-24.8334 65.6632,-54.1799 77.6665,-88.1811 12.0032,-34.1666 18.0048,-83.479 18.0048,-148.481l0 -34.1666z"
     id="path88" /></glyph>
  </font>
</defs>
</svg>
